<?xml version="1.0" encoding="utf-8"?>
<!-- Generator: Adobe Illustrator 25.4.1, SVG Export Plug-In . SVG Version: 6.00 Build 0)  -->
<svg version="1.1" id="Layer_1" xmlns="http://www.w3.org/2000/svg" xmlns:xlink="http://www.w3.org/1999/xlink" x="0px" y="0px"
	 width="22.8px" height="40px" viewBox="0 0 22.8 40" style="enable-background:new 0 0 22.8 40;" xml:space="preserve">
<style type="text/css">
	.st0{filter:url(#_x33_2_x5F_dropdown);}
	.st1{opacity:0.848;fill:#FFFFFF;enable-background:new    ;}
</style>
<filter  filterUnits="userSpaceOnUse" height="136" id="_x33_2_x5F_dropdown" width="118.792" x="0" y="0">
	<feOffset  input="SourceAlpha"></feOffset>
	<feGaussianBlur  result="blur" stdDeviation="16"></feGaussianBlur>
	<feFlood  flood-opacity="0.161"></feFlood>
	<feComposite  in2="blur" operator="in"></feComposite>
	<feComposite  in="SourceGraphic" operator="over"></feComposite>
</filter>
<g transform="matrix(1, 0, 0, 1, 0, 0)" class="st0">
	<path id="_x33_2_x5F_dropdown-2_00000183213485759200934090000007038738350566708920_" class="st1" d="M21.8,1c1,1,1.1,2.7,0.2,3.8
		L21.8,5L6.8,20L22,35.1c1,1,1.1,2.7,0.2,3.8L22,39.2c-1,1-2.7,1.1-3.8,0.2l-0.2-0.2L0.8,22.1c-1-1-1.1-2.7-0.2-3.8L0.8,18L17.9,1
		c0.8-1.1,2.3-1.3,3.4-0.5C21.5,0.6,21.6,0.8,21.8,1z"/>
</g>
</svg>
