<?xml version="1.0" encoding="utf-8"?>
<!-- Generator: Adobe Illustrator 25.4.1, SVG Export Plug-In . SVG Version: 6.00 Build 0)  -->
<svg version="1.1" id="Layer_1" xmlns="http://www.w3.org/2000/svg" xmlns:xlink="http://www.w3.org/1999/xlink" x="0px" y="0px"
	 width="31px" height="31px" viewBox="0 0 31 31" style="enable-background:new 0 0 31 31;" xml:space="preserve">
<style type="text/css">
	.st0{fill:#FFFFFF;}
	.st1{fill:#682C49;}
</style>
<g id="Layer_2_00000060032573689676505440000007906250230291634570_">
	<circle class="st0" cx="15.5" cy="15.5" r="15"/>
</g>
<g>
	<path class="st1" d="M13.5,19.3H14v-3.9h-0.5c-0.1,0-0.3-0.1-0.4-0.2s-0.2-0.2-0.2-0.4v-1.3c0-0.1,0.1-0.3,0.2-0.4s0.2-0.2,0.4-0.2
		h3.1c0.1,0,0.3,0.1,0.4,0.2s0.2,0.2,0.2,0.4v5.8h0.5c0.1,0,0.3,0.1,0.4,0.2s0.2,0.2,0.2,0.4v1.3c0,0.1-0.1,0.3-0.2,0.4
		s-0.2,0.2-0.4,0.2h-4.2c-0.1,0-0.3-0.1-0.4-0.2s-0.2-0.2-0.2-0.4v-1.3c0-0.1,0.1-0.3,0.2-0.4S13.3,19.3,13.5,19.3z M15.5,7.7
		c-0.5,0-1,0.2-1.4,0.6s-0.6,0.8-0.6,1.4s0.2,1,0.6,1.4s0.8,0.6,1.4,0.6c0.5,0,1-0.2,1.4-0.6s0.6-0.8,0.6-1.4s-0.2-1-0.6-1.4
		S16.1,7.7,15.5,7.7z"/>
</g>
</svg>
