<svg xmlns="http://www.w3.org/2000/svg" width="13" height="20.154" viewBox="0 0 13 20.154">
  <path id="Location" d="M10.865,16.834a.439.439,0,0,1,.439.439c0,1.8-1.894,3.2-4.181,3.2s-4.164-1.4-4.164-3.2a.439.439,0,1,1,.878,0c0,1.251,1.455,2.322,3.3,2.322s3.3-1.054,3.3-2.322A.439.439,0,0,1,10.865,16.834ZM7,.32a6.5,6.5,0,0,1,6.5,6.5,6.627,6.627,0,0,1-.06.878h.06l-.081.141a6.475,6.475,0,0,1-2.2,3.921L8.226,17.1a1.405,1.405,0,0,1-2.459,0L2.784,11.76a6.475,6.475,0,0,1-2.2-3.921L.5,7.7H.56A6.626,6.626,0,0,1,.5,6.82,6.5,6.5,0,0,1,7,.32ZM7,1.2A5.622,5.622,0,0,0,1.378,6.82a3.838,3.838,0,0,0,.028.569l.025.218V7.7a5.59,5.59,0,0,0,1.918,3.4.906.906,0,0,1,.162.186l.032.053,3,5.344a.531.531,0,0,0,.2.2.52.52,0,0,0,.7-.158l.028-.042,3-5.344a.85.85,0,0,1,.193-.239,5.622,5.622,0,0,0,1.876-3.246l.025-.144V7.586a5.436,5.436,0,0,0,.056-.766A5.622,5.622,0,0,0,7,1.2ZM6.944,3.834a2.927,2.927,0,1,1-2.073.857,2.93,2.93,0,0,1,2.073-.857Zm0,.878A2.052,2.052,0,1,0,9,6.764,2.052,2.052,0,0,0,6.944,4.712Z" transform="translate(-0.5 -0.32)" fill="#5d3327" fill-rule="evenodd"/>
</svg>
