<svg xmlns="http://www.w3.org/2000/svg" width="61.239" height="52.055" viewBox="0 0 61.239 52.055">
  <g id="calender" transform="translate(0 0.011)">
    <path id="Path_12" data-name="Path 12" d="M58.234,4.706H47.151V2.452A2.444,2.444,0,0,0,45.084.01a2.322,2.322,0,0,0-2.63,2.442V4.894H33.062V2.452A2.444,2.444,0,0,0,31,.01a2.389,2.389,0,0,0-2.818,2.442V4.894H18.785V2.452A2.593,2.593,0,0,0,16.531.01,2.41,2.41,0,0,0,13.9,2.452V4.894H3.006A2.713,2.713,0,0,0,0,7.711V49.039a2.967,2.967,0,0,0,3.006,3.006H58.234a2.967,2.967,0,0,0,3.006-3.006V7.711A3.089,3.089,0,0,0,58.234,4.706ZM13.9,9.4v2.442a2.442,2.442,0,0,0,4.884,0V9.4h9.393v2.442a2.442,2.442,0,1,0,4.884,0V9.4h9.393v2.442a2.442,2.442,0,1,0,4.884,0V9.4h9.393v6.95H4.7V9.4ZM4.7,47.348V21.425H56.355V47.536H4.7Z" transform="translate(0 0)" fill="#fff"/>
    <path id="Path_13" data-name="Path 13" d="M25.116,12.9l-7.432,7.754L13.7,16.244a2.4,2.4,0,0,0-3.584-.134,2.562,2.562,0,0,0-.265,3.609l7.565,8.556L28.7,16.512a2.554,2.554,0,0,0-.133-3.609A2.256,2.256,0,0,0,25.116,12.9Z" transform="translate(12.295 13.917)" fill="#fff"/>
  </g>
</svg>