<?xml version="1.0" encoding="utf-8"?>
<!-- Generator: Adobe Illustrator 25.4.1, SVG Export Plug-In . SVG Version: 6.00 Build 0)  -->
<svg version="1.1" xmlns="http://www.w3.org/2000/svg" xmlns:xlink="http://www.w3.org/1999/xlink" x="0px" y="0px" width="31px"
	 height="31px" viewBox="0 0 31 31" style="enable-background:new 0 0 31 31;" xml:space="preserve">
<style type="text/css">
	.st0{fill:#AE8347;stroke:#976E35;stroke-miterlimit:10;}
	.st1{fill:#FFFFFF;stroke:#976E35;stroke-miterlimit:10;}
</style>
<g id="Layer_2">
	<circle class="st0" cx="15.5" cy="15.5" r="15"/>
</g>
<g id="Layer_1">
	<g>
		<path class="st1" d="M22.5,19.6c0,0.2,0,0.4-0.1,0.7c-0.1,0.3-0.1,0.5-0.2,0.7c-0.1,0.3-0.5,0.7-1.2,1.1c-0.6,0.3-1.2,0.5-1.8,0.5
			c-0.2,0-0.4,0-0.5,0c-0.2,0-0.4-0.1-0.6-0.1c-0.2-0.1-0.4-0.1-0.5-0.1c-0.1,0-0.3-0.1-0.6-0.2c-0.3-0.1-0.4-0.2-0.5-0.2
			c-0.7-0.2-1.2-0.5-1.7-0.8c-0.8-0.5-1.7-1.2-2.6-2.1c-0.9-0.9-1.6-1.8-2.1-2.6c-0.3-0.5-0.6-1.1-0.8-1.7c0-0.1-0.1-0.2-0.2-0.5
			c-0.1-0.3-0.2-0.4-0.2-0.6c0-0.1-0.1-0.3-0.1-0.5c-0.1-0.2-0.1-0.4-0.1-0.6c0-0.2,0-0.3,0-0.5c0-0.6,0.2-1.2,0.5-1.8
			c0.4-0.7,0.7-1.1,1.1-1.2c0.2-0.1,0.4-0.1,0.7-0.2c0.3-0.1,0.5-0.1,0.7-0.1c0.1,0,0.2,0,0.2,0c0.1,0,0.3,0.3,0.5,0.8
			c0.1,0.1,0.2,0.3,0.3,0.5c0.1,0.2,0.2,0.4,0.3,0.6c0.1,0.2,0.2,0.4,0.3,0.5c0,0,0.1,0.1,0.2,0.2c0.1,0.1,0.2,0.3,0.2,0.4
			c0,0.1,0.1,0.2,0.1,0.3c0,0.1-0.1,0.3-0.3,0.5c-0.2,0.2-0.4,0.4-0.6,0.5c-0.2,0.2-0.4,0.3-0.6,0.5c-0.2,0.2-0.3,0.3-0.3,0.5
			c0,0.1,0,0.1,0,0.2c0,0.1,0.1,0.2,0.1,0.2c0,0,0.1,0.1,0.1,0.2c0.1,0.1,0.1,0.2,0.1,0.2c0.5,0.9,1.1,1.7,1.7,2.3
			c0.7,0.7,1.4,1.2,2.3,1.7c0,0,0.1,0,0.2,0.1c0.1,0.1,0.2,0.1,0.2,0.1c0,0,0.1,0.1,0.2,0.1c0.1,0,0.2,0,0.2,0
			c0.1,0,0.3-0.1,0.5-0.3c0.2-0.2,0.4-0.4,0.5-0.6c0.2-0.2,0.3-0.4,0.5-0.6c0.2-0.2,0.4-0.3,0.5-0.3c0.1,0,0.2,0,0.3,0.1
			c0.1,0,0.2,0.1,0.4,0.2c0.1,0.1,0.2,0.2,0.2,0.2c0.2,0.1,0.3,0.2,0.5,0.3c0.2,0.1,0.4,0.2,0.6,0.3c0.2,0.1,0.4,0.2,0.5,0.3
			c0.5,0.2,0.7,0.4,0.8,0.5C22.5,19.4,22.5,19.5,22.5,19.6z"/>
	</g>
</g>
</svg>
