<?xml version="1.0" encoding="utf-8"?>
<!-- Generator: Adobe Illustrator 25.4.1, SVG Export Plug-In . SVG Version: 6.00 Build 0)  -->
<svg version="1.1" id="Layer_1" xmlns="http://www.w3.org/2000/svg" xmlns:xlink="http://www.w3.org/1999/xlink" x="0px" y="0px"
	 width="63px" height="63px" viewBox="0 0 63 63" style="enable-background:new 0 0 63 63;" xml:space="preserve">
<style type="text/css">
	.st0{fill:#5D3327;}
</style>
<g>
	<path class="st0" d="M47.2,4.3C52,7.1,55.9,11,58.7,15.8C61.4,20.5,63,26,63,31.5s-1.6,11-4.3,15.8C55.9,52,52,55.9,47.2,58.7
		C42.5,61.4,37,63,31.5,63s-11-1.6-15.8-4.3C11,55.9,7.1,52,4.3,47.2S0,37,0,31.5s1.6-11,4.3-15.8S11,7.1,15.8,4.3S26,0,31.5,0
		S42.5,1.6,47.2,4.3z M44.1,53.6c3.9-2.4,7.1-5.5,9.5-9.5c2.4-3.9,3.5-8.3,3.5-12.6s-1.2-8.7-3.5-12.6c-2.4-3.9-5.5-7.1-9.5-9.5
		s-8.3-3.5-12.6-3.5s-8.7,1.2-12.6,3.5s-7.1,5.5-9.5,9.5s-3.5,7.9-3.5,12.6s1.2,8.7,3.5,12.6s5.5,7.1,9.5,9.5
		c3.9,2.4,8.3,3.5,12.6,3.5S40.2,55.9,44.1,53.6z M40.6,44.1c0.4,0,0.8-0.4,1.2-0.8l2.4-3.2c0.4-0.4,0.4-0.8,0.4-1.2
		c0-0.4-0.4-0.8-0.4-1.2L35,31.9V13.8c0-0.4,0-0.8-0.4-1.2c-0.4-0.4-0.8-0.4-1.2-0.4h-3.9c-0.4,0-0.8,0-1.2,0.4
		C28,13,28,13.4,28,13.8v20.9c0,0.4,0.4,0.8,0.8,1.2l10.6,7.9C39.8,44.1,40.2,44.1,40.6,44.1z"/>
</g>
</svg>
