<?xml version="1.0" encoding="utf-8"?>
<!-- Generator: Adobe Illustrator 25.4.1, SVG Export Plug-In . SVG Version: 6.00 Build 0)  -->
<svg version="1.1" id="Layer_1" xmlns="http://www.w3.org/2000/svg" xmlns:xlink="http://www.w3.org/1999/xlink" x="0px" y="0px"
	 width="16px" height="16px" viewBox="0 0 16 16" style="enable-background:new 0 0 16 16;" xml:space="preserve">
<style type="text/css">
	.st0{fill:#5D3327;}
</style>
<g>
	<path class="st0" d="M12,1.1c1.2,0.7,2.2,1.7,2.9,2.9C15.6,5.2,16,6.6,16,8s-0.4,2.8-1.1,4c-0.7,1.2-1.7,2.2-2.9,2.9
		C10.8,15.6,9.4,16,8,16s-2.8-0.4-4-1.1c-1.2-0.7-2.2-1.7-2.9-2.9S0,9.4,0,8s0.4-2.8,1.1-4S2.8,1.8,4,1.1S6.6,0,8,0S10.8,0.4,12,1.1
		z M11.2,13.6c1-0.6,1.8-1.4,2.4-2.4s0.9-2.1,0.9-3.2s-0.3-2.2-0.9-3.2c-0.6-1-1.4-1.8-2.4-2.4S9.1,1.5,8,1.5S5.8,1.8,4.8,2.4
		S3,3.8,2.4,4.8S1.5,6.8,1.5,8s0.3,2.2,0.9,3.2s1.4,1.8,2.4,2.4s2.1,0.9,3.2,0.9S10.2,14.2,11.2,13.6z M10.3,11.2
		c0.1,0,0.2-0.1,0.3-0.2l0.6-0.8c0.1-0.1,0.1-0.2,0.1-0.3s-0.1-0.2-0.1-0.3L8.9,8.1V3.5c0-0.1,0-0.2-0.1-0.3
		C8.7,3.1,8.6,3.1,8.5,3.1h-1c-0.1,0-0.2,0-0.3,0.1C7.1,3.3,7.1,3.4,7.1,3.5v5.3c0,0.1,0.1,0.2,0.2,0.3l2.7,2
		C10.1,11.2,10.2,11.2,10.3,11.2z"/>
</g>
</svg>
