<svg xmlns="http://www.w3.org/2000/svg" width="70" height="50.199" viewBox="0 0 70 50.199">
  <g id="vespa" transform="translate(0 -0.1)">
    <path id="Path_16" data-name="Path 16" d="M69.327,27.874A18.186,18.186,0,0,0,66.9,26.145l-.054-.054h0a14.184,14.184,0,0,0-7.727-1.621,26.24,26.24,0,0,0-2.324-8.159,7.143,7.143,0,0,0,1.459.108,2.03,2.03,0,0,0,2-2V6.044a2.03,2.03,0,0,0-2-2A14.61,14.61,0,0,0,52.576,5.4L49.334.911A1.926,1.926,0,0,0,47.713.1H43.822a2.03,2.03,0,0,0-2,2,2.03,2.03,0,0,0,2,2h2.864l3.458,4.863V10.8h-.108a.325.325,0,0,0-.216.054c-1.729.54-5.674,2.7-5.674,10.645,0,3.728.216,7.025.324,8.754a6.592,6.592,0,0,1-2.756,1.027h-3.62a4.446,4.446,0,0,1-2.54-2.648c-.594-2.215,1.189-4.863,1.243-4.971a1.181,1.181,0,0,0,.162-.27l.054-.108c0-.054.054-.054.054-.108a1.371,1.371,0,0,0,.108-.648V20.633a7.725,7.725,0,0,0-7.727-7.727H5.674v.27A3.736,3.736,0,0,0,9.4,16.9h1.243a7.48,7.48,0,0,0-.973,3.674v1.243A13.607,13.607,0,0,0,3.3,29.765H2a2,2,0,1,0,0,4h.27A21.185,21.185,0,0,0,2,37.222v2.756a2.03,2.03,0,0,0,2,2H5.836a10.361,10.361,0,0,0,20.317,0H46.47a7.6,7.6,0,0,0,1.513-.162,10.323,10.323,0,1,0,18.642-7.727l2.864-3.458A1.912,1.912,0,0,0,69.327,27.874Zm-47.335,14.1a6.248,6.248,0,0,1-11.888,0ZM13.671,20.525a3.7,3.7,0,0,1,3.674-3.62H29.4a3.674,3.674,0,0,1,3.674,3.458H14.535C14.211,20.417,13.941,20.471,13.671,20.525ZM56.2,8.313V12.1a17.828,17.828,0,0,1-2.053-.7V9.016A17.828,17.828,0,0,1,56.2,8.313ZM26.315,31.765a2.03,2.03,0,0,0-2-2H7.565a8.758,8.758,0,0,1,7.241-5.349H31.935a9.4,9.4,0,0,0-.324,5.133c.648,2.378,2.378,4.215,5.187,5.458a2.168,2.168,0,0,0,.811.162h4.053a9.667,9.667,0,0,0,6.322-2.918c.054-.054.054-.108.108-.162l.054-.054c.054-.054.054-.108.108-.162a.2.2,0,0,0,.054-.162,1,1,0,0,0,.108-.378,1.5,1.5,0,0,0,.054-.486v-.108c0-.054-.378-4.377-.378-9.4,0-3.566.973-6,2.7-6.7h.216A20.819,20.819,0,0,1,55.062,25.28,7.717,7.717,0,0,0,51.549,27.6a2,2,0,0,0,.432,2.81,1.842,1.842,0,0,0,1.189.378,2.074,2.074,0,0,0,1.621-.811,5.47,5.47,0,0,1,2.756-1.3h.216c.27-.054.486-.108.756-.162a9.86,9.86,0,0,1,6.43,1.027c.054.054.108.054.162.108l-1.837,2.215c-4.539-.54-8.159.54-11.131,3.35a8.93,8.93,0,0,1-5.62,2.7H6.052v-.7a20.614,20.614,0,0,1,.324-3.458h17.94A1.961,1.961,0,0,0,26.315,31.765ZM54.9,38.195c2.107-1.945,4.593-2.648,8.159-2.161a6.085,6.085,0,0,1,1.459,4,6.3,6.3,0,0,1-12.59.432A15.964,15.964,0,0,0,54.9,38.195Z" fill="#fff"/>
  </g>
</svg>