<?xml version="1.0" encoding="utf-8"?>
<!-- Generator: Adobe Illustrator 25.4.1, SVG Export Plug-In . SVG Version: 6.00 Build 0)  -->
<svg version="1.1" id="map_pin.white" xmlns="http://www.w3.org/2000/svg" xmlns:xlink="http://www.w3.org/1999/xlink" x="0px"
	 y="0px" width="37px" height="49.9px" viewBox="0 0 37 49.9" style="enable-background:new 0 0 37 49.9;" xml:space="preserve">
<style type="text/css">
	.st0{fill-rule:evenodd;clip-rule:evenodd;}
	.st1{fill-rule:evenodd;clip-rule:evenodd;fill:#FFFFFF;}
</style>
<path id="Path_7" class="st0" d="M18.5,0C28.7,0,37,8.2,37,18.4c0,0,0,0.1,0,0.1c0,0.8-0.1,1.7-0.2,2.5H37l-0.2,0.4
	c-0.7,4.4-2.9,8.3-6.3,11.2L22,47.8c-1,1.9-3.5,2.6-5.4,1.6c-0.7-0.4-1.2-0.9-1.6-1.6L6.5,32.6C3.2,29.7,1,25.7,0.3,21.4L0,21h0.2
	C0.1,20.2,0,19.3,0,18.5C0,8.3,8.3,0,18.5,0z M18.5,2.5c-8.8,0-16,7.2-16,16c0,0.5,0,1.1,0.1,1.6l0.1,0.6V21
	c0.6,3.8,2.5,7.2,5.5,9.7l0.5,0.5l0.1,0.1l8.5,15.2c0.1,0.2,0.4,0.5,0.6,0.6c0.7,0.4,1.6,0.2,2-0.5c0,0,0,0,0,0l0.1-0.1l8.5-15.2
	c0.1-0.3,0.3-0.5,0.5-0.7c2.8-2.3,4.7-5.6,5.3-9.2l0.1-0.4v-0.4c0.1-0.7,0.2-1.5,0.2-2.2C34.5,9.6,27.3,2.5,18.5,2.5z"/>
<path id="Path_8" class="st1" d="M18.5,2.5c-8.8,0-16,7.2-16,16c0,0.5,0,1.1,0.1,1.6l0.1,0.6V21c0.6,3.8,2.5,7.2,5.5,9.7l0.5,0.5
	l0.1,0.2l8.5,15.2c0.1,0.2,0.4,0.5,0.6,0.6c0.7,0.4,1.5,0.2,2-0.4l0.1-0.1l8.5-15.2c0.1-0.3,0.3-0.5,0.5-0.7
	c2.8-2.3,4.7-5.6,5.3-9.2l0.1-0.4v-0.4c0.1-0.7,0.2-1.5,0.2-2.2C34.6,9.7,27.4,2.5,18.5,2.5C18.5,2.5,18.5,2.5,18.5,2.5z M18.3,24.2
	c-3.2,0-5.8-2.6-5.8-5.8s2.6-5.8,5.8-5.8s5.8,2.6,5.8,5.8v0C24.1,21.6,21.5,24.2,18.3,24.2z"/>
<path id="Path_9" class="st0" d="M18.3,10L18.3,10c-4.6,0-8.3,3.7-8.3,8.3s3.7,8.3,8.3,8.3s8.3-3.7,8.3-8.3l0,0
	C26.6,13.7,22.9,10,18.3,10C18.3,10,18.3,10,18.3,10z M18.3,24.2c-3.2,0-5.8-2.6-5.8-5.8s2.6-5.8,5.8-5.8s5.8,2.6,5.8,5.8v0
	c0.1,3.1-2.4,5.7-5.6,5.8C18.5,24.2,18.4,24.2,18.3,24.2z"/>
</svg>
