<?xml version="1.0" encoding="utf-8"?>
<!-- Generator: Adobe Illustrator 26.0.3, SVG Export Plug-In . SVG Version: 6.00 Build 0)  -->
<svg version="1.1" id="Layer_1" xmlns="http://www.w3.org/2000/svg" xmlns:xlink="http://www.w3.org/1999/xlink" x="0px" y="0px"
	 width="44.4px" height="70px" viewBox="0 0 44.4 70" style="enable-background:new 0 0 44.4 70;" xml:space="preserve">
<style type="text/css">
	.st0{fill:#573B34;}
</style>
<path class="st0" d="M36.4,1.3v10.2h6.7c0.7,0,1.2,0.5,1.3,1.2v48.8c0,0.7-0.5,1.2-1.2,1.3h-5.8c-0.7,0-1.3-0.6-1.3-1.4
	c0-0.6,0.5-1.2,1.1-1.2h4.5V14H2.7v46.1h26.1c0.7,0,1.2,0.5,1.3,1.2v0.1c0,0.7-0.5,1.2-1.2,1.3H18.1v6c0,0.7-0.6,1.3-1.3,1.3
	c-0.2,0-0.5-0.1-0.7-0.2c-1.1-0.7-2.4-1.2-3.7-1.3c-1.3,0.1-2.6,0.5-3.7,1.3C8.1,70.2,7.4,70,7,69.4c-0.1-0.2-0.2-0.4-0.2-0.6v-6.1
	H1.4c-0.7,0-1.2-0.5-1.3-1.2V12.7c0-0.1,0-0.2,0-0.3v0.1c-0.2-0.6,0.1-1.3,0.7-1.6h0.1L34.7,0.1c0.7-0.2,1.4,0.2,1.6,0.9
	C36.4,1,36.4,1.1,36.4,1.3z M15.5,62.7H9.4v3.8h0.2c0.8-0.3,1.7-0.5,2.6-0.6h0.3c1,0,2,0.2,2.9,0.6h0.2L15.5,62.7z M31.7,42.6
	c0.7,0.1,1.2,0.8,1.1,1.5c-0.1,0.5-0.5,1-1,1.1H12.3c-0.7,0-1.3-0.6-1.3-1.4c0-0.6,0.5-1.2,1.1-1.2L31.7,42.6L31.7,42.6z M34.4,35.5
	c0.7,0,1.3,0.6,1.3,1.3c0,0.6-0.5,1.2-1.1,1.3h-0.1l-24,0.2c-0.7,0-1.3-0.5-1.4-1.2c0-0.7,0.5-1.3,1.2-1.4h0.1L34.4,35.5z
	 M31.7,28.7c0.7,0,1.3,0.7,1.2,1.4c0,0.6-0.5,1.1-1.1,1.2H12.3c-0.7,0-1.3-0.5-1.4-1.2c0-0.7,0.5-1.3,1.2-1.4L31.7,28.7L31.7,28.7z
	 M33.8,3.1L8.1,11.4h25.7V3.1z"/>
</svg>
