<?xml version="1.0" encoding="utf-8"?>
<!-- Generator: Adobe Illustrator 26.0.3, SVG Export Plug-In . SVG Version: 6.00 Build 0)  -->
<svg version="1.1" id="Layer_1" xmlns="http://www.w3.org/2000/svg" xmlns:xlink="http://www.w3.org/1999/xlink" x="0px" y="0px"
	 width="30.5px" height="48px" viewBox="0 0 30.5 48" style="enable-background:new 0 0 30.5 48;" xml:space="preserve">
<style type="text/css">
	.st0{fill:#573B34;}
</style>
<path class="st0" d="M25,0.8v7h4.6c0.5,0,0.8,0.4,0.9,0.8v33.5c0,0.5-0.4,0.8-0.8,0.9h-4c-0.5,0-0.9-0.4-0.9-0.9
	c0-0.4,0.3-0.8,0.8-0.9h3.1V9.6H1.8v31.7h17.9c0.5,0,0.8,0.3,0.9,0.8v0.1c0,0.5-0.3,0.8-0.8,0.9h-7.4v4.1c0,0.5-0.4,0.9-0.9,0.9
	c-0.2,0-0.3,0-0.5-0.1c-0.7-0.5-1.6-0.8-2.5-0.9c-0.9,0.1-1.8,0.4-2.5,0.9c-0.4,0.3-1,0.1-1.2-0.3c-0.1-0.1-0.1-0.3-0.1-0.4V43H0.9
	C0.4,43,0,42.7,0,42.2V8.7c0-0.1,0-0.1,0-0.2v0.1c-0.1-0.4,0.1-0.9,0.5-1.1h0.1L23.8,0c0.5-0.1,1,0.1,1.1,0.6
	C24.9,0.7,24.9,0.7,25,0.8z M10.6,43H6.4v2.6h0.1c0.6-0.2,1.2-0.4,1.8-0.4h0.2c0.7,0,1.4,0.1,2,0.4h0.1L10.6,43z M21.8,29.2
	c0.5,0.1,0.8,0.5,0.8,1c0,0.4-0.3,0.7-0.7,0.8H8.4c-0.5,0-0.9-0.4-0.9-0.9c0-0.4,0.3-0.8,0.8-0.9L21.8,29.2L21.8,29.2z M23.6,24.3
	c0.5,0,0.9,0.4,0.9,0.9c0,0.4-0.3,0.8-0.8,0.9h-0.1L7.1,26.2c-0.5,0-0.9-0.3-0.9-0.8s0.3-0.9,0.8-0.9h0.1L23.6,24.3z M21.8,19.7
	c0.5,0,0.9,0.4,0.9,0.9c0,0.4-0.3,0.8-0.8,0.8H8.4c-0.5,0-0.9-0.4-0.9-0.8c0-0.5,0.4-0.9,0.8-0.9L21.8,19.7L21.8,19.7z M23.2,2.1
	L5.5,7.8h17.7V2.1z"/>
</svg>
