<svg xmlns="http://www.w3.org/2000/svg" width="23.24" height="30.993" viewBox="0 0 23.24 30.993">
  <g id="icon_map-pin" transform="translate(-4.38 -0.5)">
    <path id="Path_2" data-name="Path 2" d="M27.62,12.12c0,4.69-1.63,6-10.43,18.75a1.458,1.458,0,0,1-2.39,0C6.01,18.12,4.38,16.81,4.38,12.12a11.62,11.62,0,0,1,23.24,0Zm-1.93,0a9.69,9.69,0,0,0-19.38.01C6.31,16.03,7.57,17,16,29.2,24.43,17,25.69,16.03,25.69,12.12Zm-3.88,0A5.81,5.81,0,1,1,16,6.31,5.815,5.815,0,0,1,21.81,12.12Zm-1.93,0A3.88,3.88,0,1,0,16,16,3.884,3.884,0,0,0,19.88,12.12Z" fill="#b43257"/>
  </g>
</svg>