<svg xmlns="http://www.w3.org/2000/svg" width="33.5" height="38" viewBox="0 0 33.5 38">
  <g id="icon-pickup-white" transform="translate(-1.4 1)">
    <path id="Path_1" data-name="Path 1" d="M33.9,11.2V30.3A5.7,5.7,0,0,1,28.2,36H8.1a5.7,5.7,0,0,1-5.7-5.7V11.2H9.3V8.9a8.9,8.9,0,0,1,17.8,0v2.2h6.8ZM13.1,15.7a1.6,1.6,0,1,0-1.6,1.6A1.645,1.645,0,0,0,13.1,15.7Zm.6-4.5h8.9V8.9a4.546,4.546,0,0,0-4.5-4.5,4.481,4.481,0,0,0-4.5,4.5v2.3Zm13,4.5a1.6,1.6,0,1,0-1.6,1.6A1.807,1.807,0,0,0,26.7,15.7Z" fill="#8f6724" stroke="#fff" stroke-width="2"/>
  </g>
</svg>