<svg xmlns="http://www.w3.org/2000/svg" width="75.011" height="60.989" viewBox="0 0 75.011 60.989">
  <path id="Cheesecake" d="M67.17,56.15V26.83l3.59-2.6a16.59,16.59,0,0,0,1.79-1.48V48.86ZM2.41,36.71V30.18l62.35,8.59v9Zm0-16L64.76,27.3v9L2.41,27.75Zm54.17.77c6.47,0,11.34-2.55,11.34-5.93a3.54,3.54,0,0,0-.4-1.61l2.2-.22c1.92,1.52,2.89,2.94,2.87,4.22s-1.12,2.79-3.25,4.33L65.63,25,13,19.41l32.3-3.24c.55,3.07,5.22,5.32,11.28,5.32ZM49.75,13.4l1-.51-.47-1.06a.87.87,0,0,1-.09-.36c0-.65,1-1.63,3.08-2.25a2.37,2.37,0,0,0,1.24-.83,18.75,18.75,0,0,0,3.15-6,14.14,14.14,0,0,1,3.56,6,2.39,2.39,0,0,0,1.2,1.46c1,.5,1.54,1.11,1.54,1.63a.79.79,0,0,1,0,.25,2.36,2.36,0,0,0,.76,2.51,2,2,0,0,1,.8,1.32c0,1.47-3.4,3.52-8.93,3.52s-8.92-2-8.92-3.52c0-.7.78-1.5,2.09-2.15ZM66,12.75h0l-.45.54Zm9,5.81A3.681,3.681,0,0,0,75,18c0-2.15-1.27-4.22-4-6.31a1.82,1.82,0,0,0-1.32-.38l-3.3.34v-.16c0-1.47-1-2.81-2.84-3.77a16.38,16.38,0,0,0-4.16-7,2.34,2.34,0,0,0-2.2-.65,2.38,2.38,0,0,0-1.73,1.59,17,17,0,0,1-2.82,5.26c-3,.88-4.81,2.59-4.81,4.56a1.93,1.93,0,0,0,0,.24,6,6,0,0,0-2,2L1.09,18.18A1.2,1.2,0,0,0,0,19.38V46.64a1.21,1.21,0,0,0,1,1.18l44.1,8.84a1.2,1.2,0,1,0,.48-2.36L2.41,45.65V39.16l62.35,11v8.18l-8.42-1.32A1.222,1.222,0,0,0,56,59.44L65.78,61H66a1.2,1.2,0,0,0,.79-.29.86.86,0,0,0,.18-.2h0L74.76,50a1.18,1.18,0,0,0,.24-.72V18.59Z" transform="translate(0 -0.011)" fill="#fff" fill-rule="evenodd"/>
</svg>
