<?xml version="1.0" encoding="utf-8"?>
<!-- Generator: Adobe Illustrator 25.4.1, SVG Export Plug-In . SVG Version: 6.00 Build 0)  -->
<svg version="1.1" id="Layer_1" xmlns="http://www.w3.org/2000/svg" xmlns:xlink="http://www.w3.org/1999/xlink" x="0px" y="0px"
	 width="30.1px" height="27.5px" viewBox="0 0 30.1 27.5" style="enable-background:new 0 0 30.1 27.5;" xml:space="preserve">
<style type="text/css">
	.st0{fill:#B43257;}
	.st1{fill-rule:evenodd;clip-rule:evenodd;fill:#B43257;}
</style>
<path class="st0" d="M13.1,1.2L0.3,24.1c-0.6,1.1-0.2,2.5,0.9,3.1c0.3,0.2,0.7,0.3,1.1,0.3h25.6c0.4,0,0.8-0.1,1.1-0.2
	c1.1-0.6,1.5-2,0.9-3.1l0,0L17,1.2c-0.6-1.1-2-1.5-3.1-0.9C13.6,0.5,13.3,0.8,13.1,1.2z M15.1,2.8L27.4,25H2.7L15.1,2.8z"/>
<path class="st1" d="M15.1,20.3c0.8,0,1.4,0.6,1.4,1.4l0,0v0.1c0.1,0.8-0.5,1.5-1.3,1.5c-0.8,0.1-1.5-0.5-1.5-1.3c0-0.1,0-0.2,0-0.2
	v-0.1C13.6,20.9,14.3,20.3,15.1,20.3L15.1,20.3z M16.5,8.2V9l-0.8,9.5h-1.4L13.5,9V8.2H16.5z"/>
</svg>
