<svg xmlns="http://www.w3.org/2000/svg" viewBox="0 0 360.05 174.79"><defs><style>.cls-1{fill:#ff3008;}</style></defs><title>Asset 2</title><g id="Layer_2" data-name="Layer 2"><g id="Layer_1-2" data-name="Layer 1"><path class="cls-1" d="M8.6,141.55V166.2h6.3a12.17,12.17,0,0,0,12-12.33,12,12,0,0,0-12-12.32Zm6.3-7.74c11.75,0,20.63,8.89,20.63,20.06s-8.88,20.06-20.63,20.06H1a1,1,0,0,1-1-1v-38a1,1,0,0,1,1-1Z"/><path class="cls-1" d="M65.85,167.05a13.18,13.18,0,1,0-13.18-13.18,13.2,13.2,0,0,0,13.18,13.18m0-34.09c12.32,0,21.77,9.45,21.77,20.91s-9.45,20.92-21.77,20.92-21.78-9.46-21.78-20.92S53.52,133,65.85,133"/><path class="cls-1" d="M117.62,167.05a13.18,13.18,0,1,0-13.17-13.18,13.2,13.2,0,0,0,13.17,13.18m0-34.09c12.33,0,21.78,9.45,21.78,20.91s-9.45,20.92-21.78,20.92-21.77-9.46-21.77-20.92S105.3,133,117.62,133"/><path class="cls-1" d="M168.26,141.55h-8.88v10.6h8.88a5.21,5.21,0,0,0,5.45-5.15,5.27,5.27,0,0,0-5.45-5.45m-17.48-6.7a1,1,0,0,1,1-1h16.73c8,0,13.75,5.85,13.75,13.19a13,13,0,0,1-7.16,11.74l7.72,13.64a1,1,0,0,1-.91,1.55h-6.77a1,1,0,0,1-.91-.54l-7.44-13.5h-7.45v13a1,1,0,0,1-1,1h-6.52a1,1,0,0,1-1-1Z"/><path class="cls-1" d="M204.67,141.74v24.64H211a12.17,12.17,0,0,0,12-12.32,12,12,0,0,0-12-12.32ZM211,134c11.75,0,20.64,8.88,20.64,20.06s-8.89,20.06-20.64,20.06H197.11a1,1,0,0,1-1-1V135a1,1,0,0,1,1-1Z"/><path class="cls-1" d="M257.81,143.8,252.94,157h9.74Zm-7.74,20.63-3.19,8.77a1,1,0,0,1-1,.69H239a1,1,0,0,1-1-1.42l14.95-38a1,1,0,0,1,1-.66h7.75a1,1,0,0,1,1,.66l14.94,38a1,1,0,0,1-1,1.42h-6.92a1,1,0,0,1-1-.69l-3.19-8.77Z"/><path class="cls-1" d="M285.65,144.66c0-6.31,5.45-11.75,14.05-11.75a17.79,17.79,0,0,1,12.47,4.69,1.05,1.05,0,0,1,0,1.47l-3.87,3.86a1,1,0,0,1-1.42,0,10.05,10.05,0,0,0-6.64-2.62c-3.44,0-6,2-6,4.3,0,7.45,20.33,3.15,20.33,17.48,0,7.16-5.45,12.6-15.19,12.6a20.36,20.36,0,0,1-14.5-5.82,1.05,1.05,0,0,1,0-1.47l3.71-3.7a1,1,0,0,1,1.44,0,12.84,12.84,0,0,0,8.76,3.57c4.3,0,7.14-2.3,7.14-5.16,0-7.45-20.32-3.15-20.32-17.48"/><path class="cls-1" d="M351.45,134.81v15H334.26v-15a1,1,0,0,0-1-1H326.7a1,1,0,0,0-1,1v38a1,1,0,0,0,1,1h6.52a1,1,0,0,0,1-1v-15.3h17.19v15.3a1,1,0,0,0,1,1H359a1,1,0,0,0,1-1v-38a1,1,0,0,0-1-1h-6.52A1,1,0,0,0,351.45,134.81Z"/><path class="cls-1" d="M245.9,21.85A41.23,41.23,0,0,0,209.37,0H93.67a4,4,0,0,0-2.8,6.8l25.2,25.35a11.86,11.86,0,0,0,8.41,3.5h81.57a10.52,10.52,0,1,1,.22,21H150a4,4,0,0,0-2.81,6.8l25.21,25.35a11.86,11.86,0,0,0,8.41,3.5h25.42c33.09,0,58.11-35.37,39.63-70.48"/></g></g></svg>