<?xml version="1.0" encoding="utf-8"?>
<!-- Generator: Adobe Illustrator 24.1.2, SVG Export Plug-In . SVG Version: 6.00 Build 0)  -->
<svg version="1.1" id="Layer_1" xmlns="http://www.w3.org/2000/svg" xmlns:xlink="http://www.w3.org/1999/xlink" x="0px" y="0px"
	 viewBox="0 0 33 18.7" style="enable-background:new 0 0 33 18.7;" xml:space="preserve">
<style type="text/css">
	.st0{fill:#870F54;}
</style>
<g>
	<path class="st0" d="M19.9,13.5h-7c-0.4,0-0.8,0.4-0.8,0.8s0.4,0.8,0.8,0.8h7c0.4,0,0.8-0.4,0.8-0.8S20.3,13.5,19.9,13.5z"/>
	<path class="st0" d="M30.8,7.5L25,5.9C18.7-0.6,9.4-1.2,1.7,4.3C0.7,5.1,0,6.3,0,7.6v6.7c0,0.4,0.4,0.8,0.8,0.8h1.3
		c0.4,0,0.8-0.4,0.8-0.8c0-0.4-0.4-0.8-0.8-0.8H1.6V7.6c0-0.8,0.4-1.5,1-2c1.9-1.4,5.8-3.6,10.6-3.5l-0.3,2.4c0,0.2,0,0.4,0.2,0.6
		c0.1,0.2,0.3,0.3,0.5,0.3c0.4,0.1,0.8-0.2,0.9-0.7l0.3-2.5c2.8,0.4,5.5,1.6,7.8,3.6h-13c-0.7,0-1.4-0.3-1.9-0.9
		C7.5,4.7,7.3,4.6,7.1,4.6c-0.2,0-0.4,0-0.6,0.2C6.2,5,6.1,5.5,6.4,5.9c0.8,1,1.9,1.5,3.1,1.5h14.9l6,1.7c0.6,0.2,1,0.7,1,1.3v3
		h-0.6c-0.4,0-0.8,0.4-0.8,0.8c0,0.4,0.4,0.8,0.8,0.8h1.4c0.4,0,0.8-0.4,0.8-0.8v-3.8C33,9,32.1,7.9,30.8,7.5z"/>
	<path class="st0" d="M7.7,10.1c-2.2,0-4,1.8-4,4s1.8,4,4,4s4-1.8,4-4S9.9,10.1,7.7,10.1z M10.1,14.2c0,1.4-1.1,2.5-2.5,2.5
		c-1.4,0-2.5-1.1-2.5-2.5s1.1-2.5,2.5-2.5C9,11.7,10.1,12.8,10.1,14.2z"/>
	<path class="st0" d="M25.4,10.1c-2.2,0-4,1.8-4,4s1.8,4,4,4s4-1.8,4-4S27.6,10.1,25.4,10.1z M25.4,16.6c-1.4,0-2.5-1.1-2.5-2.5
		s1.1-2.5,2.5-2.5s2.5,1.1,2.5,2.5S26.7,16.6,25.4,16.6z"/>
</g>
</svg>
