<?xml version="1.0" encoding="utf-8"?>
<!-- Generator: Adobe Illustrator 24.0.3, SVG Export Plug-In . SVG Version: 6.00 Build 0)  -->
<svg version="1.1" id="Layer_1" xmlns="http://www.w3.org/2000/svg" xmlns:xlink="http://www.w3.org/1999/xlink" x="0px" y="0px"
	 viewBox="0 0 88 15.8" style="enable-background:new 0 0 88 15.8;" xml:space="preserve">
<style type="text/css">
	.st0{fill:#BC955C;}
</style>
<g>
	<path class="st0" d="M15.9,0.6c0,0,0.2-0.1,0.2,0.1c0,0.1-0.4,0.8-0.4,1c-0.2,0.3-0.2-0.1-0.4-0.3s-0.6-0.2-0.6,0s0,2.1,0,2.4
		c0,0.1,0,0.2,0.2,0.3s0.2,0.3,0,0.3s-0.4,0-0.6,0c-0.2,0-0.5,0-0.7,0s-0.2-0.2,0-0.3c0.1-0.1,0.2-0.2,0.2-0.3c0-0.8,0-2-0.1-2.4
		c-0.1-0.2-0.4-0.2-0.6,0c-0.2,0.1-0.4,0.4-0.5,0.4c-0.1,0.1-0.4,0.2-0.2-0.2c0.1-0.2,0.2-0.5,0.5-0.9c0.1,0,0.2-0.1,0.3,0.1
		c1.3,0,2,0,2.5,0C15.8,0.7,15.9,0.6,15.9,0.6z"/>
	<path class="st0" d="M16.1,1.1c-0.1,0.3,0.2,0.2,0.2,0.4c0,0.3,0,2.1,0,2.3S16.1,4,16.1,4.1s0,0.2,0.2,0.2s0.8,0,1,0
		s0.2-0.2-0.1-0.3c-0.1,0-0.1-0.2-0.1-0.2c0-0.4,0-1,0-1.1c0.1-0.2,0.3-0.3,0.5-0.1c0.2,0.3,0.5,0.9,0.5,1.5c0,0.4,0,0.6-0.2,0.9
		c-0.1,0.1-0.3,0.4,0.1,0.2c0.5-0.3,0.6-0.8,0.6-1.2c0.1-0.5,0-1.1-0.2-1.5S18.1,2,17.8,1.9c-0.2,0-0.4,0.2-0.7,0.3
		c0-0.7,0-1.2,0-1.4S17,0.6,16.9,0.7C16.8,0.8,16.5,0.9,16.1,1.1z"/>
	<path class="st0" d="M9.4,1.1C9.3,1.1,9,1.1,8.9,1c-0.6-0.2-1.3-0.3-2-0.3c-1.7,0-4,0.8-5.5,3.4c-0.7,1.1-0.9,2-1.1,3.3
		c-0.1,1.1,0,2.4,0.4,3.4c0.7,2,2.7,4.2,5.6,4.5c1.2,0.1,2.9-0.1,3.9-0.6c1.5-0.8,2.4-2.3,2.5-2.6c0.2-0.3-0.2-0.6-0.4-0.4
		c-0.3,0.4-1.4,1.9-3.6,2.2c-1.8,0.3-3.5-0.6-4.4-1.7c-1.2-1.5-1.4-3.4-1.4-4.1c0-3.8,1.8-6.3,4-6.3c1,0,1.7,0.3,2.4,0.8
		c1.6,1.1,1.7,2.5,2.3,2.7c0.3,0.1,0.9,0,0.9-0.4c0-0.8-0.5-1.5-1-2.7c-0.4-0.9-0.8-1.8-0.9-1.9c-0.1,0-0.4,0-0.4,0
		c-0.1,0.1-0.3,0.3-0.5,0.5C9.6,1,9.6,1.1,9.4,1.1z"/>
	<path class="st0" d="M18.8,3.3c-0.1-0.7,0.5-1.5,1.5-1.4C21,2,21.2,2.7,21.2,2.8c-0.8,0.4-1.4,0.5-1.5,0.5c0,0.1,0.2,0.5,0.5,0.6
		C20.4,4,20.7,4,21.1,3.7c0.2-0.1,0.3-0.1,0.1,0.2c0,0-0.4,0.4-1,0.4C19.3,4.4,18.9,3.9,18.8,3.3z M19.8,2.2
		c-0.3,0.1-0.4,0.7-0.2,0.8c0.3,0,0.5-0.2,0.8-0.3C20.3,2.4,20.1,2.2,19.8,2.2z"/>
	<path class="st0" d="M40.6,2.9c-0.2,0.1-0.1,0.4,0,0.5s0.5,0.1,0.5,0.4c0,3.6,0,5.2,0,5.5c0,0.4-0.6,0.4-0.6,0.6
		c0,0.2,0,0.4,0.3,0.4s1.7,0,2,0c0.2,0,0.4-0.2,0.3-0.4c0-0.2-0.3-0.3-0.4-0.3c-0.2-0.1-0.2-0.3-0.2-0.5s0-0.5,0-0.7
		s0.4-0.6,0.6-0.6c0,0,0.2,0.1,0.2,0.2c0.3,0.6,1,2.2,1.1,2.2c0.3,0,1.2,0,1.4,0c0.3,0,0.5-0.4,0.2-0.6c-0.1-0.1-0.3-0.1-0.4-0.3
		c-0.2-0.2-0.3-0.4-0.5-0.8c-0.4-0.8-0.7-1.3-0.8-1.6c-0.1-0.2-0.2-0.3-0.1-0.4c0-0.2,0.5-0.6,0.8-0.6c0.5-0.1,0.4-0.6,0-0.6
		c-0.9,0-1.3,0-1.6,0c-0.6,0-0.4,0.5-0.4,0.4c0,0.1,0.4,0.2,0.4,0.3c0,0.2-0.2,0.4-0.3,0.5S42.9,6.8,42.6,7c-0.1,0.1-0.2,0-0.2-0.1
		c0-2.2,0-4.4,0-5c0-0.4-0.4-0.2-0.5-0.1C41.9,2.2,40.8,2.8,40.6,2.9z"/>
	<path class="st0" d="M22.4,5.7c-0.4,0-0.5-0.2-1.4-0.2c-0.4,0-1.1,0.1-1.4,0.8c-0.2,0.4,0,0.8,0,1c0.3,0.8,1.4,0.9,2,1.1
		c0.8,0.3,1.1,0.4,1,0.7c0,0.3-0.4,0.6-1.6,0.4c-0.5-0.1-1-0.5-1.4-0.9c-0.1-0.1-0.4,0-0.3,0.3s0.8,1.4,0.9,1.6
		c0.1,0.1,0.3,0.2,0.4,0c0.1-0.1,0.1-0.3,0.3-0.3c0.2,0,0.6,0,1.1,0.1c0.7,0.1,1.3,0,1.7-0.3c0.4-0.3,0.6-0.8,0.5-1.3
		c-0.1-0.8-0.7-1.2-1.6-1.4C22,7.1,21.4,7,21.2,6.8c-0.2-0.2-0.3-0.4-0.1-0.6c0.2-0.3,0.8-0.2,1.1-0.1c0.4,0.1,0.7,0.3,1.2,0.6
		c0.2,0.2,0.4,0.2,0.5,0.1c0.2-0.2-0.2-0.5-0.4-0.9c-0.3-0.5-0.4-0.7-0.6-0.7C22.7,5.4,22.5,5.7,22.4,5.7z"/>
	<path class="st0" d="M32.2,5.5c-1.1,0-2.7,0.7-2.7,2.5c0,1.9,1.4,2.4,2.6,2.5c1.7-0.1,2.1-1,2.3-1.3C34.5,9,34.2,8.7,33.9,9
		c-0.5,0.7-1.3,0.8-1.7,0.7c-0.8-0.2-1-0.8-1.1-1.7c-0.1-0.8,0.2-1.9,1.1-1.8c1,0,1,1.1,1.1,1.3s0.3,0.2,0.4-0.1s0.2-0.6,0.4-0.9
		c0.2-0.3,0-0.4-0.2-0.5C33.5,5.7,33,5.5,32.2,5.5z"/>
	<path class="st0" d="M9.4,7.6c0.1-1,1-2,2.1-2.1s1.6,0.2,1.9,0.5c0.4,0.3,0.9,1.2,0.7,1.4s-2,0.7-2.7,0.9c-0.1,0.1-0.3,0.1-0.2,0.3
		c0.1,0.3,0.5,0.8,1,1c0.7,0.2,1.4-0.2,1.8-0.5c0.2-0.2,0.5,0,0.3,0.3c-0.1,0.2-0.8,0.9-2.2,1C10.1,10.5,9.2,8.9,9.4,7.6z M11.5,6.1
		c-0.3,0-0.5,0.3-0.6,0.6c-0.1,0.5,0,1.1,0.2,1.1c0.2,0.1,1.5-0.4,1.6-0.6C12.7,7.1,12.3,6,11.5,6.1z"/>
	<path class="st0" d="M37,5.5c0.4,0,1.3,0.1,1.7,1.1s0.8,2.4,1,2.7s0.5,0.4,0.6,0.3c0.2-0.1,0.2,0.1,0.2,0.2c0,0.2-0.2,0.5-0.6,0.6
		c-0.5,0.1-1.1-0.1-1.2-0.2c-0.2-0.1-0.2-0.3-0.3-0.3c-0.3,0-0.7,0.5-1.7,0.5c-1.3,0.1-2-0.8-1.9-1.4c0.1-0.7,0.5-1.1,1.1-1.4
		c0.4-0.2,1.3-0.2,1.6-0.2c0.2,0,0-0.2,0-0.3c-0.2-0.8-0.8-0.9-1.4-0.7c-0.3,0.1-0.6,0.3-0.7,0.4c-0.2,0.1-0.5-0.2-0.2-0.4
		C35.7,5.5,36.3,5.5,37,5.5z M36.6,8.1C36.3,8.2,36,8.6,36.1,9c0.1,0.5,0.4,0.8,1.2,0.7c0.8-0.2,0.4-1.1,0.3-1.3s-0.2-0.3-0.4-0.3
		C37.2,8,36.9,7.9,36.6,8.1z"/>
	<path class="st0" d="M47.3,2.1c0.2,0.7,0.8,1.1,2.2,1c0.4,0,1,0,1.5-0.1c0.6-0.1,0.9-0.2,1.1-0.1c0.1,0.1,0.2,0.4,0.2,0.9
		c0,2.1,0,7.5-0.1,8.2c0,0.4-0.4,1.1-0.8,1.8c-0.2,0.5,0.2,0.9,0.6,0.6c0.3-0.2,1.7-1.3,2.5-1.7c0.2-0.1,0.3-0.5,0.1-0.7
		s-0.4-0.5-0.4-1c0-2.7,0-3.5,0-3.9c0-0.3,0-0.4,0.2-0.4s1.7,0,1.9,0s0.5,0.3,0.8,0.5c0.2,0.1,0.6,0.1,0.5-0.3
		c-0.1-0.3-0.2-0.8-0.3-1.1C57.1,5,57,4.4,56.2,5.1c0,0-0.1,0.1-0.2,0.1s-1.7,0-1.9-0.1C54,5,54,4.1,54,3.6s-0.2-1.1,1.3-1.2
		c1-0.1,2.3-0.2,3.4-0.1c1,0.1,1.8,0.2,2.3,0.5c0.5,0.2,0.9,0.1,1.1-0.1c0.1,0,0.3-0.2,0.2-0.6c-0.1-0.3-0.1-0.8-0.4-1.1
		c-0.2-0.2-0.9-0.3-1.4-0.4c-1.4-0.2-3.8,0.1-5.8,0.4c0.6-0.1-2.7,0.6-4.1,0.5c-1.6-0.2-1.9-0.5-2-0.6c0,0-0.2-0.4-0.6-0.3
		C47.6,0.8,47.1,1.3,47.3,2.1z"/>
	<path class="st0" d="M67.9,5.9c-0.2,0.2-0.2,0.5,0.1,0.5c0,0,0.3,0,0.4,0s0.2,0,0.2,0.1c0,0,0,1,0,1.6c0,1.1-0.2,1.3-0.1,1.5
		c0.2,0.5,0.8,0.8,1.4,0.8c0.7,0,1.3-0.3,1.6-0.5c0.4-0.4,0.2-0.8-0.3-0.5c-0.2,0.2-0.5,0.4-0.8,0.3c-0.2-0.1-0.3-0.3-0.4-0.6
		c0-0.3,0-2.2,0-2.4s0-0.3,0.1-0.3s1.1,0,1.3,0c0.1,0,0.2-0.5,0.2-0.6s0-0.2-0.1-0.2s-1.1,0-1.4-0.1c-0.1-0.7,0-1.4,0-1.6
		c0-0.2-0.2-0.3-0.4-0.1C69.4,4.1,68.9,4.9,67.9,5.9z"/>
	<path class="st0" d="M81.4,5.6c-0.2,0-0.3,0.5,0,0.6c0.4,0.2,0.5,0.4,0.5,0.5c0.2,0.5,1.2,2.8,1.5,3.3v0.1
		c-1.3,1.7-2.1,2.4-2.9,2.7c-0.5,0.2-0.9,0.2-1.2,0c-0.4-0.2-0.5-0.8-0.4-0.9c0.2-0.3-0.3-0.5-0.8-0.4s-0.9,0.6-0.6,1.3
		c0.3,0.8,1.4,1.2,2.7,0.9c1.1-0.3,2.3-0.9,3.5-2.2c0.8-0.9,1.3-1.6,1.7-2.5c0.6-1,1-2.3,1-2.4c0.1-0.2,0.3-0.5,0.5-0.5
		C87,6,87.1,5.6,86.8,5.6c-0.3,0-1.9-0.1-2.1,0S84.6,6,84.8,6.1c0.1,0.1,0.3,0.1,0.3,0.2c0.1,0.1,0,0.4-0.1,0.6
		c-0.3,0.8-0.7,1.6-0.8,1.6s-0.3-0.5-0.5-1s-0.4-1-0.4-1.1c0-0.2,0.1-0.4,0.3-0.4c0.2,0,0.2-0.5-0.1-0.5c-0.2,0-0.6,0-0.9,0
		C82.2,5.7,81.6,5.6,81.4,5.6z"/>
	<path class="st0" d="M78.9,6.5c-0.1,0.1-0.2,0.1-0.2,0s0-0.4,0-0.6c0-0.5-0.5-0.2-1,0.1c-0.4,0.2-0.9,0.5-1,0.6S76.6,6.9,76.8,7
		c0.1,0.1,0.3,0,0.4,0.1s0.1,0.2,0.1,0.5c0,0.5,0,1.7,0,1.9s-0.4,0.2-0.6,0.4s-0.1,0.5,0.2,0.5c0.3,0,1.8,0,2,0
		c0.4,0,0.4-0.4,0.2-0.5c-0.3-0.2-0.5-0.2-0.5-0.5c-0.1-0.7-0.1-1.4,0-1.8c0-0.2,0.2-0.5,0.5-0.6c0.2-0.1,0.4-0.1,0.7,0.2
		c0,0,0.1,0.2,0.2,0.3s0.4,0,0.4-0.2c0.1-0.2,0.2-0.8,0.4-1.1c0.1-0.3,0.1-0.6-0.7-0.5C79.4,5.7,79.1,6.3,78.9,6.5z"/>
	<path class="st0" d="M73.8,5.5c1.1-0.1,2,0.4,2.5,1.1c1,1.2,1,3.1-0.8,3.7c-2.1,0.6-4-0.2-4-2.2C71.5,6.7,72.3,5.6,73.8,5.5z
		 M75.1,7.3c-0.3-0.7-0.9-1.4-1.6-1.2c-0.6,0.2-0.9,1-0.3,2.3c0.3,0.9,1,1.7,1.9,1.3C75.5,9.4,75.6,8.5,75.1,7.3z"/>
	<path class="st0" d="M7.5,5.6c-0.3,0-0.8,0.1-1.1,0.5c-0.1,0.1-0.2,0.1-0.2,0s0-2.7,0-2.8S6,3.1,5.9,3.2s-1.4,0.9-1.6,1
		c-0.1,0.1-0.1,0.3,0,0.4c0.2,0.1,0.5,0.2,0.5,0.3c0-0.2,0,3.5,0,4.4c0,0.4-0.4,0.5-0.5,0.6s0,0.5,0.2,0.5s1.8,0,2,0
		s0.4-0.2,0.3-0.5C6.7,9.7,6.4,9.7,6.3,9.4C6.2,9,6.2,7.6,6.3,7.1c0-0.2,0.1-0.3,0.3-0.5c0.2-0.1,0.3-0.1,0.5,0
		c0.2,0.2,0.3,0.5,0.4,0.6C7.7,7.7,8,8.7,8,9.6c0,2.4-1.1,3-1.3,3.2c-0.2,0.2,0,0.4,0.2,0.3c0.5-0.2,0.9-0.5,1.2-0.8
		c0.2-0.2,0.8-0.8,1.1-1.8s0.2-1.7,0.2-2.1C9.3,7.4,8.6,5.6,7.5,5.6z"/>
	<path class="st0" d="M24.5,7.6c0.1-1,1-2,2.1-2.1s1.6,0.2,1.9,0.5c0.4,0.3,0.9,1.2,0.7,1.4c-0.2,0.2-2,0.7-2.7,0.9
		c-0.1,0.1-0.3,0.1-0.2,0.3c0.1,0.3,0.5,0.8,1,1c0.7,0.2,1.4-0.2,1.8-0.5c0.2-0.2,0.5,0,0.3,0.3c-0.1,0.2-0.8,0.9-2.2,1
		C25.2,10.5,24.3,9,24.5,7.6z M26.5,6.2c-0.3,0-0.5,0.3-0.6,0.6c-0.1,0.5,0,1.1,0.2,1.1c0.2,0.1,1.5-0.4,1.6-0.6
		C27.8,7.2,27.4,6,26.5,6.2z"/>
	<path class="st0" d="M45.7,7.6c0.1-1,1-2,2.1-2.1s1.6,0.2,1.9,0.5c0.4,0.3,0.9,1.2,0.7,1.4s-2,0.7-2.7,0.9
		c-0.1,0.1-0.3,0.1-0.2,0.3c0.1,0.3,0.5,0.8,1,1c0.7,0.2,1.4-0.2,1.8-0.5c0.2-0.2,0.6-0.1,0.4,0.3c-0.1,0.2-0.9,1-2.3,1
		C46.4,10.5,45.5,9,45.7,7.6z M47.7,6.2c-0.3,0-0.5,0.3-0.6,0.6c-0.1,0.5,0,1.1,0.2,1.1c0.2,0.1,1.5-0.4,1.6-0.6
		C48.9,7.2,48.6,6,47.7,6.2z"/>
	<path class="st0" d="M59.7,5.5c0.4,0,1.3,0.1,1.7,1.1s0.8,2.4,1,2.7s0.5,0.4,0.6,0.3c0.2-0.1,0.2,0.1,0.2,0.2
		c0,0.2-0.2,0.5-0.6,0.6c-0.5,0.1-1.1,0-1.2-0.2c-0.1-0.2-0.2-0.3-0.3-0.3c-0.3,0-0.7,0.5-1.7,0.5c-1.3,0.1-2-0.8-1.9-1.4
		c0.1-0.7,0.5-1.1,1.1-1.4c0.4-0.2,1.3-0.2,1.6-0.2c0.2,0,0-0.2,0-0.3c-0.2-0.8-0.8-0.9-1.4-0.7c-0.3,0.1-0.6,0.3-0.7,0.4
		c-0.2,0.1-0.5-0.2-0.2-0.4C58.5,5.5,59.1,5.5,59.7,5.5z M59.3,8.1C59,8.2,58.7,8.6,58.8,9c0.1,0.5,0.4,0.8,1.2,0.7
		c0.8-0.2,0.4-1.1,0.3-1.3c-0.1-0.2-0.2-0.3-0.4-0.3C59.9,8,59.6,7.9,59.3,8.1z"/>
	<path class="st0" d="M65.6,5.5c-1.1,0-2.7,0.7-2.7,2.5c0,1.9,1.4,2.4,2.6,2.5c1.7-0.1,2.1-1,2.3-1.3C67.9,9,67.6,8.7,67.3,9
		c-0.5,0.7-1.3,0.8-1.7,0.7c-0.8-0.2-1-0.8-1.1-1.7c-0.1-0.8,0.2-1.9,1.1-1.8c1,0,1,1.1,1.1,1.3s0.3,0.2,0.4-0.1s0.2-0.6,0.4-0.9
		c0.2-0.3,0-0.4-0.2-0.5C66.9,5.7,66.4,5.5,65.6,5.5z"/>
	<path class="st0" d="M14.4,7.6c0.1-1,1-2,2.1-2.1s1.6,0.2,1.9,0.5c0.4,0.3,0.9,1.2,0.7,1.4c-0.2,0.2-2,0.7-2.7,0.9
		c-0.1,0.1-0.3,0.1-0.2,0.3c0.1,0.3,0.5,0.8,1,1c0.7,0.2,1.4-0.2,1.8-0.5c0.2-0.2,0.5,0,0.3,0.3c-0.1,0.2-0.8,0.9-2.2,1
		C15.1,10.5,14.2,9,14.4,7.6z M16.5,6.2c-0.3,0-0.5,0.3-0.6,0.6c-0.1,0.5,0,1.1,0.2,1.1c0.2,0.1,1.5-0.4,1.6-0.6
		C17.7,7.2,17.3,6,16.5,6.2z"/>
	<path class="st0" d="M85.9,9.4c0-0.5,0.4-0.9,0.9-0.9s0.9,0.4,0.9,0.9s-0.4,0.9-0.9,0.9S85.9,9.9,85.9,9.4z M86.9,10.2
		c0.4,0,0.8-0.3,0.8-0.8c0-0.4-0.3-0.8-0.8-0.8c-0.4,0-0.8,0.3-0.8,0.8C86.1,9.8,86.4,10.2,86.9,10.2z"/>
	<path class="st0" d="M86.6,9.9h-0.2v-1h0.4c0.2,0,0.4,0.1,0.4,0.3s-0.1,0.3-0.3,0.3l0.3,0.5H87l-0.3-0.5h-0.2L86.6,9.9L86.6,9.9z
		 M86.8,9.3c0.2,0,0.3,0,0.3-0.2c0-0.1-0.1-0.2-0.2-0.2h-0.2v0.3h0.1C86.8,9.2,86.8,9.3,86.8,9.3z"/>
</g>
</svg>
