<?xml version="1.0" encoding="utf-8"?>
<!-- Generator: Adobe Illustrator 24.1.2, SVG Export Plug-In . SVG Version: 6.00 Build 0)  -->
<svg version="1.1" id="Layer_1" xmlns="http://www.w3.org/2000/svg" xmlns:xlink="http://www.w3.org/1999/xlink" x="0px" y="0px"
	 viewBox="0 0 33 18.7" style="enable-background:new 0 0 33 18.7;" xml:space="preserve">
<style type="text/css">
	.st0{fill:#870F54;}
</style>
<path id="Path_26" class="st0" d="M31.8,4.5C30.3,1.7,27.4,0,24.3,0H0.8C0.4,0,0,0.4,0,0.8c0,0,0,0,0,0C0,1,0.1,1.2,0.2,1.4l5.1,5.1
	C5.8,7,6.4,7.3,7.1,7.3h16.6c1.2,0,2.2,0.9,2.2,2.1s-0.9,2.2-2.1,2.2H12.3c-0.4,0-0.8,0.4-0.8,0.8c0,0.2,0.1,0.4,0.2,0.5l5.1,5.1
	c0.4,0.4,1,0.7,1.7,0.7h5.2C30.4,18.7,35.5,11.6,31.8,4.5"/>
</svg>
