<?xml version="1.0" encoding="utf-8"?>
<!-- Generator: Adobe Illustrator 18.0.0, SVG Export Plug-In . SVG Version: 6.00 Build 0)  -->
<!DOCTYPE svg PUBLIC "-//W3C//DTD SVG 1.1//EN" "http://www.w3.org/Graphics/SVG/1.1/DTD/svg11.dtd">
<svg version="1.1" id="Layer_1" xmlns="http://www.w3.org/2000/svg" xmlns:xlink="http://www.w3.org/1999/xlink" x="0px" y="0px"
	 viewBox="0 38.7 88 15.8" enable-background="new 0 38.7 88 15.8" xml:space="preserve">
<g>
	<path fill="#E6D4B7" d="M15.9,39.3c0,0,0.2-0.1,0.2,0.1c0,0.1-0.4,0.8-0.4,1c-0.2,0.3-0.2-0.1-0.4-0.3s-0.6-0.2-0.6,0s0,2.1,0,2.4
		c0,0.1,0,0.2,0.2,0.3s0.2,0.3,0,0.3s-0.4,0-0.6,0c-0.2,0-0.5,0-0.7,0s-0.2-0.2,0-0.3c0.1-0.1,0.2-0.2,0.2-0.3c0-0.8,0-2-0.1-2.4
		c-0.1-0.2-0.4-0.2-0.6,0c-0.2,0.1-0.4,0.4-0.5,0.4c-0.1,0.1-0.4,0.2-0.2-0.2c0.1-0.2,0.2-0.5,0.5-0.9c0.1,0,0.2-0.1,0.3,0.1
		c1.3,0,2,0,2.5,0C15.8,39.4,15.9,39.3,15.9,39.3z"/>
	<path fill="#E6D4B7" d="M16.1,39.8c-0.1,0.3,0.2,0.2,0.2,0.4c0,0.3,0,2.1,0,2.3s-0.2,0.2-0.2,0.3s0,0.2,0.2,0.2s0.8,0,1,0
		s0.2-0.2-0.1-0.3c-0.1,0-0.1-0.2-0.1-0.2c0-0.4,0-1,0-1.1c0.1-0.2,0.3-0.3,0.5-0.1c0.2,0.3,0.5,0.9,0.5,1.5c0,0.4,0,0.6-0.2,0.9
		c-0.1,0.1-0.3,0.4,0.1,0.2c0.5-0.3,0.6-0.8,0.6-1.2c0.1-0.5,0-1.1-0.2-1.5s-0.3-0.5-0.6-0.6c-0.2,0-0.4,0.2-0.7,0.3
		c0-0.7,0-1.2,0-1.4s-0.1-0.2-0.2-0.1C16.8,39.5,16.5,39.6,16.1,39.8z"/>
	<path fill="#E6D4B7" d="M9.4,39.8c-0.1,0-0.4,0-0.5-0.1c-0.6-0.2-1.3-0.3-2-0.3c-1.7,0-4,0.8-5.5,3.4c-0.7,1.1-0.9,2-1.1,3.3
		c-0.1,1.1,0,2.4,0.4,3.4c0.7,2,2.7,4.2,5.6,4.5c1.2,0.1,2.9-0.1,3.9-0.6c1.5-0.8,2.4-2.3,2.5-2.6c0.2-0.3-0.2-0.6-0.4-0.4
		c-0.3,0.4-1.4,1.9-3.6,2.2c-1.8,0.3-3.5-0.6-4.4-1.7c-1.2-1.5-1.4-3.4-1.4-4.1c0-3.8,1.8-6.3,4-6.3c1,0,1.7,0.3,2.4,0.8
		c1.6,1.1,1.7,2.5,2.3,2.7c0.3,0.1,0.9,0,0.9-0.4c0-0.8-0.5-1.5-1-2.7c-0.4-0.9-0.8-1.8-0.9-1.9c-0.1,0-0.4,0-0.4,0
		c-0.1,0.1-0.3,0.3-0.5,0.5C9.6,39.7,9.6,39.8,9.4,39.8z"/>
	<path fill="#E6D4B7" d="M18.8,42c-0.1-0.7,0.5-1.5,1.5-1.4c0.7,0.1,0.9,0.8,0.9,0.9c-0.8,0.4-1.4,0.5-1.5,0.5
		c0,0.1,0.2,0.5,0.5,0.6c0.2,0.1,0.5,0.1,0.9-0.2c0.2-0.1,0.3-0.1,0.1,0.2c0,0-0.4,0.4-1,0.4C19.3,43.1,18.9,42.6,18.8,42z
		 M19.8,40.9c-0.3,0.1-0.4,0.7-0.2,0.8c0.3,0,0.5-0.2,0.8-0.3C20.3,41.1,20.1,40.9,19.8,40.9z"/>
	<path fill="#E6D4B7" d="M40.6,41.6c-0.2,0.1-0.1,0.4,0,0.5s0.5,0.1,0.5,0.4c0,3.6,0,5.2,0,5.5c0,0.4-0.6,0.4-0.6,0.6
		c0,0.2,0,0.4,0.3,0.4s1.7,0,2,0c0.2,0,0.4-0.2,0.3-0.4c0-0.2-0.3-0.3-0.4-0.3c-0.2-0.1-0.2-0.3-0.2-0.5s0-0.5,0-0.7
		s0.4-0.6,0.6-0.6c0,0,0.2,0.1,0.2,0.2c0.3,0.6,1,2.2,1.1,2.2c0.3,0,1.2,0,1.4,0c0.3,0,0.5-0.4,0.2-0.6c-0.1-0.1-0.3-0.1-0.4-0.3
		c-0.2-0.2-0.3-0.4-0.5-0.8c-0.4-0.8-0.7-1.3-0.8-1.6c-0.1-0.2-0.2-0.3-0.1-0.4c0-0.2,0.5-0.6,0.8-0.6c0.5-0.1,0.4-0.6,0-0.6
		c-0.9,0-1.3,0-1.6,0c-0.6,0-0.4,0.5-0.4,0.4c0,0.1,0.4,0.2,0.4,0.3c0,0.2-0.2,0.4-0.3,0.5s-0.2,0.3-0.5,0.5c-0.1,0.1-0.2,0-0.2-0.1
		c0-2.2,0-4.4,0-5c0-0.4-0.4-0.2-0.5-0.1C41.9,40.9,40.8,41.5,40.6,41.6z"/>
	<path fill="#E6D4B7" d="M22.4,44.4c-0.4,0-0.5-0.2-1.4-0.2c-0.4,0-1.1,0.1-1.4,0.8c-0.2,0.4,0,0.8,0,1c0.3,0.8,1.4,0.9,2,1.1
		c0.8,0.3,1.1,0.4,1,0.7c0,0.3-0.4,0.6-1.6,0.4c-0.5-0.1-1-0.5-1.4-0.9c-0.1-0.1-0.4,0-0.3,0.3s0.8,1.4,0.9,1.6
		c0.1,0.1,0.3,0.2,0.4,0c0.1-0.1,0.1-0.3,0.3-0.3c0.2,0,0.6,0,1.1,0.1c0.7,0.1,1.3,0,1.7-0.3c0.4-0.3,0.6-0.8,0.5-1.3
		c-0.1-0.8-0.7-1.2-1.6-1.4c-0.6-0.2-1.2-0.3-1.4-0.5c-0.2-0.2-0.3-0.4-0.1-0.6c0.2-0.3,0.8-0.2,1.1-0.1c0.4,0.1,0.7,0.3,1.2,0.6
		c0.2,0.2,0.4,0.2,0.5,0.1c0.2-0.2-0.2-0.5-0.4-0.9c-0.3-0.5-0.4-0.7-0.6-0.7C22.7,44.1,22.5,44.4,22.4,44.4z"/>
	<path fill="#E6D4B7" d="M32.2,44.2c-1.1,0-2.7,0.7-2.7,2.5c0,1.9,1.4,2.4,2.6,2.5c1.7-0.1,2.1-1,2.3-1.3c0.1-0.2-0.2-0.5-0.5-0.2
		c-0.5,0.7-1.3,0.8-1.7,0.7c-0.8-0.2-1-0.8-1.1-1.7c-0.1-0.8,0.2-1.9,1.1-1.8c1,0,1,1.1,1.1,1.3s0.3,0.2,0.4-0.1s0.2-0.6,0.4-0.9
		c0.2-0.3,0-0.4-0.2-0.5C33.5,44.4,33,44.2,32.2,44.2z"/>
	<path fill="#E6D4B7" d="M9.4,46.3c0.1-1,1-2,2.1-2.1s1.6,0.2,1.9,0.5c0.4,0.3,0.9,1.2,0.7,1.4s-2,0.7-2.7,0.9
		c-0.1,0.1-0.3,0.1-0.2,0.3c0.1,0.3,0.5,0.8,1,1c0.7,0.2,1.4-0.2,1.8-0.5c0.2-0.2,0.5,0,0.3,0.3c-0.1,0.2-0.8,0.9-2.2,1
		C10.1,49.2,9.2,47.6,9.4,46.3z M11.5,44.8c-0.3,0-0.5,0.3-0.6,0.6c-0.1,0.5,0,1.1,0.2,1.1c0.2,0.1,1.5-0.4,1.6-0.6
		C12.7,45.8,12.3,44.7,11.5,44.8z"/>
	<path fill="#E6D4B7" d="M37,44.2c0.4,0,1.3,0.1,1.7,1.1s0.8,2.4,1,2.7s0.5,0.4,0.6,0.3c0.2-0.1,0.2,0.1,0.2,0.2
		c0,0.2-0.2,0.5-0.6,0.6c-0.5,0.1-1.1-0.1-1.2-0.2c-0.2-0.1-0.2-0.3-0.3-0.3c-0.3,0-0.7,0.5-1.7,0.5c-1.3,0.1-2-0.8-1.9-1.4
		c0.1-0.7,0.5-1.1,1.1-1.4c0.4-0.2,1.3-0.2,1.6-0.2c0.2,0,0-0.2,0-0.3c-0.2-0.8-0.8-0.9-1.4-0.7c-0.3,0.1-0.6,0.3-0.7,0.4
		c-0.2,0.1-0.5-0.2-0.2-0.4C35.7,44.2,36.3,44.2,37,44.2z M36.6,46.8c-0.3,0.1-0.6,0.5-0.5,0.9c0.1,0.5,0.4,0.8,1.2,0.7
		c0.8-0.2,0.4-1.1,0.3-1.3s-0.2-0.3-0.4-0.3C37.2,46.7,36.9,46.6,36.6,46.8z"/>
	<path fill="#E6D4B7" d="M47.3,40.8c0.2,0.7,0.8,1.1,2.2,1c0.4,0,1,0,1.5-0.1c0.6-0.1,0.9-0.2,1.1-0.1c0.1,0.1,0.2,0.4,0.2,0.9
		c0,2.1,0,7.5-0.1,8.2c0,0.4-0.4,1.1-0.8,1.8c-0.2,0.5,0.2,0.9,0.6,0.6c0.3-0.2,1.7-1.3,2.5-1.7c0.2-0.1,0.3-0.5,0.1-0.7
		s-0.4-0.5-0.4-1c0-2.7,0-3.5,0-3.9c0-0.3,0-0.4,0.2-0.4s1.7,0,1.9,0s0.5,0.3,0.8,0.5c0.2,0.1,0.6,0.1,0.5-0.3
		c-0.1-0.3-0.2-0.8-0.3-1.1c-0.2-0.8-0.3-1.4-1.1-0.7c0,0-0.1,0.1-0.2,0.1s-1.7,0-1.9-0.1c-0.1-0.1-0.1-1-0.1-1.5s-0.2-1.1,1.3-1.2
		c1-0.1,2.3-0.2,3.4-0.1c1,0.1,1.8,0.2,2.3,0.5c0.5,0.2,0.9,0.1,1.1-0.1c0.1,0,0.3-0.2,0.2-0.6c-0.1-0.3-0.1-0.8-0.4-1.1
		c-0.2-0.2-0.9-0.3-1.4-0.4c-1.4-0.2-3.8,0.1-5.8,0.4c0.6-0.1-2.7,0.6-4.1,0.5c-1.6-0.2-1.9-0.5-2-0.6c0,0-0.2-0.4-0.6-0.3
		C47.6,39.5,47.1,40,47.3,40.8z"/>
	<path fill="#E6D4B7" d="M67.9,44.6c-0.2,0.2-0.2,0.5,0.1,0.5c0,0,0.3,0,0.4,0s0.2,0,0.2,0.1c0,0,0,1,0,1.6c0,1.1-0.2,1.3-0.1,1.5
		c0.2,0.5,0.8,0.8,1.4,0.8c0.7,0,1.3-0.3,1.6-0.5c0.4-0.4,0.2-0.8-0.3-0.5c-0.2,0.2-0.5,0.4-0.8,0.3c-0.2-0.1-0.3-0.3-0.4-0.6
		c0-0.3,0-2.2,0-2.4s0-0.3,0.1-0.3s1.1,0,1.3,0c0.1,0,0.2-0.5,0.2-0.6s0-0.2-0.1-0.2s-1.1,0-1.4-0.1c-0.1-0.7,0-1.4,0-1.6
		c0-0.2-0.2-0.3-0.4-0.1C69.4,42.8,68.9,43.6,67.9,44.6z"/>
	<path fill="#E6D4B7" d="M81.4,44.3c-0.2,0-0.3,0.5,0,0.6c0.4,0.2,0.5,0.4,0.5,0.5c0.2,0.5,1.2,2.8,1.5,3.3v0.1
		c-1.3,1.7-2.1,2.4-2.9,2.7c-0.5,0.2-0.9,0.2-1.2,0c-0.4-0.2-0.5-0.8-0.4-0.9c0.2-0.3-0.3-0.5-0.8-0.4s-0.9,0.6-0.6,1.3
		c0.3,0.8,1.4,1.2,2.7,0.9c1.1-0.3,2.3-0.9,3.5-2.2c0.8-0.9,1.3-1.6,1.7-2.5c0.6-1,1-2.3,1-2.4c0.1-0.2,0.3-0.5,0.5-0.5
		c0.1-0.1,0.2-0.5-0.1-0.5c-0.3,0-1.9-0.1-2.1,0s-0.1,0.4,0.1,0.5c0.1,0.1,0.3,0.1,0.3,0.2c0.1,0.1,0,0.4-0.1,0.6
		c-0.3,0.8-0.7,1.6-0.8,1.6s-0.3-0.5-0.5-1s-0.4-1-0.4-1.1c0-0.2,0.1-0.4,0.3-0.4c0.2,0,0.2-0.5-0.1-0.5c-0.2,0-0.6,0-0.9,0
		C82.2,44.4,81.6,44.3,81.4,44.3z"/>
	<path fill="#E6D4B7" d="M78.9,45.2c-0.1,0.1-0.2,0.1-0.2,0s0-0.4,0-0.6c0-0.5-0.5-0.2-1,0.1c-0.4,0.2-0.9,0.5-1,0.6
		s-0.1,0.3,0.1,0.4c0.1,0.1,0.3,0,0.4,0.1s0.1,0.2,0.1,0.5c0,0.5,0,1.7,0,1.9s-0.4,0.2-0.6,0.4s-0.1,0.5,0.2,0.5c0.3,0,1.8,0,2,0
		c0.4,0,0.4-0.4,0.2-0.5c-0.3-0.2-0.5-0.2-0.5-0.5c-0.1-0.7-0.1-1.4,0-1.8c0-0.2,0.2-0.5,0.5-0.6c0.2-0.1,0.4-0.1,0.7,0.2
		c0,0,0.1,0.2,0.2,0.3s0.4,0,0.4-0.2c0.1-0.2,0.2-0.8,0.4-1.1c0.1-0.3,0.1-0.6-0.7-0.5C79.4,44.4,79.1,45,78.9,45.2z"/>
	<path fill="#E6D4B7" d="M73.8,44.2c1.1-0.1,2,0.4,2.5,1.1c1,1.2,1,3.1-0.8,3.7c-2.1,0.6-4-0.2-4-2.2C71.5,45.4,72.3,44.3,73.8,44.2
		z M75.1,46c-0.3-0.7-0.9-1.4-1.6-1.2c-0.6,0.2-0.9,1-0.3,2.3c0.3,0.9,1,1.7,1.9,1.3C75.5,48.1,75.6,47.2,75.1,46z"/>
	<path fill="#E6D4B7" d="M7.5,44.3c-0.3,0-0.8,0.1-1.1,0.5c-0.1,0.1-0.2,0.1-0.2,0s0-2.7,0-2.8S6,41.8,5.9,41.9s-1.4,0.9-1.6,1
		c-0.1,0.1-0.1,0.3,0,0.4c0.2,0.1,0.5,0.2,0.5,0.3c0-0.2,0,3.5,0,4.4c0,0.4-0.4,0.5-0.5,0.6s0,0.5,0.2,0.5s1.8,0,2,0
		s0.4-0.2,0.3-0.5c-0.1-0.2-0.4-0.2-0.5-0.5c-0.1-0.4-0.1-1.8,0-2.3c0-0.2,0.1-0.3,0.3-0.5c0.2-0.1,0.3-0.1,0.5,0
		c0.2,0.2,0.3,0.5,0.4,0.6C7.7,46.4,8,47.4,8,48.3c0,2.4-1.1,3-1.3,3.2c-0.2,0.2,0,0.4,0.2,0.3c0.5-0.2,0.9-0.5,1.2-0.8
		c0.2-0.2,0.8-0.8,1.1-1.8s0.2-1.7,0.2-2.1C9.3,46.1,8.6,44.3,7.5,44.3z"/>
	<path fill="#E6D4B7" d="M24.5,46.3c0.1-1,1-2,2.1-2.1s1.6,0.2,1.9,0.5c0.4,0.3,0.9,1.2,0.7,1.4c-0.2,0.2-2,0.7-2.7,0.9
		c-0.1,0.1-0.3,0.1-0.2,0.3c0.1,0.3,0.5,0.8,1,1c0.7,0.2,1.4-0.2,1.8-0.5c0.2-0.2,0.5,0,0.3,0.3c-0.1,0.2-0.8,0.9-2.2,1
		C25.2,49.2,24.3,47.7,24.5,46.3z M26.5,44.9c-0.3,0-0.5,0.3-0.6,0.6c-0.1,0.5,0,1.1,0.2,1.1c0.2,0.1,1.5-0.4,1.6-0.6
		C27.8,45.9,27.4,44.7,26.5,44.9z"/>
	<path fill="#E6D4B7" d="M45.7,46.3c0.1-1,1-2,2.1-2.1s1.6,0.2,1.9,0.5c0.4,0.3,0.9,1.2,0.7,1.4s-2,0.7-2.7,0.9
		c-0.1,0.1-0.3,0.1-0.2,0.3c0.1,0.3,0.5,0.8,1,1c0.7,0.2,1.4-0.2,1.8-0.5c0.2-0.2,0.6-0.1,0.4,0.3c-0.1,0.2-0.9,1-2.3,1
		C46.4,49.2,45.5,47.7,45.7,46.3z M47.7,44.9c-0.3,0-0.5,0.3-0.6,0.6c-0.1,0.5,0,1.1,0.2,1.1c0.2,0.1,1.5-0.4,1.6-0.6
		C48.9,45.9,48.6,44.7,47.7,44.9z"/>
	<path fill="#E6D4B7" d="M59.7,44.2c0.4,0,1.3,0.1,1.7,1.1s0.8,2.4,1,2.7s0.5,0.4,0.6,0.3c0.2-0.1,0.2,0.1,0.2,0.2
		c0,0.2-0.2,0.5-0.6,0.6c-0.5,0.1-1.1,0-1.2-0.2c-0.1-0.2-0.2-0.3-0.3-0.3c-0.3,0-0.7,0.5-1.7,0.5c-1.3,0.1-2-0.8-1.9-1.4
		c0.1-0.7,0.5-1.1,1.1-1.4c0.4-0.2,1.3-0.2,1.6-0.2c0.2,0,0-0.2,0-0.3c-0.2-0.8-0.8-0.9-1.4-0.7c-0.3,0.1-0.6,0.3-0.7,0.4
		c-0.2,0.1-0.5-0.2-0.2-0.4C58.5,44.2,59.1,44.2,59.7,44.2z M59.3,46.8c-0.3,0.1-0.6,0.5-0.5,0.9c0.1,0.5,0.4,0.8,1.2,0.7
		c0.8-0.2,0.4-1.1,0.3-1.3c-0.1-0.2-0.2-0.3-0.4-0.3C59.9,46.7,59.6,46.6,59.3,46.8z"/>
	<path fill="#E6D4B7" d="M65.6,44.2c-1.1,0-2.7,0.7-2.7,2.5c0,1.9,1.4,2.4,2.6,2.5c1.7-0.1,2.1-1,2.3-1.3c0.1-0.2-0.2-0.5-0.5-0.2
		c-0.5,0.7-1.3,0.8-1.7,0.7c-0.8-0.2-1-0.8-1.1-1.7c-0.1-0.8,0.2-1.9,1.1-1.8c1,0,1,1.1,1.1,1.3s0.3,0.2,0.4-0.1s0.2-0.6,0.4-0.9
		c0.2-0.3,0-0.4-0.2-0.5C66.9,44.4,66.4,44.2,65.6,44.2z"/>
	<path fill="#E6D4B7" d="M14.4,46.3c0.1-1,1-2,2.1-2.1s1.6,0.2,1.9,0.5c0.4,0.3,0.9,1.2,0.7,1.4c-0.2,0.2-2,0.7-2.7,0.9
		c-0.1,0.1-0.3,0.1-0.2,0.3c0.1,0.3,0.5,0.8,1,1c0.7,0.2,1.4-0.2,1.8-0.5c0.2-0.2,0.5,0,0.3,0.3c-0.1,0.2-0.8,0.9-2.2,1
		C15.1,49.2,14.2,47.7,14.4,46.3z M16.5,44.9c-0.3,0-0.5,0.3-0.6,0.6c-0.1,0.5,0,1.1,0.2,1.1c0.2,0.1,1.5-0.4,1.6-0.6
		C17.7,45.9,17.3,44.7,16.5,44.9z"/>
	<path fill="#E6D4B7" d="M85.9,48.1c0-0.5,0.4-0.9,0.9-0.9s0.9,0.4,0.9,0.9S87.3,49,86.8,49S85.9,48.6,85.9,48.1z M86.9,48.9
		c0.4,0,0.8-0.3,0.8-0.8c0-0.4-0.3-0.8-0.8-0.8c-0.4,0-0.8,0.3-0.8,0.8C86.1,48.5,86.4,48.9,86.9,48.9z"/>
	<path fill="#E6D4B7" d="M86.6,48.6h-0.2v-1h0.4c0.2,0,0.4,0.1,0.4,0.3s-0.1,0.3-0.3,0.3l0.3,0.5H87l-0.3-0.5h-0.2L86.6,48.6
		L86.6,48.6z M86.8,48c0.2,0,0.3,0,0.3-0.2c0-0.1-0.1-0.2-0.2-0.2h-0.2v0.3h0.1V48z"/>
</g>
</svg>
