<?xml version="1.0" standalone="no"?>
<!DOCTYPE svg PUBLIC "-//W3C//DTD SVG 1.1//EN" "http://www.w3.org/Graphics/SVG/1.1/DTD/svg11.dtd" >
<svg xmlns="http://www.w3.org/2000/svg" xmlns:xlink="http://www.w3.org/1999/xlink" version="1.1">
<metadata>
Created by FontForge 20190801 at Tue May  5 20:01:52 2015
 By Unknown
</metadata>
<defs>
<font id="icomoon" horiz-adv-x="1024" >
  <font-face 
    font-family="icomoon"
    font-weight="400"
    font-stretch="normal"
    units-per-em="1024"
    panose-1="0 0 0 0 0 0 0 0 0 0"
    ascent="960"
    descent="-64"
    bbox="2 -62 1153 958"
    underline-thickness="0"
    underline-position="0"
    unicode-range="U+0001-FFFD"
  />
<missing-glyph horiz-adv-x="0" 
 />
    <glyph glyph-name=".notdef" unicode="&#xfffd;" horiz-adv-x="0" 
 />
    <glyph glyph-name="glyph1" horiz-adv-x="0" 
d="M0 0v0v0v0z" />
    <glyph glyph-name="glyph1" horiz-adv-x="0" 
d="M0 0v0v0v0z" />
    <glyph glyph-name="uni0001" horiz-adv-x="0" 
d="M0 0v0v0v0z" />
    <glyph glyph-name="space" unicode=" " horiz-adv-x="512" 
d="M0 0v0v0v0z" />
    <glyph glyph-name="uniE600" unicode="&#xe600;" 
d="M168 827h41q0 49 40.5 88t94.5 39h63h138.5h139h65.5l235 -254v-502q0 -49 -40.5 -88t-94.5 -39h-35q0 -49 -40.5 -88t-94.5 -39h-508q-54 0 -94.5 39t-40.5 88v631q0 48 38.5 86.5t92.5 38.5v0zM342 69q-54 0 -94.5 39t-40.5 88v567l-37 -2q-26 0 -45 -19t-19 -42v-631
q0 -24 21 -43.5t47 -19.5h508q26 0 47 19.5t21 43.5h-408v0zM750 888v0v-70v-24q0 -24 20 -59t47 -35h103l-170 188v0zM918 638h-76.5h-26.5q-54 0 -94.5 38t-40.5 87v37v90h-338q-26 0 -47 -19.5t-21 -43.5v-633q0 -25 21 -44t47 -19h508q26 0 47 19t21 44v444v0zM750 290
h-306q-13 0 -23.5 9.5t-10.5 21.5q0 14 9.5 22.5t24.5 8.5h306q13 0 23.5 -9.5t10.5 -21.5q-1 -12 -11 -21.5t-23 -9.5v0zM750 448h-306q-13 0 -23.5 9t-10.5 22q0 14 9.5 22t24.5 8h306q13 0 23.5 -9t10.5 -21q-1 -13 -11 -22t-23 -9v0z" />
    <glyph glyph-name="uniE601" unicode="&#xe601;" 
d="M997 692q-12 10 -29.5 10t-29.5 -10l-426 -410l-426 410q-12 10 -29.5 10t-29.5 -10q-13 -11 -13 -26t13 -25l454 -439q6 -6 14.5 -8t16.5 -2q9 0 17 2t14 8l454 439q13 10 13 25t-13 26v0z" />
    <glyph glyph-name="uniE602" unicode="&#xe602;" 
d="M725 -33l-481 450q-6 6 -9.5 14.5t-3.5 16.5t2.5 16.5t10.5 14.5l481 450q12 13 28.5 13t28.5 -13q13 -12 13 -29t-13 -28l-454 -424l452 -422q13 -12 13 -29t-13 -28q-10 -14 -27 -14.5t-28 12.5v0z" />
    <glyph glyph-name="uniE603" unicode="&#xe603;" 
d="M299 929l481 -450q6 -6 9.5 -14.5t3.5 -16.5t-2.5 -16.5t-10.5 -14.5l-481 -450q-12 -13 -28.5 -13t-28.5 13q-13 12 -13 29t13 28l454 424l-452 422q-13 12 -13 29t13 28q10 14 27 14.5t28 -12.5v0z" />
    <glyph glyph-name="uniE604" unicode="&#xe604;" 
d="M997 255l-454 439q-6 6 -14.5 8t-16.5 2q-9 0 -17 -2t-14 -8l-454 -439q-13 -10 -13 -25t13 -26q12 -10 29.5 -10t29.5 10l426 410l426 -412q12 -11 29.5 -11t29.5 11q13 13 13 28t-13 25v0z" />
    <glyph glyph-name="uniE605" unicode="&#xe605;" 
d="M883 12q52 0 88 36t33 87v499q0 53 -36.5 89t-86.5 36h-93l-30 62q-14 26 -25 43.5t-37 17.5h-370q-25 0 -37.5 -18.5t-24.5 -42.5l-31 -62h-92q-50 0 -86.5 -36t-36.5 -89v-497q0 -53 36.5 -89t86.5 -36h742v0zM883 698q26 0 43.5 -18.5t17.5 -43.5v-499
q0 -26 -18.5 -44t-42.5 -18h-742q-26 0 -43.5 18.5t-17.5 43.5v497q0 26 18.5 44t42.5 18h123l31 61q17 28 27 45t34 17h310q26 0 36 -18t25 -44l31 -61h125v2zM512 198q-45 0 -84.5 17.5t-69 47t-46.5 69.5t-17 85q0 46 17 85.5t46.5 69.5t69 47t84.5 17t84.5 -17t69 -47
t46.5 -69.5t17 -85.5q0 -45 -17 -85t-46.5 -69.5t-69 -47t-84.5 -17.5v0zM512 581q-68 0 -115 -48t-47 -116q0 -67 47 -115.5t115 -48.5t115 48.5t47 115.5q0 68 -47 116t-115 48v0z" />
    <glyph glyph-name="uniE606" unicode="&#xe606;" 
d="M512 940q-102 0 -191.5 -38.5t-156.5 -105.5t-105.5 -156.5t-38.5 -191.5t38.5 -191.5t105.5 -156.5t156.5 -105.5t191.5 -38.5t191.5 38.5t156.5 105.5t105.5 156.5t38.5 191.5t-38.5 191.5t-105.5 156.5t-156.5 105.5t-191.5 38.5v0z" />
    <glyph glyph-name="uniE607" unicode="&#xe607;" 
d="M512 940q-102 0 -191.5 -38.5t-156.5 -105.5t-105.5 -156.5t-38.5 -191.5t38.5 -191.5t105.5 -156.5t156.5 -105.5t191.5 -38.5t191.5 38.5t156.5 105.5t105.5 156.5t38.5 191.5t-38.5 191.5t-105.5 156.5t-156.5 105.5t-191.5 38.5v0zM512 83q-75 0 -141.5 29t-116 78.5
t-78.5 116t-29 141.5t29 141.5t78.5 116t116 78.5t141.5 29t141.5 -29t116 -78.5t78.5 -116t29 -141.5t-29 -141.5t-78.5 -116t-116 -78.5t-141.5 -29v0z" />
    <glyph glyph-name="uniE608" unicode="&#xe608;" 
d="M893 -52h-762q-52 0 -89.5 36.5t-37.5 88.5v750q0 52 37.5 88.5t89.5 36.5h760q52 0 89.5 -36.5t37.5 -88.5v-748q0 -52 -36.5 -89.5t-88.5 -37.5v0zM954 823q0 26 -18.5 43.5t-44.5 17.5h-760q-26 0 -44.5 -18.5t-18.5 -42.5v-748q0 -26 18.5 -43.5t44.5 -17.5h760
q26 0 44.5 18.5t18.5 42.5v748v0zM797 73h-570q-13 0 -21.5 9.5t-8.5 21.5t9 21.5t21 9.5h570q13 0 21.5 -9.5t8.5 -21.5t-8.5 -21.5t-21.5 -9.5v0zM537 208q-5 -4 -12 -6.5t-13 -1.5q-6 0 -13 2t-12 6l-155 187q-9 9 -9 22.5t9 22.5t22.5 9t22.5 -9l104 -125v475
q0 12 9.5 21.5t21.5 9.5q14 0 22.5 -9.5t8.5 -21.5v-475l104 123q9 9 22.5 9t22.5 -9t9 -22.5t-9 -22.5l-155 -185v0z" />
    <glyph glyph-name="uniE609" unicode="&#xe609;" 
d="M885 821h-746q-52 0 -88.5 -36.5t-36.5 -88.5v-498q0 -52 36.5 -88.5t88.5 -36.5h746q52 0 88.5 36.5t36.5 88.5v498q0 52 -36.5 88.5t-88.5 36.5v0zM915 759l-403 -311l-403 311h806v0zM78 200v496l280 -217l-278 -297q-2 4 -2 9v9v0zM125 139l281 299l106 -80l102 80
l285 -299h-122h-265h-265h-122v0zM946 200q0 -4 -1 -9t-1 -9l-276 297l280 217v-496h-2z" />
    <glyph glyph-name="uniE60A" unicode="&#xe60a;" 
d="M590 446l403 403q8 8 12.5 18.5t4.5 20.5q0 11 -4.5 21.5t-12.5 17.5q-15 16 -38.5 16t-39.5 -16l-405 -401l-397 397q-8 8 -18.5 12.5t-20.5 4.5q-11 0 -21.5 -4.5t-17.5 -12.5q-8 -8 -12.5 -18t-4.5 -21t4.5 -21t12.5 -18l397 -397l-399 -401q-8 -8 -12.5 -18.5
t-4.5 -20.5q0 -11 4.5 -21.5t12.5 -17.5q15 -16 39 -16t41 16l399 399l397 -397q16 -16 39.5 -16t38.5 16q8 7 12.5 17.5t4.5 21.5q0 10 -4.5 20.5t-12.5 18.5l-397 397v0z" />
    <glyph glyph-name="uniE60B" unicode="&#xe60b;" 
d="M367 346l-279 -277v199q0 12 -9 21t-22 9q-12 0 -21 -9t-9 -21v-273q0 -6 2.5 -11.5t7.5 -8.5q4 -5 9 -6.5t11 -1.5h271q12 0 21 9t9 21q0 13 -9 22t-21 9h-201l279 279l-39 39v0zM985 921q-5 5 -10 6.5t-12 1.5h-271q-12 0 -21 -9t-9 -21q0 -13 9 -22t21 -9h201
l-277 -275l43 -43l277 277v-199q0 -12 9 -21t22 -9q12 0 21 9t9 21v273q-1 6 -4 11.5t-8 8.5v0zM332 870q12 0 21 9t9 22q0 12 -9 21t-21 9h-271q-6 0 -11.5 -2.5t-8.5 -5.5q-5 -3 -7.5 -8.5t-2.5 -11.5v-273q0 -12 9 -21t21 -9q13 0 22 9t9 21v199l275 -279l43 43l-279 277
h201v0zM965 296q-13 0 -22 -9t-9 -21v-199l-277 279l-43 -43l279 -279h-201q-12 0 -21 -9t-9 -22q0 -12 9 -21t21 -9h271q6 0 11.5 2.5t10.5 5.5t7.5 8.5t2.5 11.5v277q0 12 -9 20t-21 8v0z" />
    <glyph glyph-name="uniE60C" unicode="&#xe60c;" 
d="M819 202h-342q-11 40 -43.5 66t-75.5 26t-75.5 -26t-42.5 -66h-35q-12 0 -21.5 -9t-9.5 -21q0 -13 9.5 -22t21.5 -9h35q10 -40 42.5 -66t75.5 -26t75.5 26t43.5 66h342q12 0 21.5 9t9.5 22q0 12 -9.5 21t-21.5 9v0zM358 98q-30 0 -51.5 21.5t-21.5 52.5q0 30 21.5 51.5
t51.5 21.5q31 0 52.5 -21.5t21.5 -51.5q0 -31 -21.5 -52.5t-52.5 -21.5v0zM819 694h-342q-11 40 -43.5 66t-75.5 26t-75.5 -26t-42.5 -66h-35q-12 0 -21.5 -9.5t-9.5 -21.5t9.5 -21.5t21.5 -9.5h35q10 -40 42.5 -66t75.5 -26t75.5 26t43.5 66h342q12 0 21.5 9.5t9.5 21.5
t-9.5 21.5t-21.5 9.5v0zM358 589q-30 0 -51.5 21.5t-21.5 52.5t21.5 52.5t51.5 21.5q31 0 52.5 -21.5t21.5 -52.5t-21.5 -52.5t-52.5 -21.5v0zM819 448h-65q-11 40 -43.5 66t-75.5 26t-75.5 -26t-43.5 -66h-311q-12 0 -21.5 -9t-9.5 -22q0 -12 9.5 -21t21.5 -9h311
q11 -40 43.5 -66.5t75.5 -26.5t75.5 26.5t43.5 66.5h65q12 0 21.5 9t9.5 21q0 13 -9.5 22t-21.5 9v0zM635 344q-31 0 -52.5 21.5t-21.5 51.5q0 31 21.5 52.5t52.5 21.5t52.5 -21.5t21.5 -52.5q0 -30 -21.5 -51.5t-52.5 -21.5v0zM881 940h-738q-50 0 -86.5 -36.5t-36.5 -86.5
v-738q0 -50 36.5 -86.5t86.5 -36.5h738q50 0 86.5 36.5t36.5 86.5v738q0 50 -36.5 86.5t-86.5 36.5v0zM942 79q0 -26 -17.5 -43.5t-43.5 -17.5h-738q-26 0 -43.5 17.5t-17.5 43.5v738q0 26 17.5 43.5t43.5 17.5h738q26 0 43.5 -17.5t17.5 -43.5v-738v0z" />
    <glyph glyph-name="uniE60D" unicode="&#xe60d;" 
d="M924 933h-824q-30 0 -52.5 -21.5t-22.5 -53.5l335 -375v-352q0 -31 22 -62t54 -43l150 -59q7 -3 14 -4.5t14 -1.5q20 0 34 13t14 38v473l335 375q0 30 -21.5 51.5t-51.5 21.5v0zM588 49l-121 49q-11 4 -20 16t-9 19v352h150v-436v0zM629 561h-234l-268 299h772l-270 -299
v0z" />
    <glyph glyph-name="uniE60E" unicode="&#xe60e;" 
d="M946 573v-498q0 -50 -36.5 -87.5t-88.5 -37.5h-620q-51 0 -88 36.5t-37 88.5v498q-26 0 -44 18.5t-18 42.5v62q0 26 18.5 43.5t43.5 17.5h235q-7 14 -11.5 29.5t-4.5 32.5q0 50 36.5 87.5t88.5 37.5q27 0 51 -11.5t41 -31.5q17 20 41 31.5t51 11.5q51 0 88 -36.5
t37 -88.5q0 -17 -4.5 -32.5t-11.5 -29.5h235q26 0 44 -18.5t18 -42.5v-62q-2 -26 -20 -43.5t-44 -17.5v0zM823 14q26 0 44 18.5t18 42.5v187h-342v-248h280v0zM543 323h342v250h-342v-250v0zM139 75q0 -26 18.5 -43.5t43.5 -17.5h278v248h-340v-187v0zM139 323h342v250h-342
v-250v0zM420 882q-26 0 -44 -18.5t-18 -42.5q0 -26 18.5 -44t43.5 -18q26 0 43.5 18.5t17.5 43.5q0 26 -18.5 43.5t-42.5 17.5v0zM604 882q-26 0 -43.5 -18.5t-17.5 -42.5q0 -26 18.5 -44t42.5 -18q26 0 44 18.5t18 43.5q1 26 -17.5 43.5t-44.5 17.5v0zM915 696h-806
q-13 0 -22 -9.5t-9 -21.5t9 -21.5t22 -9.5h806q13 0 22 9.5t9 21.5t-9 21.5t-22 9.5v0z" />
    <glyph glyph-name="uniE60F" unicode="&#xe60f;" 
d="M938 395h-852q-20 0 -33.5 15.5t-13.5 37.5q0 23 13.5 38t33.5 15h852q20 0 33.5 -15.5t13.5 -37.5q0 -23 -13.5 -38t-33.5 -15v0zM938 778h-852q-20 0 -33.5 15.5t-13.5 37.5q0 23 13.5 38t33.5 15h852q20 0 33.5 -16t13.5 -37q0 -23 -13.5 -38t-33.5 -15v0zM86 118h852
q20 0 33.5 -15.5t13.5 -37.5q0 -23 -13.5 -38t-33.5 -15h-852q-20 0 -33.5 16t-13.5 37q0 23 13.5 38t33.5 15v0z" />
    <glyph glyph-name="uniE610" unicode="&#xe610;" 
d="M512 937q-101 0 -190.5 -38t-156 -104.5t-104.5 -156t-38 -190.5t38 -190.5t104.5 -156t156 -104.5t190.5 -38t190.5 38t156 104.5t104.5 156t38 190.5t-38 190.5t-104.5 156t-156 104.5t-190.5 38v0zM512 4q-91 0 -172 34.5t-141.5 95t-95.5 141.5t-35 173
q0 91 34.5 172t95 141.5t141.5 95.5t173 35q91 0 172 -34.5t141.5 -95t95.5 -141.5t35 -173q0 -91 -35 -172t-95.5 -141.5t-141.5 -95.5t-172 -35v0zM561 210q-1 8 -1.5 15.5t-0.5 15.5l2 170v75.5t-2 57.5h-27q-12 -12 -24 -21t-23 -14q-17 -7 -35.5 -11.5t-39.5 -6.5v-23
q15 -1 25.5 -2.5t17.5 -3.5q6 -1 10 -4t6 -6q2 -6 2 -13v-14l-2 -67v-41q0 -11 1 -18.5t1 -12.5v-10v-12v-11v-8v-4q0 -9 -1.5 -15t-2.5 -9q-2 -3 -6 -5l-8 -4l-50 -6v-26h11t16 2q9 0 19.5 1t19.5 1q35 0 64 -0.5t49 -1.5h10.5h7.5h6.5h9.5v22q-3 2 -7.5 2.5t-10.5 1.5
q-11 0 -21 2.5t-16 3.5v0zM516 612q8 0 14.5 1.5t14.5 6.5q7 5 12 10t8 13q3 7 4.5 14t1.5 14q0 9 -4 18t-12 17t-18.5 11t-22.5 3q-11 0 -21 -3t-16 -11q-7 -8 -10.5 -17t-3.5 -20q0 -12 4.5 -22t11.5 -19q9 -7 18.5 -11.5t18.5 -4.5v0z" />
    <glyph glyph-name="uniE611" unicode="&#xe611;" 
d="M512 -46q-25 0 -89.5 74.5t-132 175.5t-119.5 205t-52 162q0 77 31 144t84 117t125 79t153 29t153 -29.5t126 -79.5t85 -117t31 -143q0 -57 -52.5 -160.5t-120.5 -205t-132.5 -176.5t-89.5 -75v0zM512 880q-68 0 -128 -24t-104.5 -65.5t-70 -97.5t-25.5 -120
q0 -48 44 -136t100.5 -174.5t110 -150t73.5 -63.5t73.5 64t110 150.5t100.5 174t44 135.5q0 63 -25.5 119t-70 97.5t-104.5 66t-128 24.5v0zM512 417q-68 0 -116 45.5t-48 108.5q0 64 48 108.5t116 44.5t116 -45t48 -108t-48 -108.5t-116 -45.5v0zM512 663q-41 0 -69.5 -27
t-28.5 -65q0 -39 29 -65.5t69 -26.5q41 0 69.5 26.5t28.5 65.5q0 38 -28.5 65t-69.5 27v0z" />
    <glyph glyph-name="uniE612" unicode="&#xe612;" 
d="M512 -60q-24 0 -86.5 77t-128.5 181t-117 210.5t-51 166.5q0 79 30 148.5t82 121t122 81.5t149 30t149 -30t122 -81.5t82 -121t30 -148.5q0 -59 -51 -165.5t-117 -211t-128.5 -181.5t-86.5 -77v0z" />
    <glyph glyph-name="uniE613" unicode="&#xe613;" 
d="M147 53q-47 15 -83.5 43t-36.5 78v639q0 50 35.5 85t84.5 35l31 -8.5t79 -21.5t107.5 -29t116.5 -31h31h29q60 16 120 32.5t108 29t78 20.5l30 8q50 0 85 -35.5t35 -84.5v-637q0 -51 -37 -80t-83 -41l-28.5 -8t-75 -20.5t-107 -29.5t-123.5 -34q3 0 -26.5 0h-37.5
q-12 0 -65.5 14t-112.5 31t-106.5 31l-47.5 14v0zM147 874q-24 0 -42.5 -17.5t-18.5 -43.5v-637q0 -25 17.5 -39.5t43.5 -22.5l29 -8t76 -21t107 -29t122 -32v758l-334 92v0zM938 813q0 24 -17.5 42.5t-43.5 18.5l-334 -92v-758q63 17 123 33t106.5 29t75.5 20.5l29 7.5
q24 8 42.5 22t18.5 40v637v0z" />
    <glyph glyph-name="uniE614" unicode="&#xe614;" 
d="M924 364h-824q-33 0 -56.5 24.5t-23.5 59.5t24 59.5t56 24.5h824q33 0 56.5 -24.5t23.5 -59.5t-24 -59.5t-56 -24.5v0z" />
    <glyph glyph-name="uniE615" unicode="&#xe615;" 
d="M666 -48h-308q-50 0 -86 36.5t-36 86.5v744q0 50 36 86.5t86 36.5h306q50 0 86 -36.5t36 -86.5v-744q0 -50 -35 -86.5t-85 -36.5v0zM725 819q0 26 -17.5 43.5t-43.5 17.5h-306q-24 0 -42.5 -18.5t-18.5 -42.5v-31h428v31v0zM725 727h-426v-402h428v402h-2zM725 262h-426
v-187q0 -26 17.5 -43.5t43.5 -17.5h306q24 0 42.5 18.5t18.5 42.5v187h-2zM512 77q-25 0 -43 18.5t-18 43.5q0 26 17.5 43.5t43.5 17.5t43.5 -18.5t17.5 -42.5q0 -26 -18 -44t-43 -18v0z" />
    <glyph glyph-name="uniE616" unicode="&#xe616;" 
d="M940 520h-356v356q0 29 -21.5 50.5t-50.5 21.5t-50.5 -21.5t-21.5 -50.5v-356h-356q-29 0 -50.5 -21.5t-21.5 -50.5t21.5 -50.5t50.5 -21.5h356v-356q0 -29 21.5 -50.5t50.5 -21.5t50.5 21.5t21.5 50.5v356h356q29 0 50.5 21.5t21.5 50.5q-2 29 -22.5 50.5t-49.5 21.5v0z
" />
    <glyph glyph-name="uniE617" unicode="&#xe617;" 
d="M203 417v62v116v112v50q0 52 36 88.5t87 36.5h370q51 0 87 -37t36 -88v-340h62q50 0 86.5 -37t36.5 -88v-61q0 -52 -36.5 -88.5t-86.5 -36.5h-66q-9 -40 -42.5 -66t-76.5 -26h-370q-43 0 -75.5 26t-43.5 66h-66q-50 0 -86.5 37t-36.5 88v61q0 53 36.5 89t86.5 36h62v0z
M326 75h370q26 0 44 18.5t18 43.5q0 26 -18.5 43.5t-43.5 17.5h-370q-26 0 -44 -18.5t-18 -42.5q0 -25 18.5 -43.5t43.5 -18.5v0zM760 757q0 26 -18.5 44t-43.5 18h-372q-26 0 -44 -18.5t-18 -43.5v-340h496v340v0zM946 292q0 26 -18.5 44t-42.5 18h-744q-26 0 -43.5 -18.5
t-17.5 -43.5v-61q0 -26 18.5 -44t42.5 -18h66q11 40 43.5 66.5t75.5 26.5h370q43 0 76.5 -26.5t42.5 -66.5h66q26 0 43.5 18.5t17.5 43.5v61h4z" />
    <glyph glyph-name="uniE618" unicode="&#xe618;" 
d="M889 -46h-754q-52 0 -88.5 36.5t-36.5 86.5v742q0 50 36.5 86.5t88.5 36.5h189q52 0 88.5 -36.5t36.5 -86.5h438q52 0 88.5 -36.5t36.5 -86.5v-617q1 -52 -35.5 -88.5t-87.5 -36.5v0zM950 694q0 26 -18.5 43.5t-44.5 17.5h-500v62q0 26 -18.5 43.5t-44.5 17.5h-189
q-26 0 -44.5 -17.5t-18.5 -43.5v-185h876v62h2zM950 571h-876v-494q0 -26 18.5 -43.5t44.5 -17.5h752q26 0 44.5 17.5t18.5 43.5v494h-2z" />
    <glyph glyph-name="uniE619" unicode="&#xe619;" 
d="M997 -39q-9 -10 -22 -10t-23 10l-256 254q-53 -43 -120.5 -68t-141.5 -25q-86 0 -162 32.5t-133 88t-90 130t-33 159.5t33 160t89.5 130.5t132.5 87.5t163 32q86 0 162 -32.5t133 -88t90 -130.5t33 -159q0 -80 -29 -150.5t-80 -123.5l256 -252q10 -10 9.5 -23t-11.5 -22
v0zM434 880q-73 0 -137 -27.5t-112 -74.5t-75.5 -110.5t-27.5 -135.5t27.5 -135.5t75.5 -111t112 -74.5t137 -27t137 27t112 74.5t75.5 111t27.5 135.5t-27.5 135.5t-75.5 110.5t-112 74.5t-137 27.5v0z" />
    <glyph glyph-name="uniE61A" unicode="&#xe61a;" 
d="M575 106q-6 6 -8.5 11.5t-1.5 13.5v30v67.5v71.5v42q-87 0 -168 -30t-146.5 -82t-111 -122.5t-61.5 -153.5q-22 48 -33.5 101.5t-11.5 109.5q0 109 41.5 205.5t114 168t169.5 113.5t207 42v207q-1 7 1.5 14.5t8.5 13.5q11 11 26 11t26 -11l354 -385q6 -6 8 -12.5t2 -13.5
q0 -8 -2 -14.5t-8 -12.5l-352 -383q-11 -8 -26 -10.5t-28 8.5v0z" />
    <glyph glyph-name="uniE61B" unicode="&#xe61b;" 
d="M565 137v30.5v68v70.5v38q-87 0 -167.5 -30t-146 -82t-111 -122.5t-60.5 -153.5q-22 50 -33.5 103t-11.5 108q0 109 41.5 205t113.5 167.5t168.5 113t206.5 41.5v207q0 7 2 14.5t8 13.5q11 11 26 11t26 -11l352 -383q6 -6 8 -12.5t2 -13.5q0 -8 -2 -14.5t-8 -12.5
l-352 -383q-5 -5 -12 -8.5t-15 -3.5q-6 0 -13 2.5t-12 7.5v0v0q-6 6 -8.5 13.5t-1.5 15.5v0zM637 413v-190l270 295l-270 295v-191h-46.5h-60.5q-93 -2 -171 -49.5t-134.5 -113.5t-88 -137t-32.5 -120q29 36 78 73.5t107.5 68t121 50t117.5 19.5h64h45v0z" />
    <glyph glyph-name="uniE61C" unicode="&#xe61c;" 
d="M487 950v-1t0 1q-62 -6 -115.5 -33t-93.5 -69.5t-62.5 -98.5t-22.5 -119q0 -66 25 -124t68.5 -101.5t101.5 -68.5t124 -25t124 25t101.5 68.5t68.5 101.5t25 124q0 63 -23 119t-62.5 98.5t-93.5 69.5t-115 33v0v2h-50v-2zM512 360q-56 0 -105.5 21t-86 58t-57.5 86
t-21 105t21 105.5t57.5 86t86 58t105.5 21.5t105.5 -21.5t86 -58t57.5 -86t21 -105.5t-21 -105t-57.5 -86t-86 -58t-105.5 -21v0zM506 690l-62 112q-4 10 -14.5 12.5t-17.5 -1.5q-10 -5 -12.5 -15.5t1.5 -17.5l62 -113q-16 -17 -18.5 -39.5t8.5 -44.5q15 -26 44.5 -35
t55.5 6q26 16 35 45.5t-6 55.5q-13 20 -34 29.5t-42 5.5v0zM821 618q52 0 68 -26.5t16 -57.5l-55 -446q0 -31 -26.5 -57.5t-57.5 -26.5h-506q-31 0 -57.5 12t-26.5 43l-55 477q0 31 18 57.5t66 26.5l8 55q-61 0 -104 -36.5t-43 -98.5l55 -473q0 -61 44 -90t105 -29h486
q61 0 105 43t44 105l56 444q0 62 -42 98.5t-104 36.5l6 -57v0zM487 350h50v-402h-50v402v0z" />
    <glyph glyph-name="uniE61D" unicode="&#xe61d;" 
d="M512 948q-104 0 -195 -39.5t-158.5 -107t-107 -158.5t-39.5 -195t39.5 -195t107 -158.5t158.5 -107t195 -39.5t195 39.5t158.5 107t107 158.5t39.5 195t-39.5 195t-107 158.5t-158.5 107t-195 39.5v0zM778 649l-260 -209l-258 209h518v0zM242 274v344l192 -158l-190 -196
q0 1 -1 4t-1 6v0zM262 233l201 205l57 -47l55 47l197 -205h-510v0zM797 274q0 -3 -0.5 -6t-1.5 -6l-191 198l193 156v-342v0z" />
    <glyph glyph-name="uniE61E" unicode="&#xe61e;" 
d="M512 944q-103 0 -193.5 -39.5t-157.5 -106.5t-106 -157.5t-39 -192.5q0 -103 39.5 -193.5t106.5 -157.5t157.5 -106t192.5 -39q103 0 193.5 39.5t157.5 106.5t106 157.5t39 192.5q0 103 -39 193.5t-106 157.5t-157.5 106t-193.5 39v0zM659 653h-27h-42q-19 0 -24 -8.5
t-5 -26.5v-38v-23h98l-10 -109h-90v-322h-129v322h-68v109h68v16.5v69.5q0 59 33.5 90.5t105.5 31.5h50.5h37.5v-112h2z" />
    <glyph glyph-name="uniE61F" unicode="&#xe61f;" 
d="M600 446q0 -34 -24 -58t-58 -24t-58 24t-24 58t24 58t58 24t58 -24t24 -58v0zM729 684h-59q-8 0 -13.5 -5.5t-5.5 -13.5v-61q0 -8 5.5 -13.5t13.5 -5.5h59q8 0 13.5 5.5t5.5 13.5v61q0 8 -5.5 13.5t-13.5 5.5v0zM512 944q-103 0 -193.5 -39.5t-157.5 -106.5t-106 -157.5
t-39 -192.5q0 -103 39.5 -193.5t106.5 -157.5t157.5 -106t192.5 -39q103 0 193.5 39.5t158 106.5t107 157.5t39.5 192.5q-1 103 -40.5 193.5t-106.5 157.5t-157.5 106t-193.5 39v0zM797 278q0 -46 -32.5 -78.5t-78.5 -32.5h-338q-46 0 -78 32.5t-32 78.5v250h161
q-12 -17 -19 -38t-7 -44q0 -60 41.5 -101.5t101.5 -41.5t101.5 41.5t41.5 101.5q0 23 -7 44t-19 38h164v-250v0zM408 446q0 25 10 46.5t26 35.5q7 4 13 9t14 9q11 5 22 8t23 3t23 -3t22 -8q8 -3 14.5 -7.5t12.5 -10.5q17 -15 27 -36t10 -46q0 -46 -32.5 -78.5t-78.5 -32.5
q-43 0 -74.5 32.5t-31.5 78.5v0zM797 618v-72h-179q-19 20 -45 31.5t-57 11.5q-29 0 -55.5 -11.5t-46.5 -31.5h-176v72q0 28 12.5 51.5t34.5 38.5v-119h22v131q3 2 7.5 3t9.5 1v-137h22v140h1h1h12v-140h23v140h301q48 1 80.5 -31t32.5 -78v0v0z" />
    <glyph glyph-name="uniE620" unicode="&#xe620;" 
d="M512 944q-103 0 -193.5 -39.5t-158 -106.5t-107 -157.5t-39.5 -192.5q0 -103 39.5 -193.5t107 -157.5t158 -106t193.5 -39t193.5 39.5t157.5 106.5t106 157.5t39 192.5q0 103 -39 193.5t-106 157.5t-157.5 106t-193.5 39v0zM573 284q-29 0 -53.5 13.5t-34.5 31.5
l-10.5 -43t-13.5 -55q-12 -43 -37.5 -78.5t-28.5 -38.5q-1 -3 -4.5 -2t-3.5 4q0 6 -4.5 49.5t6.5 87.5q2 11 10 43t16 66.5t14.5 61l6.5 26.5l-6 15.5t-6 41.5q0 40 20 66.5t50 26.5q24 0 36.5 -16t12.5 -38q0 -24 -11.5 -58.5t-19.5 -68.5q-6 -29 11 -49t46 -20
q51 0 83 56.5t32 133.5q0 59 -38.5 98t-110.5 39q-82 0 -129.5 -52t-47.5 -120q0 -23 7 -40t18 -29q5 -6 6.5 -9.5t-0.5 -11.5q-1 -4 -4 -14t-4 -14q-2 -7 -7 -9.5t-12 0.5q-38 16 -55.5 54t-17.5 84q0 38 16 78t48 72.5t80 53.5t112 21q51 0 93 -17t72 -45.5t46 -66
t16 -78.5q-2 -54 -17.5 -99.5t-41 -79t-61.5 -52.5t-79 -19v0z" />
    <glyph glyph-name="uniE621" unicode="&#xe621;" 
d="M512 944q-103 0 -193.5 -39.5t-157.5 -106.5t-106 -157.5t-39 -192.5q0 -103 39.5 -193.5t106.5 -157.5t157.5 -106t192.5 -39q103 0 193.5 39.5t157.5 106.5t106 157.5t39 192.5q0 103 -39 193.5t-106 157.5t-157.5 106t-193.5 39v0zM762 534q3 -61 -17.5 -122
t-62.5 -110t-104.5 -79.5t-143.5 -30.5q-49 0 -93.5 13.5t-82.5 37.5q46 -6 90.5 7t79.5 40q-38 0 -67 23t-42 57q14 -3 26.5 -2t25.5 4q-42 8 -68 41.5t-24 73.5q12 -6 24.5 -10t26.5 -4q-39 26 -48.5 70.5t13.5 82.5q43 -52 104 -84t133 -37q-12 54 22 98t91 44
q25 0 47 -10t37 -27q20 4 38.5 11t35.5 17q-6 -20 -19.5 -36t-31.5 -27q17 2 33.5 6.5t31.5 11.5q-11 -16 -24.5 -31.5t-30.5 -27.5v0z" />
    <glyph glyph-name="uniE622" unicode="&#xe622;" 
d="M969 622l-535 -522q-37 -35 -89 -35t-89 35l-201 196q-37 36 -37 87t37 88q37 35 89.5 35t88.5 -35l111 -109l447 434q36 35 88.5 35t89.5 -35q37 -37 37 -88t-37 -86v0z" />
    <glyph glyph-name="uniE623" unicode="&#xe623;" 
d="M242 370q9 -4 17 0t11 15q2 7 6 22t7 25t1 16.5t-10 15.5q-16 20 -27 48t-11 65q0 55 19.5 104.5t56 87.5t89 60t117.5 22q58 0 102.5 -16.5t75 -46t46.5 -70t16 -88.5q0 -62 -13.5 -117.5t-37.5 -97t-57.5 -66t-74.5 -24.5q-44 0 -72 32.5t-18 78.5q13 55 32.5 110
t19.5 95q0 35 -19 60.5t-59 25.5q-46 0 -78.5 -42.5t-32.5 -107.5q0 -40 9.5 -65l9.5 -25l-10.5 -42.5t-23 -96.5t-24.5 -105.5t-16 -68.5q-17 -70 -10.5 -140t8.5 -80q0 -4 5.5 -5.5t8.5 1.5q5 6 45.5 63.5t59.5 125.5q4 18 22.5 87.5l18.5 69.5q15 -29 54 -50t87 -21
q69 0 126 29.5t97.5 82.5t63 125t22.5 156q0 64 -26 123.5t-73.5 105t-114.5 73.5t-150 28q-103 0 -180 -33.5t-128.5 -85.5t-77.5 -115.5t-26 -124.5q0 -73 28.5 -133.5t88.5 -85.5v0z" />
    <glyph glyph-name="uniE624" unicode="&#xe624;" 
d="M14 137q34 -22 71 -39t76 -29t81 -18t86 -6q142 0 252 54t184 141t111 195t32 216q29 21 55 48.5t48 57.5q-28 -12 -57 -20t-60 -13q32 19 55 48.5t35 64.5q-29 -17 -62 -30t-67 -19q-28 29 -66.5 46t-82.5 17q-50 0 -91 -21t-68.5 -56t-39 -80t-0.5 -92q-64 3 -123.5 19
t-113 44t-99.5 66t-84 84q-20 -35 -25.5 -73t2.5 -75t30 -69.5t57 -55.5q-25 2 -49 8t-44 17q-1 -71 44.5 -129.5t119.5 -73.5q-21 -6 -44 -7.5t-48 3.5q20 -62 71.5 -101t118.5 -40q-33 -25 -69.5 -43t-75 -28.5t-79 -13.5t-81.5 3v0z" />
    <glyph glyph-name="uniE625" unicode="&#xe625;" 
d="M385 -58h203v510h141l14 170h-157v36v60q0 31 9 43.5t38 12.5h66.5h43.5v178h-61h-80q-114 0 -166.5 -50t-52.5 -145v-109v-26h-107v-172h107v-508h2z" />
    <glyph glyph-name="uniE626" unicode="&#xe626;" 
d="M995 851q-4 25 -23.5 41.5t-45.5 16.5v0h-779q-26 0 -45.5 -16.5t-23.5 -41.5q0 -3 -1 -7t-1 -7l319 -354v-449q0 -23 12.5 -35t32.5 -12h1h1v0h183h5h5q20 0 32.5 13t12.5 34v449l317 354v8t-2 6v0z" />
    <glyph glyph-name="uniE627" unicode="&#xe627;" 
d="M891 796h-191v64q0 26 -18.5 44.5t-44.5 18.5h-252q-26 0 -44.5 -18.5t-18.5 -44.5v-64h-191q-52 0 -89.5 -37.5t-37.5 -89.5v-569q0 -52 37.5 -89.5t89.5 -37.5h760q52 0 89.5 37.5t37.5 89.5v569q0 52 -37.5 89.5t-89.5 37.5v0zM385 827q0 14 9 22.5t22 8.5h190
q14 0 22.5 -9.5t8.5 -21.5v-31h-252v31v0zM954 100q0 -26 -18.5 -45t-44.5 -19h-758q-26 0 -44.5 19t-18.5 45v348h319q-1 -8 -2.5 -15.5t-1.5 -15.5q0 -52 37.5 -89.5t89.5 -37.5t89.5 37.5t37.5 89.5q0 8 -1.5 15.5t-2.5 15.5h321v-348h-2zM449 417q0 9 2.5 17t5.5 14h108
q5 -8 6.5 -15.5t1.5 -15.5q0 -26 -18.5 -44.5t-44.5 -18.5q-25 0 -43 18t-18 45v0zM954 511h-884v158q0 26 18.5 45t44.5 19h760q26 0 44.5 -19t18.5 -45v-158h-2z" />
    <glyph glyph-name="uniE628" unicode="&#xe628;" 
d="M127 315l356 -344q5 -5 13 -7.5t16 -2.5t15.5 2t13.5 8l356 342q6 4 9 11.5t3 14.5q0 8 -3 15t-9 12q-11 9 -29 9t-28 -9l-328 -315l-328 315q-6 5 -13.5 7.5t-14.5 2.5q-8 0 -15.5 -2.5t-13.5 -7.5t-9 -12t-3 -15q1 -6 3.5 -13t8.5 -11v0zM512 -15q-17 0 -28 12t-11 27
v873q0 16 12 27t27 11q17 0 28 -11.5t11 -26.5v-873q0 -17 -11 -28t-28 -11v0z" />
    <glyph glyph-name="uniE629" unicode="&#xe629;" horiz-adv-x="1155" 
d="M1140 70l-486 844q-12 20 -32.5 32t-44.5 12q-23 0 -43.5 -12t-32.5 -32l-487 -844q-12 -20 -12 -43.5t12 -44.5q12 -20 32.5 -32t43.5 -12h974q24 0 44.5 12t31.5 32q13 21 13 44.5t-13 43.5v0v0zM90 26l487 844l487 -844h-974v0zM516 573l25 -258q1 -12 10.5 -20.5
t22.5 -9.5q15 -1 26.5 7.5t12.5 22.5l25 258q1 2 1 4.5t-1 5.5q-2 22 -21.5 36.5t-44.5 12.5t-41.5 -19t-14.5 -40v0v0zM628 175q0 -21 -15 -36t-36 -15t-35.5 15t-14.5 36t14.5 35.5t35.5 14.5t36 -14.5t15 -35.5v0v0z" />
  </font>
</defs>
</svg>
