<?xml version="1.0" standalone="no"?>
<!DOCTYPE svg PUBLIC "-//W3C//DTD SVG 1.1//EN" "http://www.w3.org/Graphics/SVG/1.1/DTD/svg11.dtd" >
<svg xmlns="http://www.w3.org/2000/svg">
<metadata>Generated by IcoMoon</metadata>
<defs>
<font id="icomoon" horiz-adv-x="512">
<font-face units-per-em="512" ascent="480" descent="-32" />
<missing-glyph horiz-adv-x="512" />
<glyph unicode="&#x20;" d="" horiz-adv-x="256" />
<glyph unicode="&#xe600;" d="M83.968 413.44h20.48c0 32.768 31.744 63.488 67.584 63.488 0 0 200.704 0 202.752 0l117.76-126.976v-250.88c0-32.768-31.744-63.488-67.584-63.488h-17.408c0-32.768-31.744-63.488-67.584-63.488h-253.952c-35.84 0-67.584 30.72-67.584 63.488v315.392c0 31.744 29.696 62.464 65.536 62.464zM171.008 34.56c-35.84 0-67.584 30.72-67.584 63.488v283.648l-18.432-1.024c-17.408 0-31.744-15.36-31.744-30.72v-315.392c0-16.384 16.384-31.744 33.792-31.744h253.952c17.408 0 33.792 15.36 33.792 31.744h-203.776zM374.784 444.16v0c0-30.72 0-47.104 0-47.104 0-16.384 15.36-47.104 33.792-47.104h51.2l-84.992 94.208zM458.752 319.232c-32.768 0-51.2 0-51.2 0-35.84 0-67.584 29.696-67.584 62.464 0 0 0 27.648 0 63.488h-168.96c-17.408 0-33.792-15.36-33.792-31.744v-316.416c0-16.384 16.384-31.744 33.792-31.744h253.952c17.408 0 33.792 15.36 33.792 31.744v222.208zM374.784 145.152h-152.576c-9.216 0-17.408 7.168-17.408 15.36 0 9.216 7.168 15.36 17.408 15.36h152.576c9.216 0 17.408-7.168 17.408-15.36-1.024-8.192-8.192-15.36-17.408-15.36zM374.784 224h-152.576c-9.216 0-17.408 7.168-17.408 15.36 0 9.216 7.168 15.36 17.408 15.36h152.576c9.216 0 17.408-7.168 17.408-15.36-1.024-8.192-8.192-15.36-17.408-15.36z" />
<glyph unicode="&#xe601;" d="M13.312 316.16l224.256-217.088c4.096-4.096 11.264-6.144 18.432-6.144 6.144 0 13.312 1.024 18.432 6.144l224.256 216.064c5.12 4.096 8.192 10.24 8.192 16.384s-3.072 12.288-8.192 16.384c-9.216 8.192-26.624 8.192-35.84 0l-206.848-198.656-206.848 199.68c-5.12 4.096-11.264 6.144-18.432 6.144s-13.312-2.048-18.432-6.144c-5.12-4.096-8.192-10.24-8.192-16.384 2.048-6.144 4.096-12.288 9.216-16.384z" />
<glyph unicode="&#xe602;" d="M118.784 205.568l238.592-223.232c4.096-5.12 10.24-7.168 16.384-7.168 7.168 0 13.312 3.072 17.408 8.192 5.12 4.096 7.168 10.24 8.192 16.384 0 7.168-2.048 13.312-7.168 18.432l-221.184 205.824 221.184 206.848c5.12 4.096 7.168 10.24 8.192 16.384 0 7.168-2.048 13.312-7.168 18.432s-11.264 7.168-17.408 7.168-12.288-3.072-17.408-7.168l-238.592-223.232c-5.12-4.096-8.192-10.24-8.192-19.456 0-6.144 3.072-13.312 7.168-17.408z" />
<glyph unicode="&#xe603;" d="M393.216 242.432l-238.592 223.232c-4.096 5.12-10.24 7.168-16.384 7.168-7.168 0-13.312-3.072-17.408-8.192-5.12-4.096-7.168-10.24-8.192-16.384 0-7.168 2.048-13.312 7.168-18.432l221.184-205.824-222.208-206.848c-5.12-4.096-7.168-10.24-8.192-16.384 0-7.168 2.048-13.312 7.168-18.432s11.264-7.168 17.408-7.168 12.288 3.072 17.408 7.168l238.592 223.232c5.12 4.096 8.192 10.24 8.192 19.456 1.024 6.144-2.048 13.312-6.144 17.408z" />
<glyph unicode="&#xe604;" d="M498.688 131.84l-224.256 217.088c-4.096 4.096-11.264 6.144-18.432 6.144-6.144 0-13.312-1.024-18.432-6.144l-224.256-216.064c-5.12-4.096-8.192-10.24-8.192-16.384s3.072-12.288 8.192-16.384c9.216-8.192 26.624-8.192 35.84 0l206.848 198.656 206.848-199.68c5.12-4.096 11.264-6.144 18.432-6.144s13.312 2.048 18.432 6.144c5.12 4.096 8.192 10.24 8.192 16.384-2.048 6.144-4.096 12.288-9.216 16.384z" />
<glyph unicode="&#xe605;" d="M441.344 5.888c34.816 0 62.464 27.648 60.416 61.44v249.856c0 34.816-27.648 62.464-61.44 62.464h-46.080l-15.36 30.72c-9.216 17.408-13.312 30.72-30.72 30.72h-185.344c-16.384 0-22.528-14.336-30.72-30.72l-15.36-30.72h-46.080c-33.792 0-61.44-27.648-61.44-62.464v-248.832c0-34.816 27.648-62.464 61.44-62.464h370.688zM441.344 348.928c17.408 0 30.72-14.336 30.72-30.72v-249.856c0-17.408-14.336-30.72-30.72-30.72h-370.688c-17.408 0-30.72 14.336-30.72 30.72v248.832c0 17.408 14.336 30.72 30.72 30.72h61.44l15.36 30.72c11.264 18.432 14.336 30.72 30.72 30.72h154.624c17.408 0 20.48-13.312 30.72-30.72l15.36-30.72h62.464zM256 99.072c-59.392 0-108.544 49.152-108.544 109.568s48.128 109.568 108.544 109.568c59.392 0 108.544-49.152 108.544-109.568s-49.152-109.568-108.544-109.568zM256 290.56c-45.056 0-80.896-36.864-80.896-81.92s35.84-81.92 80.896-81.92 80.896 36.864 80.896 81.92c0 45.056-35.84 81.92-80.896 81.92z" />
<glyph unicode="&#xe606;" d="M256 469.76c-136.192 0-245.76-109.568-245.76-245.76s109.568-245.76 245.76-245.76 245.76 109.568 245.76 245.76-109.568 245.76-245.76 245.76z" />
<glyph unicode="&#xe607;" d="M256 469.76c-136.192 0-245.76-109.568-245.76-245.76s109.568-245.76 245.76-245.76 245.76 109.568 245.76 245.76-109.568 245.76-245.76 245.76zM256 41.728c-100.352 0-182.272 81.92-182.272 182.272s81.92 182.272 182.272 182.272 182.272-81.92 182.272-182.272c0-100.352-81.92-182.272-182.272-182.272z" />
<glyph unicode="&#xe608;" d="M446.464-25.856h-380.928c-34.816 0-63.488 27.648-63.488 62.464v374.784c0 34.816 28.672 62.464 63.488 62.464h379.904c34.816 0 63.488-27.648 63.488-62.464v-373.76c0-34.816-27.648-63.488-62.464-63.488zM477.184 411.392c0 17.408-14.336 30.72-31.744 30.72h-379.904c-17.408 0-31.744-14.336-31.744-30.72v-373.76c0-17.408 14.336-30.72 31.744-30.72h379.904c17.408 0 31.744 14.336 31.744 30.72v373.76zM398.336 36.608h-284.672c-9.216 0-15.36 7.168-15.36 15.36s7.168 15.36 15.36 15.36h284.672c9.216 0 15.36-7.168 15.36-15.36s-6.144-15.36-15.36-15.36zM268.288 104.192c-3.072-3.072-8.192-5.12-12.288-4.096-4.096 0-9.216 1.024-12.288 4.096l-77.824 93.184c-6.144 6.144-6.144 16.384 0 22.528s16.384 6.144 22.528 0l52.224-62.464v237.568c0 8.192 7.168 15.36 15.36 15.36 9.216 0 15.36-7.168 15.36-15.36v-237.568l52.224 61.44c6.144 6.144 16.384 6.144 22.528 0s6.144-16.384 0-22.528l-77.824-92.16z" />
<glyph unicode="&#xe609;" d="M442.368 410.368h-372.736c-34.816 0-62.464-27.648-62.464-62.464v-248.832c0-34.816 27.648-62.464 62.464-62.464h372.736c34.816 0 62.464 27.648 62.464 62.464v248.832c0 34.816-27.648 62.464-62.464 62.464zM457.728 379.648l-201.728-155.648-201.728 155.648h403.456zM38.912 100.096v247.808l140.288-108.544-139.264-148.48c-1.024 3.072-1.024 6.144-1.024 9.216zM62.464 69.376l140.288 149.504 53.248-39.936 51.2 39.936 142.336-149.504c-2.048 0-385.024 0-387.072 0zM473.088 100.096c0-3.072-1.024-6.144-1.024-9.216l-138.24 148.48 140.288 108.544v-247.808z" />
<glyph unicode="&#xe60a;" d="M294.912 222.976l201.728 201.728c5.12 5.12 8.192 12.288 8.192 19.456s-3.072 14.336-8.192 19.456c-10.24 10.24-28.672 10.24-38.912 0l-202.752-200.704-198.656 198.656c-5.12 5.12-12.288 8.192-19.456 8.192s-14.336-3.072-19.456-8.192c-5.12-5.12-8.192-12.288-8.192-19.456s3.072-14.336 8.192-19.456l198.656-198.656-199.68-200.704c-5.12-5.12-8.192-12.288-8.192-19.456s3.072-14.336 8.192-19.456c10.24-10.24 28.672-10.24 39.936 0l199.68 199.68 198.656-198.656c10.24-10.24 28.672-10.24 38.912 0 5.12 5.12 8.192 12.288 8.192 19.456s-3.072 14.336-8.192 19.456l-198.656 198.656z" />
<glyph unicode="&#xe60b;" d="M183.296 172.8l-139.264-138.24v99.328c0 8.192-7.168 15.36-15.36 15.36s-15.36-7.168-15.36-15.36v-136.192c0-4.096 2.048-8.192 5.12-10.24 3.072-3.072 6.144-4.096 10.24-4.096h135.168c8.192 0 15.36 7.168 15.36 15.36s-7.168 15.36-15.36 15.36h-100.352l139.264 139.264-19.456 19.456zM492.544 460.544c-3.072 3.072-6.144 4.096-11.264 4.096h-135.168c-8.192 0-15.36-7.168-15.36-15.36s7.168-15.36 15.36-15.36h100.352l-138.24-137.216 21.504-21.504 138.24 138.24v-99.328c0-8.192 7.168-15.36 15.36-15.36s15.36 7.168 15.36 15.36v136.192c-1.024 4.096-3.072 8.192-6.144 10.24zM165.888 434.944c8.192 0 15.36 7.168 15.36 15.36s-7.168 15.36-15.36 15.36h-135.168c-4.096 0-8.192-2.048-10.24-4.096-3.072-2.048-5.12-6.144-5.12-10.24v-136.192c0-8.192 7.168-15.36 15.36-15.36s15.36 7.168 15.36 15.36v99.328l137.216-139.264 21.504 21.504-139.264 138.24h100.352zM482.304 148.224c-8.192 0-15.36-7.168-15.36-15.36v-99.328l-138.24 139.264-21.504-21.504 139.264-139.264h-100.352c-8.192 0-15.36-7.168-15.36-15.36s7.168-15.36 15.36-15.36h135.168c4.096 0 8.192 2.048 11.264 4.096s5.12 6.144 5.12 10.24v138.24c0 8.192-7.168 14.336-15.36 14.336z" />
<glyph unicode="&#xe60c;" d="M409.6 101.12h-171.008c-7.168 26.624-30.72 46.080-59.392 46.080s-52.224-19.456-59.392-46.080h-17.408c-8.192 0-15.36-7.168-15.36-15.36s7.168-15.36 15.36-15.36h17.408c7.168-26.624 30.72-46.080 59.392-46.080s52.224 19.456 59.392 46.080h171.008c8.192 0 15.36 7.168 15.36 15.36s-7.168 15.36-15.36 15.36zM179.2 48.896c-20.48 0-36.864 16.384-36.864 36.864s16.384 36.864 36.864 36.864c20.48 0 36.864-16.384 36.864-36.864s-16.384-36.864-36.864-36.864zM409.6 346.88h-171.008c-7.168 26.624-30.72 46.080-59.392 46.080s-52.224-19.456-59.392-46.080h-17.408c-8.192 0-15.36-7.168-15.36-15.36s7.168-15.36 15.36-15.36h17.408c7.168-26.624 30.72-46.080 59.392-46.080s52.224 19.456 59.392 46.080h171.008c8.192 0 15.36 7.168 15.36 15.36s-7.168 15.36-15.36 15.36zM179.2 294.656c-20.48 0-36.864 16.384-36.864 36.864s16.384 36.864 36.864 36.864c20.48 0 36.864-16.384 36.864-36.864s-16.384-36.864-36.864-36.864zM409.6 224h-32.768c-7.168 26.624-30.72 46.080-59.392 46.080s-52.224-19.456-59.392-46.080h-155.648c-8.192 0-15.36-7.168-15.36-15.36s7.168-15.36 15.36-15.36h155.648c7.168-26.624 30.72-46.080 59.392-46.080s52.224 19.456 59.392 46.080h32.768c8.192 0 15.36 7.168 15.36 15.36s-7.168 15.36-15.36 15.36zM317.44 171.776c-20.48 0-36.864 16.384-36.864 36.864s16.384 36.864 36.864 36.864c20.48 0 36.864-16.384 36.864-36.864s-16.384-36.864-36.864-36.864zM440.32 469.76h-368.64c-33.792 0-61.44-27.648-61.44-61.44v-368.64c0-33.792 27.648-61.44 61.44-61.44h368.64c33.792 0 61.44 27.648 61.44 61.44v368.64c0 33.792-27.648 61.44-61.44 61.44zM471.040 39.68c0-17.408-13.312-30.72-30.72-30.72h-368.64c-17.408 0-30.72 13.312-30.72 30.72v368.64c0 17.408 13.312 30.72 30.72 30.72h368.64c17.408 0 30.72-13.312 30.72-30.72v-368.64z" />
<glyph unicode="&#xe60d;" d="M461.824 466.688h-411.648c-20.48 0-37.888-16.384-37.888-37.888l167.936-187.392v-176.128c0-20.48 16.384-44.032 37.888-52.224l74.752-29.696c5.12-2.048 9.216-3.072 14.336-3.072 13.312 0 23.552 9.216 23.552 25.6v236.544l167.936 187.392c0 20.48-16.384 36.864-36.864 36.864zM293.888 24.32l-60.416 24.576c-7.168 3.072-14.336 13.312-14.336 17.408v176.128h74.752v-218.112zM314.368 280.32h-116.736l-134.144 149.504h386.048l-135.168-149.504z" />
<glyph unicode="&#xe60e;" d="M473.088 286.464v-248.832c0-33.792-27.648-62.464-62.464-62.464h-310.272c-33.792 0-62.464 27.648-62.464 62.464v248.832c-17.408 0-30.72 14.336-30.72 30.72v30.72c0 17.408 14.336 30.72 30.72 30.72h117.76c-5.12 9.216-8.192 19.456-8.192 30.72 0 33.792 27.648 62.464 62.464 62.464 18.432 0 34.816-8.192 46.080-21.504 11.264 13.312 27.648 21.504 46.080 21.504 33.792 0 62.464-27.648 62.464-62.464 0-11.264-3.072-21.504-8.192-30.72h117.76c17.408 0 30.72-14.336 30.72-30.72v-30.72c-1.024-17.408-14.336-30.72-31.744-30.72zM411.648 6.912c17.408 0 30.72 14.336 30.72 30.72v93.184h-171.008v-123.904h140.288zM271.36 161.536h171.008v124.928h-171.008v-124.928zM69.632 37.632c0-17.408 14.336-30.72 30.72-30.72h139.264v123.904h-169.984v-93.184zM69.632 161.536h171.008v124.928h-171.008v-124.928zM209.92 441.088c-17.408 0-30.72-14.336-30.72-30.72 0-17.408 14.336-30.72 30.72-30.72 17.408 0 30.72 14.336 30.72 30.72 0 17.408-14.336 30.72-30.72 30.72zM302.080 441.088c-17.408 0-30.72-14.336-30.72-30.72 0-17.408 14.336-30.72 30.72-30.72 17.408 0 30.72 14.336 30.72 30.72 1.024 17.408-13.312 30.72-30.72 30.72zM457.728 347.904h-403.456c-8.192 0-15.36-7.168-15.36-15.36s7.168-15.36 15.36-15.36h403.456c8.192 0 15.36 7.168 15.36 15.36s-7.168 15.36-15.36 15.36z" />
<glyph unicode="&#xe60f;" d="M468.992 197.376h-425.984c-13.312 0-23.552 12.288-23.552 26.624 0 15.36 10.24 26.624 23.552 26.624h425.984c13.312 0 23.552-12.288 23.552-26.624 0-15.36-10.24-26.624-23.552-26.624zM468.992 388.864h-425.984c-13.312 0-23.552 12.288-23.552 26.624 0 15.36 10.24 26.624 23.552 26.624h425.984c13.312 0 23.552-12.288 23.552-26.624 0-15.36-10.24-26.624-23.552-26.624zM43.008 59.136h425.984c13.312 0 23.552-12.288 23.552-26.624 0-15.36-10.24-26.624-23.552-26.624h-425.984c-13.312 0-23.552 12.288-23.552 26.624 0 15.36 10.24 26.624 23.552 26.624z" />
<glyph unicode="&#xe610;" d="M256 468.736c-135.168 0-244.736-109.568-244.736-244.736s109.568-244.736 244.736-244.736c135.168 0 244.736 109.568 244.736 244.736s-109.568 244.736-244.736 244.736zM256 1.792c-121.856 0-222.208 99.328-222.208 222.208 0 121.856 99.328 222.208 222.208 222.208 121.856 0 222.208-99.328 222.208-222.208 0-121.856-100.352-222.208-222.208-222.208zM280.576 105.216c-1.024 5.12-1.024 10.24-1.024 15.36l1.024 84.992c0 27.648 0 50.176-1.024 66.56h-13.312c-8.192-8.192-16.384-14.336-23.552-17.408-11.264-5.12-23.552-8.192-37.888-9.216v-11.264c10.24-1.024 17.408-2.048 21.504-3.072s7.168-3.072 8.192-5.12c1.024-4.096 1.024-9.216 1.024-13.312l-1.024-33.792v-20.48c0-7.168 1.024-12.288 1.024-15.36s0-7.168 0-11.264c0-4.096 0-7.168 0-9.216v-2.048c0-6.144-1.024-10.24-2.048-12.288s-4.096-3.072-7.168-4.096l-24.576-3.072v-13.312c2.048 0 7.168 0 13.312 1.024 6.144 0 13.312 1.024 19.456 1.024 23.552 0 43.008 0 56.32-1.024 4.096 0 7.168 0 9.216 0s4.096 0 8.192 0v11.264c-2.048 1.024-5.12 1.024-9.216 2.048-7.168 0-14.336 2.048-18.432 3.072zM258.048 305.92c5.12 0 9.216 1.024 14.336 4.096s8.192 6.144 10.24 11.264c2.048 5.12 3.072 9.216 3.072 14.336 0 6.144-3.072 12.288-8.192 17.408s-12.288 7.168-20.48 7.168c-7.168 0-14.336-2.048-18.432-7.168-5.12-5.12-7.168-11.264-7.168-18.432 0-8.192 3.072-14.336 8.192-20.48 6.144-5.12 12.288-8.192 18.432-8.192z" />
<glyph unicode="&#xe611;" d="M256-22.784c-32.768 0-196.608 230.4-196.608 308.224 0 102.4 88.064 184.32 196.608 184.32s197.632-82.944 197.632-184.32c0-75.776-164.864-308.224-197.632-308.224zM256 440.064c-91.136 0-163.84-68.608-163.84-153.6 0-64.512 137.216-262.144 163.84-262.144s163.84 198.656 163.84 262.144c0 83.968-72.704 153.6-163.84 153.6zM256 208.64c-45.056 0-81.92 34.816-81.92 76.8 0 43.008 36.864 76.8 81.92 76.8s81.92-34.816 81.92-76.8c0-41.984-36.864-76.8-81.92-76.8zM256 331.52c-27.648 0-49.152-20.48-49.152-46.080s22.528-46.080 49.152-46.080c27.648 0 49.152 20.48 49.152 46.080s-21.504 46.080-49.152 46.080z" />
<glyph unicode="&#xe612;" d="M256-29.952c-31.744 0-191.488 237.568-191.488 317.44 0 105.472 86.016 190.464 191.488 190.464s191.488-84.992 191.488-190.464c0-78.848-159.744-317.44-191.488-317.44z" />
<glyph unicode="&#xe613;" d="M73.728 26.368c-31.744 10.24-60.416 27.648-60.416 60.416v319.488c0 33.792 27.648 60.416 60.416 60.416 0 0 90.112-25.6 166.912-45.056 10.24 0 20.48 0 29.696 0 79.872 21.504 167.936 45.056 167.936 45.056 33.792 0 60.416-27.648 60.416-60.416v-318.464c0-33.792-29.696-52.224-60.416-60.416 0 0-81.92-22.528-166.912-46.080 2.048 0-26.624 0-31.744 0-16.384 0-165.888 45.056-165.888 45.056zM73.728 436.992c-16.384 0-30.72-13.312-30.72-30.72v-318.464c0-16.384 13.312-25.6 30.72-30.72 0 0 83.968-23.552 166.912-45.056v378.88l-166.912 46.080zM468.992 406.272c0 16.384-13.312 30.72-30.72 30.72l-166.912-46.080v-378.88c83.968 22.528 166.912 45.056 166.912 45.056 16.384 5.12 30.72 13.312 30.72 30.72v318.464z" />
<glyph unicode="&#xe614;" d="M461.824 182.016h-411.648c-22.528 0-39.936 18.432-39.936 41.984s18.432 41.984 39.936 41.984h411.648c22.528 0 39.936-18.432 39.936-41.984s-18.432-41.984-39.936-41.984z" />
<glyph unicode="&#xe615;" d="M332.8-23.808h-153.6c-33.792 0-61.44 27.648-61.44 61.44v371.712c0 33.792 27.648 61.44 61.44 61.44h152.576c33.792 0 61.44-27.648 61.44-61.44v-371.712c0-33.792-26.624-61.44-60.416-61.44zM362.496 409.344c0 17.408-13.312 30.72-30.72 30.72h-152.576c-16.384 0-30.72-14.336-30.72-30.72v-15.36h214.016v15.36zM362.496 363.264h-212.992v-200.704h214.016v200.704zM362.496 130.816h-212.992v-93.184c0-17.408 13.312-30.72 30.72-30.72h152.576c16.384 0 30.72 14.336 30.72 30.72v93.184zM256 38.656c-16.384 0-30.72 14.336-30.72 30.72 0 17.408 13.312 30.72 30.72 30.72s30.72-14.336 30.72-30.72c0-17.408-14.336-30.72-30.72-30.72z" />
<glyph unicode="&#xe616;" d="M470.016 259.84h-178.176v178.176c0 19.456-16.384 35.84-35.84 35.84s-35.84-16.384-35.84-35.84v-178.176h-178.176c-19.456 0-35.84-16.384-35.84-35.84s16.384-35.84 35.84-35.84h178.176v-178.176c0-19.456 16.384-35.84 35.84-35.84s35.84 16.384 35.84 35.84v178.176h178.176c19.456 0 35.84 16.384 35.84 35.84-1.024 19.456-16.384 35.84-35.84 35.84z" />
<glyph unicode="&#xe617;" d="M101.376 208.64c0 10.24 0 169.984 0 169.984 0 34.816 27.648 62.464 61.44 62.464h185.344c33.792 0 61.44-28.672 61.44-62.464v-169.984h30.72c33.792 0 61.44-28.672 61.44-62.464v-30.72c0-34.816-27.648-62.464-61.44-62.464h-32.768c-6.144-26.624-30.72-46.080-59.392-46.080h-185.344c-28.672 0-52.224 19.456-59.392 46.080h-32.768c-33.792 0-61.44 28.672-61.44 62.464v30.72c0 34.816 27.648 62.464 61.44 62.464h30.72zM162.816 37.632h185.344c17.408 0 30.72 14.336 30.72 30.72 0 17.408-14.336 30.72-30.72 30.72h-185.344c-17.408 0-30.72-14.336-30.72-30.72s14.336-30.72 30.72-30.72zM379.904 378.624c0 17.408-14.336 30.72-30.72 30.72h-186.368c-17.408 0-30.72-14.336-30.72-30.72v-169.984h247.808v169.984zM473.088 146.176c0 17.408-14.336 30.72-30.72 30.72h-371.712c-17.408 0-30.72-14.336-30.72-30.72v-30.72c0-17.408 14.336-30.72 30.72-30.72h32.768c7.168 26.624 30.72 46.080 59.392 46.080h185.344c28.672 0 53.248-19.456 59.392-46.080h32.768c17.408 0 30.72 14.336 30.72 30.72v30.72z" />
<glyph unicode="&#xe618;" d="M444.416-22.784h-376.832c-34.816 0-62.464 27.648-62.464 61.44v370.688c0 33.792 27.648 61.44 62.464 61.44h94.208c34.816 0 62.464-27.648 62.464-61.44h219.136c34.816 0 62.464-27.648 62.464-61.44v-308.224c1.024-34.816-27.648-62.464-61.44-62.464zM475.136 346.88c0 17.408-14.336 30.72-31.744 30.72h-249.856v30.72c0 17.408-14.336 30.72-31.744 30.72h-94.208c-17.408 0-31.744-13.312-31.744-30.72v-92.16h438.272v30.72zM475.136 285.44h-438.272v-246.784c0-17.408 14.336-30.72 31.744-30.72h375.808c17.408 0 31.744 13.312 31.744 30.72v246.784z" />
<glyph unicode="&#xe619;" d="M498.688-19.712c-6.144-6.144-16.384-6.144-22.528 0l-128 126.976c-35.84-28.672-81.92-46.080-131.072-46.080-114.688 0-208.896 92.16-208.896 204.8 0 113.664 93.184 204.8 208.896 204.8 114.688 0 208.896-92.16 208.896-204.8 0-53.248-20.48-101.376-54.272-137.216l128-125.952c6.144-6.144 6.144-16.384-1.024-22.528zM217.088 440.064c-97.28 0-176.128-77.824-176.128-174.080s78.848-174.080 176.128-174.080 176.128 77.824 176.128 174.080c0 96.256-78.848 174.080-176.128 174.080z" />
<glyph unicode="&#xe61a;" d="M287.744 52.992c-4.096 4.096-6.144 7.168-5.12 12.288 0 0 0 95.232 0 105.472-116.736 0-222.208-83.968-243.712-193.536-14.336 31.744-22.528 67.584-22.528 105.472 0 145.408 118.784 264.192 266.24 264.192v103.424c-1.024 5.12 1.024 10.24 5.12 14.336 7.168 7.168 18.432 7.168 25.6 0l177.152-192.512c4.096-4.096 5.12-8.192 5.12-13.312s-1.024-9.216-5.12-13.312l-176.128-191.488c-7.168-5.12-18.432-8.192-26.624-1.024z" />
<glyph unicode="&#xe61b;" d="M282.624 68.352c0 0 0 97.28 0 103.424-115.712 0-222.208-83.968-242.688-193.536-14.336 32.768-22.528 68.608-22.528 105.472 0 145.408 118.784 263.168 265.216 263.168v103.424c0 5.12 1.024 10.24 5.12 14.336 7.168 7.168 18.432 7.168 25.6 0l176.128-191.488c4.096-4.096 5.12-8.192 5.12-13.312s-1.024-9.216-5.12-13.312l-176.128-191.488c-3.072-3.072-8.192-6.144-13.312-6.144-4.096 0-9.216 2.048-12.288 5.12 0 0 0 0 0 0-4.096 4.096-6.144 9.216-5.12 14.336zM318.464 206.592v-95.232l135.168 147.456-135.168 147.456v-95.232c0 0-44.032 0-53.248 0-124.928-3.072-211.968-144.384-212.992-209.92 37.888 48.128 138.24 105.472 211.968 105.472 12.288 0 54.272 0 54.272 0z" />
<glyph unicode="&#xe61c;" d="M243.712 474.88c0 0 0-1.024 0 0-82.944-7.168-147.456-75.776-147.456-159.744 0-88.064 71.68-159.744 159.744-159.744s159.744 71.68 159.744 159.744c0 83.968-65.536 152.576-147.456 159.744 0 0 0 0 0 1.024h-24.576zM256 179.968c-74.752 0-135.168 60.416-135.168 135.168s60.416 135.168 135.168 135.168c74.752 0 135.168-60.416 135.168-135.168s-60.416-135.168-135.168-135.168zM252.928 344.832l-30.72 56.32c-3.072 6.144-11.264 8.192-16.384 5.12-6.144-3.072-8.192-11.264-5.12-16.384l30.72-56.32c-10.24-11.264-12.288-27.648-5.12-41.984 10.24-17.408 32.768-24.576 50.176-14.336s24.576 32.768 14.336 50.176c-8.192 13.312-23.552 20.48-37.888 17.408zM410.624 308.992c34.816 0 41.984-21.504 41.984-41.984l-27.648-223.232c0-20.48-21.504-41.984-41.984-41.984h-252.928c-20.48 0-41.984 7.168-41.984 27.648l-27.648 238.592c0 20.48 10.24 41.984 41.984 41.984l4.096 27.648c-40.96 0-73.728-26.624-73.728-67.584l27.648-236.544c0-40.96 33.792-59.392 74.752-59.392h242.688c40.96 0 74.752 32.768 74.752 73.728l27.648 222.208c0 40.96-31.744 67.584-72.704 67.584l3.072-28.672zM243.712 174.848h24.576v-200.704h-24.576v200.704z" />
<glyph unicode="&#xe61d;" d="M256 473.856c-138.24 0-249.856-111.616-249.856-249.856s111.616-249.856 249.856-249.856 249.856 111.616 249.856 249.856-111.616 249.856-249.856 249.856zM389.12 324.352l-130.048-104.448-129.024 104.448h259.072zM120.832 136.96v172.032l96.256-78.848-95.232-98.304c0 1.024-1.024 3.072-1.024 5.12zM131.072 116.48l100.352 102.4 28.672-23.552 27.648 23.552 98.304-102.4h-254.976zM398.336 136.96c0-2.048 0-4.096-1.024-6.144l-95.232 99.328 96.256 77.824v-171.008z" />
<glyph unicode="&#xe61e;" d="M256 471.808c-137.216 0-247.808-111.616-247.808-247.808 0-137.216 111.616-247.808 247.808-247.808 137.216 0 247.808 111.616 247.808 247.808 0 137.216-110.592 247.808-247.808 247.808zM329.728 326.4c0 0-24.576 0-34.816 0-12.288 0-14.336-5.12-14.336-17.408 0-10.24 0-30.72 0-30.72h49.152l-5.12-54.272h-45.056v-160.768h-64.512v160.768h-33.792v54.272h33.792c0 0 0 8.192 0 43.008 0 39.936 21.504 61.44 69.632 61.44 8.192 0 44.032 0 44.032 0v-56.32z" />
<glyph unicode="&#xe61f;" d="M300.032 222.976c0-22.622-18.339-40.96-40.96-40.96s-40.96 18.339-40.96 40.96c0 22.621 18.339 40.96 40.96 40.96s40.96-18.339 40.96-40.96zM364.544 341.76h-29.696c-5.12 0-9.216-4.096-9.216-9.216v-30.72c0-5.12 4.096-9.216 9.216-9.216h29.696c5.12 0 9.216 4.096 9.216 9.216v30.72c0 5.12-4.096 9.216-9.216 9.216zM256 471.808c-137.216 0-247.808-111.616-247.808-247.808 0-137.216 111.616-247.808 247.808-247.808 137.216 0 248.832 111.616 248.832 247.808-1.024 137.216-111.616 247.808-248.832 247.808zM398.336 139.008c0-30.72-24.576-55.296-55.296-55.296h-168.96c-30.72 0-55.296 24.576-55.296 55.296v124.928h80.896c-8.192-11.264-13.312-25.6-13.312-40.96 0-39.936 31.744-71.68 71.68-71.68s71.68 31.744 71.68 71.68c0 15.36-5.12 29.696-13.312 40.96h81.92v-124.928zM203.776 222.976c0 16.384 7.168 31.744 18.432 40.96 4.096 3.072 8.192 6.144 13.312 9.216 7.168 3.072 14.336 5.12 22.528 5.12s15.36-2.048 22.528-5.12c5.12-2.048 9.216-5.12 13.312-9.216 11.264-10.24 18.432-24.576 18.432-40.96 0-30.72-24.576-55.296-55.296-55.296-28.672 0-53.248 24.576-53.248 55.296zM398.336 308.992v-35.84h-89.088c-13.312 13.312-30.72 21.504-51.2 21.504-19.456 0-37.888-8.192-51.2-21.504h-88.064v35.84c0 18.432 9.216 34.816 23.552 45.056v-59.392h11.264v65.536c2.048 1.024 5.12 2.048 8.192 2.048v-68.608h11.264v69.632c0 0 1.024 0 1.024 0h6.144v-69.632h11.264v69.632h150.528c31.744 1.024 56.32-23.552 56.32-54.272v0z" />
<glyph unicode="&#xe620;" d="M256 471.808c-137.216 0-248.832-111.616-248.832-247.808 0-137.216 111.616-247.808 248.832-247.808s247.808 111.616 247.808 247.808c0 137.216-110.592 247.808-247.808 247.808zM286.72 142.080c-19.456 0-37.888 10.24-44.032 22.528 0 0-10.24-40.96-12.288-49.152-8.192-28.672-30.72-56.32-32.768-58.368-1.024-2.048-4.096-1.024-4.096 1.024 0 4.096-6.144 38.912 1.024 68.608 3.072 14.336 23.552 98.304 23.552 98.304s-6.144 11.264-6.144 28.672c0 26.624 15.36 46.080 34.816 46.080 16.384 0 24.576-12.288 24.576-26.624 0-16.384-10.24-40.96-15.36-63.488-4.096-19.456 9.216-34.816 28.672-34.816 33.792 0 57.344 44.032 57.344 95.232 0 38.912-26.624 68.608-74.752 68.608-54.272 0-88.064-40.96-88.064-86.016 0-15.36 5.12-26.624 12.288-34.816 3.072-4.096 4.096-5.12 3.072-10.24-1.024-3.072-3.072-11.264-4.096-14.336-1.024-4.096-5.12-6.144-9.216-4.096-25.6 10.24-36.864 37.888-36.864 68.608 0 51.2 43.008 112.64 128 112.64 68.608 0 113.664-49.152 113.664-103.424-3.072-71.68-41.984-124.928-99.328-124.928z" />
<glyph unicode="&#xe621;" d="M256 471.808c-137.216 0-247.808-111.616-247.808-247.808 0-137.216 111.616-247.808 247.808-247.808 137.216 0 247.808 111.616 247.808 247.808 0 137.216-110.592 247.808-247.808 247.808zM380.928 267.008c4.096-80.896-56.32-171.008-163.84-171.008-32.768 0-62.464 9.216-88.064 25.6 30.72-4.096 61.44 5.12 84.992 23.552-25.6 0-46.080 17.408-54.272 39.936 9.216-2.048 17.408-1.024 25.6 1.024-27.648 5.12-47.104 30.72-46.080 57.344 8.192-4.096 16.384-7.168 25.6-7.168-25.6 17.408-32.768 51.2-17.408 76.8 28.672-34.816 70.656-57.344 118.784-60.416-8.192 35.84 18.432 70.656 56.32 70.656 16.384 0 31.744-7.168 41.984-18.432 13.312 3.072 25.6 7.168 36.864 14.336-4.096-13.312-13.312-24.576-25.6-31.744 11.264 1.024 22.528 4.096 32.768 9.216-7.168-11.264-16.384-21.504-27.648-29.696z" />
<glyph unicode="&#xe622;" d="M484.352 311.040l-267.264-261.12c-24.576-23.552-64.512-23.552-89.088 0l-100.352 98.304c-24.576 23.552-24.576 62.464 0 87.040 24.576 23.552 64.512 23.552 89.088 0l55.296-54.272 223.232 217.088c24.576 23.552 64.512 23.552 89.088 0 24.576-24.576 24.576-63.488 0-87.040z" />
<glyph unicode="&#xe623;" d="M120.832 185.088c6.144-3.072 12.288 0 14.336 7.168 1.024 5.12 4.096 17.408 6.144 23.552 2.048 7.168 1.024 10.24-4.096 16.384-11.264 13.312-19.456 31.744-19.456 56.32 0 72.704 54.272 137.216 141.312 137.216 76.8 0 119.808-47.104 119.808-110.592 0-82.944-36.864-152.576-91.136-152.576-29.696 0-52.224 24.576-45.056 55.296 8.192 36.864 25.6 75.776 25.6 102.4 0 23.552-12.288 43.008-38.912 43.008-30.72 0-55.296-31.744-55.296-74.752 0-26.624 9.216-45.056 9.216-45.056s-31.744-133.12-36.864-156.672c-11.264-46.080-2.048-103.424-1.024-109.568 0-3.072 5.12-4.096 7.168-2.048 3.072 4.096 39.936 49.152 52.224 94.208 3.072 12.288 20.48 78.848 20.48 78.848 10.24-19.456 38.912-35.84 70.656-35.84 92.16 0 154.624 83.968 154.624 196.608 0 84.992-71.68 164.864-182.272 164.864-136.192 0-205.824-98.304-205.824-179.2 0-49.152 18.432-93.184 58.368-109.568z" />
<glyph unicode="&#xe624;" d="M7.168 68.352c45.056-28.672 98.304-46.080 156.672-46.080 189.44 0 295.936 159.744 289.792 303.104 19.456 14.336 36.864 32.768 51.2 53.248-18.432-8.192-37.888-13.312-58.368-16.384 21.504 12.288 36.864 32.768 45.056 56.32-19.456-11.264-41.984-20.48-64.512-24.576-18.432 19.456-45.056 31.744-74.752 31.744-65.536 0-113.664-61.44-99.328-124.928-84.992 4.096-159.744 45.056-209.92 106.496-26.624-46.080-14.336-105.472 31.744-136.192-16.384 1.024-32.768 5.12-46.080 12.288-1.024-47.104 32.768-91.136 81.92-101.376-14.336-4.096-29.696-5.12-46.080-2.048 13.312-40.96 50.176-69.632 95.232-70.656-44.032-32.768-98.304-48.128-152.576-40.96z" />
<glyph unicode="&#xe625;" d="M192.512-28.928h101.376v254.976h70.656l7.168 84.992h-78.848c0 0 0 31.744 0 48.128 0 20.48 4.096 27.648 23.552 27.648 15.36 0 55.296 0 55.296 0v89.088c0 0-58.368 0-70.656 0-75.776 0-109.568-33.792-109.568-97.28 0-55.296 0-67.584 0-67.584h-53.248v-86.016h53.248v-253.952z" />
<glyph unicode="&#xe626;" d="M497.664 425.728c-3.072 16.384-17.408 28.672-34.816 28.672v0h-389.12c-17.408 0-31.744-12.288-34.816-28.672 0-2.048-1.024-5.12-1.024-7.168l159.744-177.152v-224.256c0-15.36 9.216-23.552 22.528-23.552 0 0 1.024 0 1.024 0v0h91.136c2.048 0 3.072 0 5.12 0 13.312 0 22.528 9.216 22.528 23.552v224.256l158.72 177.152c0 3.072 0 5.12-1.024 7.168z" />
</font>
</defs>
</svg>
