<?xml version="1.0" encoding="utf-8"?>
<!-- Generator: Adobe Illustrator 25.2.0, SVG Export Plug-In . SVG Version: 6.00 Build 0)  -->
<svg version="1.1" id="Layer_1" xmlns="http://www.w3.org/2000/svg" xmlns:xlink="http://www.w3.org/1999/xlink" x="0px" y="0px"
	 viewBox="0 0 24 24" style="enable-background:new 0 0 24 24;" xml:space="preserve">
<style type="text/css">
	.st0{fill:#870F54;}
</style>
<g>
	<path class="st0" d="M22.5,7.5v12.8c0,2.1-1.7,3.8-3.8,3.8H5.2c-2.1,0-3.8-1.7-3.8-3.8V7.5H6V6c0-3.3,2.7-6,6-6s6,2.7,6,6v1.5H22.5
		z M8.6,10.5c0-0.6-0.5-1.1-1.1-1.1s-1.1,0.5-1.1,1.1s0.5,1.1,1.1,1.1S8.6,11.1,8.6,10.5z M9,7.5h6V6c0-1.7-1.4-3-3-3S9,4.3,9,6V7.5
		z M17.7,10.5c0-0.6-0.5-1.1-1.1-1.1c-0.6,0-1.1,0.5-1.1,1.1s0.5,1.1,1.1,1.1C17.1,11.6,17.7,11.1,17.7,10.5z"/>
</g>
</svg>
