<?xml version="1.0" encoding="utf-8"?>
<!-- Generator: Adobe Illustrator 25.4.1, SVG Export Plug-In . SVG Version: 6.00 Build 0)  -->
<svg version="1.1" id="Layer_1" xmlns="http://www.w3.org/2000/svg" xmlns:xlink="http://www.w3.org/1999/xlink" x="0px" y="0px"
	 width="22.8px" height="40px" viewBox="0 0 22.8 40" style="enable-background:new 0 0 22.8 40;" xml:space="preserve">
<style type="text/css">
	.st0{opacity:0.848;fill:#FFFFFF;enable-background:new    ;}
</style>
<g transform="matrix(1, 0, 0, 1, 0, 0)">
	<path id="_x33_2_x5F_dropdown-2" class="st0" d="M1,1C0,2-0.1,3.7,0.8,4.8L1,5L16,20L0.8,35.1c-1,1-1.1,2.7-0.2,3.8l0.2,0.2
		c1,1,2.7,1.1,3.8,0.2l0.2-0.2L22,22.1c1-1,1.1-2.7,0.2-3.8L22,18L4.9,1C4.1-0.1,2.6-0.3,1.5,0.5C1.3,0.6,1.2,0.8,1,1z"/>
</g>
</svg>
