<svg xmlns="http://www.w3.org/2000/svg" width="75.239" height="63.156" viewBox="0 0 75.239 63.156">
  <path id="Curbside-01" d="M10.77,0A5.94,5.94,0,0,1,16.7,5.93h0V16a5.94,5.94,0,0,1-5.93,5.93h-1v40a1.12,1.12,0,1,1-2.23,0h0v-40H6.43A5.94,5.94,0,0,1,.5,16a1.12,1.12,0,1,1,2.23,0,3.7,3.7,0,0,0,3.7,3.7h4.34a3.7,3.7,0,0,0,3.7-3.7h0V6a3.7,3.7,0,0,0-3.7-3.7H6.43A3.7,3.7,0,0,0,2.73,6h0v5.75a1.12,1.12,0,1,1-2.23,0h0V5.93A5.94,5.94,0,0,1,6.43,0ZM57.92,6.09a9,9,0,0,1,8.88,7.28h0l2.69,12.39a7.63,7.63,0,0,1,6.24,7.76h0V44.67a7.65,7.65,0,0,1-6,7.72h0v4.37a5.35,5.35,0,0,1-5.34,5.35h-1.2a5.36,5.36,0,0,1-5.35-5.35h0V52.49H32.35v4.27A5.36,5.36,0,0,1,27,62.11H25.85a5.36,5.36,0,0,1-5.35-5.35h0V52.49h-.15c-3.94,0-7.15-3.51-7.15-7.82h0V33.52a7.62,7.62,0,0,1,6.23-7.75h0l2.7-12.44A8.93,8.93,0,0,1,31,6.09a1.12,1.12,0,1,1,0,2.24,6.71,6.71,0,0,0-6.68,5.43h0L21.44,27.05a.21.21,0,0,0,0,.07,1.45,1.45,0,0,1-.09.22.71.71,0,0,1-.1.14.73.73,0,0,1-.14.16,1,1,0,0,1-.17.12.83.83,0,0,1-.16.09,1.15,1.15,0,0,1-.36.07h0c-2.71,0-4.91,2.5-4.91,5.59h0V44.67c0,3.08,2.2,5.59,4.91,5.59H68.58c2.72,0,4.92-2.51,4.92-5.59h0V33.52c0-3.09-2.2-5.59-4.92-5.59h0a1.12,1.12,0,0,1-.41-.09h-.08a1,1,0,0,1-.27-.18l-.06-.07a1.51,1.51,0,0,1-.18-.26.421.421,0,0,0,0-.1.84.84,0,0,0-.06-.14h0L64.61,13.8a6.72,6.72,0,0,0-6.69-5.47H37.17a1.12,1.12,0,1,1,0-2.24Zm9.54,46.4H60.08v4.27a3.11,3.11,0,0,0,3.11,3.11h1.16a3.11,3.11,0,0,0,3.11-3.11h0Zm-37.34,0H22.74v4.27a3.11,3.11,0,0,0,3.11,3.11H27a3.12,3.12,0,0,0,3.12-3.11h0ZM28.06,32.55a6.1,6.1,0,1,1-6.1,6.1,6.1,6.1,0,0,1,6.1-6.1Zm32.82,0a6.1,6.1,0,1,1-6.11,6.1,6.1,6.1,0,0,1,6.11-6.1ZM28.06,34.78a3.87,3.87,0,1,0,3.87,3.87A3.87,3.87,0,0,0,28.06,34.78Zm32.82,0a3.87,3.87,0,1,0,3.87,3.87,3.87,3.87,0,0,0-3.87-3.87ZM54.83,11.45A7.07,7.07,0,0,1,61.93,17h0l1.53,6.6a3.54,3.54,0,0,1-.68,3,3.37,3.37,0,0,1-2.63,1.28H28.77a3.37,3.37,0,0,1-2.64-1.28,3.54,3.54,0,0,1-.68-3h0L27,16.92a7.06,7.06,0,0,1,7.09-5.47H54.83Zm0,2.24H34.08a4.85,4.85,0,0,0-4.91,3.69h0l-1.54,6.68a1.36,1.36,0,0,0,.25,1.14,1.14,1.14,0,0,0,.89.44H60.15A1.14,1.14,0,0,0,61,25.2a1.29,1.29,0,0,0,.25-1.14h0l-1.53-6.64a4.85,4.85,0,0,0-4.92-3.73Z" transform="translate(-0.495)" fill="#573b34" fill-rule="evenodd"/>
</svg>
