<?xml version="1.0" encoding="utf-8"?>
<!-- Generator: Adobe Illustrator 25.4.1, SVG Export Plug-In . SVG Version: 6.00 Build 0)  -->
<svg version="1.1" id="Layer_1" xmlns="http://www.w3.org/2000/svg" xmlns:xlink="http://www.w3.org/1999/xlink" x="0px" y="0px"
	 width="31px" height="31.5px" viewBox="0 0 31 31.5" style="enable-background:new 0 0 31 31.5;" xml:space="preserve">
<style type="text/css">
	.st0{enable-background:new    ;}
	.st1{fill:#AE8347;}
	.st2{fill:none;stroke:#976E35;stroke-miterlimit:10;}
</style>
<g class="st0">
	<path class="st1" d="M30.5,15.7c0,0.5-0.2,1-0.5,1.3L16.8,30.1c-0.4,0.4-0.8,0.5-1.3,0.5c-0.5,0-1-0.2-1.3-0.5L1,17
		c-0.4-0.4-0.5-0.8-0.5-1.3c0-0.5,0.2-1,0.5-1.3L14.2,1.2c0.4-0.4,0.8-0.5,1.3-0.5c0.5,0,1,0.2,1.3,0.5L30,14.3
		C30.3,14.7,30.5,15.1,30.5,15.7z M24.2,14.7c0-0.2,0-0.3-0.1-0.4l-5-4.6c-0.1-0.1-0.3-0.1-0.5-0.1c-0.2,0.1-0.3,0.2-0.3,0.4v3.2
		h-6.6c-0.5,0-0.9,0.2-1.3,0.6c-0.4,0.4-0.6,0.8-0.6,1.3v4.7c0,0.1,0,0.2,0.1,0.3c0.1,0.1,0.2,0.1,0.3,0.1h1.9c0.1,0,0.2,0,0.3-0.1
		c0.1-0.1,0.1-0.2,0.1-0.3v-3.8h5.6v3.2c0,0.2,0.1,0.3,0.3,0.4c0.2,0.1,0.4,0.1,0.5-0.1l5-4.6C24.1,15,24.2,14.9,24.2,14.7z"/>
</g>
<g class="st0">
	<path class="st2" d="M30.5,15.7c0,0.5-0.2,1-0.5,1.3L16.8,30.1c-0.4,0.4-0.8,0.5-1.3,0.5c-0.5,0-1-0.2-1.3-0.5L1,17
		c-0.4-0.4-0.5-0.8-0.5-1.3c0-0.5,0.2-1,0.5-1.3L14.2,1.2c0.4-0.4,0.8-0.5,1.3-0.5c0.5,0,1,0.2,1.3,0.5L30,14.3
		C30.3,14.7,30.5,15.1,30.5,15.7z M24.2,14.7c0-0.2,0-0.3-0.1-0.4l-5-4.6c-0.1-0.1-0.3-0.1-0.5-0.1c-0.2,0.1-0.3,0.2-0.3,0.4v3.2
		h-6.6c-0.5,0-0.9,0.2-1.3,0.6c-0.4,0.4-0.6,0.8-0.6,1.3v4.7c0,0.1,0,0.2,0.1,0.3c0.1,0.1,0.2,0.1,0.3,0.1h1.9c0.1,0,0.2,0,0.3-0.1
		c0.1-0.1,0.1-0.2,0.1-0.3v-3.8h5.6v3.2c0,0.2,0.1,0.3,0.3,0.4c0.2,0.1,0.4,0.1,0.5-0.1l5-4.6C24.1,15,24.2,14.9,24.2,14.7z"/>
</g>
</svg>
