<svg xmlns="http://www.w3.org/2000/svg" width="59.044" height="54.03" viewBox="0 0 59.044 54.03">
  <path id="In_Store" data-name="In Store" d="M49.57.39A4.78,4.78,0,0,1,53.8,3.28h0l6,12.52a1,1,0,0,1,.06.69.71.71,0,0,1,0,.2h0V34a.85.85,0,1,1-1.69,0h0V22.54a10.32,10.32,0,0,1-9,5.65,9.55,9.55,0,0,1-5.42-1.73,1.12,1.12,0,0,0-1.26,0,9.41,9.41,0,0,1-11.4-.4,1.21,1.21,0,0,0-1.56,0,9.41,9.41,0,0,1-11.4.4,1.12,1.12,0,0,0-1.26,0,9.55,9.55,0,0,1-5.42,1.73A10.32,10.32,0,0,1,2.5,22.54h0V49.18a3.11,3.11,0,0,0,2.82,3.33H15.69v-18A2.47,2.47,0,0,1,18.08,32H28.85a2.47,2.47,0,0,1,2.4,2.54h0v18H55.36a3.11,3.11,0,0,0,2.82-3.33h0v-6a.85.85,0,1,1,1.69,0h0v6c0,2.88-2,5.21-4.51,5.21H30.41a.9.9,0,0,1-.85-.94h0V34.52a.69.69,0,0,0-.71-.66H18.08a.69.69,0,0,0-.7.66h0V53.45a.9.9,0,0,1-.85.94H5.38c-2.49,0-4.51-2.33-4.51-5.21h0V16.69a1.38,1.38,0,0,1,0-.2A1,1,0,0,1,1,15.77H1L7.57,3.1A4.78,4.78,0,0,1,11.72.39ZM48.26,31.7a2.34,2.34,0,0,1,2.26,2.4h0V41a2.34,2.34,0,0,1-2.26,2.41H41.55A2.34,2.34,0,0,1,39.29,41h0V34.1a2.34,2.34,0,0,1,2.26-2.4h6.71Zm0,1.85H41.55a.54.54,0,0,0-.52.55h0V41a.54.54,0,0,0,.52.56h6.71a.54.54,0,0,0,.52-.56h0V34.1A.54.54,0,0,0,48.26,33.55Zm8.2-16.75H4.28a1.3,1.3,0,0,0-1.08.62A1.92,1.92,0,0,0,3,19c1.17,4.4,4.6,7.35,8.55,7.35A8,8,0,0,0,16,24.87a2.68,2.68,0,0,1,3.06,0,7.85,7.85,0,0,0,9.52-.35,2.77,2.77,0,0,1,3.52,0,7.85,7.85,0,0,0,9.52.35,2.68,2.68,0,0,1,3.06,0,8,8,0,0,0,4.52,1.44c4,0,7.38-2.95,8.55-7.35a1.89,1.89,0,0,0-.25-1.54,1.27,1.27,0,0,0-1.07-.62ZM49.57,2.27H44.43V14.92h12a2.73,2.73,0,0,1,1.09.23h0l-5.24-11a3.12,3.12,0,0,0-2.74-1.89ZM16,2.27H11.72A3.1,3.1,0,0,0,9,4H9L3.28,15.11a2.65,2.65,0,0,1,1-.19H16Zm13.56,0H17.65V14.92H29.52Zm13.22,0H31.22V14.92H42.74Z" transform="translate(-0.851 -0.39)" fill="#5d3327" fill-rule="evenodd"/>
</svg>
