<?xml version="1.0" encoding="utf-8"?>
<!-- Generator: Adobe Illustrator 25.4.1, SVG Export Plug-In . SVG Version: 6.00 Build 0)  -->
<svg version="1.1" id="Layer_1" xmlns="http://www.w3.org/2000/svg" xmlns:xlink="http://www.w3.org/1999/xlink" x="0px" y="0px"
	 width="21px" height="32.4px" viewBox="0 0 21 32.4" style="enable-background:new 0 0 21 32.4;" xml:space="preserve">
<style type="text/css">
	.st0{fill-rule:evenodd;clip-rule:evenodd;fill:#682C49;}
</style>
<path class="st0" d="M16.7,26.6c0.5,0,0.8,0.3,0.8,0.8c0,2.9-3.1,5.1-6.8,5.1S4,30.1,4,27.3c0-0.5,0.3-0.8,0.8-0.8
	c0.5,0,0.8,0.3,0.8,0.8c0,2,2.3,3.7,5.3,3.7s5.2-1.7,5.2-3.7C16.1,26.9,16.4,26.6,16.7,26.6z M10.5,0C16.2,0,21,4.6,21,10.5
	c0,0.5,0,0.9-0.2,1.4H21L20.8,12c-0.5,2.5-1.7,4.6-3.6,6.3L12.5,27c-0.6,1.1-2,1.5-3.1,0.9c-0.3-0.2-0.6-0.5-0.9-0.9l-4.8-8.6
	c-1.9-1.5-3.1-3.9-3.6-6.3L0,11.9h0.2C0,11.4,0,11,0,10.5C0,4.6,4.6,0,10.5,0z M10.5,1.4c-4.9,0-9.1,4-9.1,9.1c0,0.3,0,0.6,0,0.9
	v0.3l0,0v0.2c0.3,2.2,1.4,4,3.1,5.4c0.2,0.2,0.2,0.2,0.3,0.3v0.2l4.9,8.5c0.2,0.2,0.2,0.3,0.3,0.3c0.3,0.3,0.9,0.2,1.1-0.3l0,0
	l4.8-8.6c0.2-0.2,0.2-0.3,0.3-0.3c1.5-1.4,2.6-3.2,3.1-5.2v-0.3l0,0l0,0c0-0.5,0.2-0.8,0.2-1.2C19.5,5.4,15.4,1.4,10.5,1.4z
	 M10.3,5.7c2.6,0,4.8,2.2,4.8,4.8s-2.2,4.6-4.8,4.6S5.7,13,5.7,10.3l0,0C5.7,7.7,7.7,5.7,10.3,5.7L10.3,5.7z M10.3,7.1
	c-1.9,0-3.2,1.5-3.2,3.2s1.5,3.2,3.2,3.2s3.2-1.5,3.2-3.2l0,0C13.7,8.5,12.2,7.1,10.3,7.1z"/>
</svg>
