<?xml version="1.0" encoding="utf-8"?>
<!-- Generator: Adobe Illustrator 25.4.1, SVG Export Plug-In . SVG Version: 6.00 Build 0)  -->
<svg version="1.1" id="Layer_1" xmlns="http://www.w3.org/2000/svg" xmlns:xlink="http://www.w3.org/1999/xlink" x="0px" y="0px"
	 width="16px" height="24.8px" viewBox="0 0 16 24.8" style="enable-background:new 0 0 16 24.8;" xml:space="preserve">
<style type="text/css">
	.st0{fill-rule:evenodd;clip-rule:evenodd;fill:#682C49;}
</style>
<path class="st0" d="M12.7,20.3c0.4,0,0.6,0.2,0.6,0.6c0,2.2-2.4,3.9-5.2,3.9S3,22.9,3,20.8c0-0.4,0.2-0.6,0.6-0.6s0.6,0.2,0.6,0.6
	c0,1.5,1.8,2.8,4,2.8s4-1.3,4-2.8C12.3,20.5,12.5,20.3,12.7,20.3z M8,0c4.3,0,8,3.5,8,8c0,0.4,0,0.7-0.2,1.1H16l-0.2,0.1
	c-0.4,1.9-1.3,3.5-2.7,4.8l-3.6,6.6c-0.5,0.8-1.5,1.1-2.4,0.7c-0.2-0.2-0.5-0.4-0.7-0.7L2.8,14c-1.4-1.1-2.4-3-2.7-4.8L0,9.1h0.2
	C0,8.7,0,8.4,0,8C0,3.5,3.5,0,8,0z M8,1.1c-3.7,0-6.9,3-6.9,6.9c0,0.2,0,0.5,0,0.7v0.2l0,0v0.2c0.2,1.7,1.1,3,2.4,4.1
	c0.2,0.2,0.2,0.2,0.2,0.2v0.2L7.4,20c0.2,0.2,0.2,0.2,0.2,0.2c0.2,0.2,0.7,0.2,0.8-0.2l0,0l3.7-6.6c0.2-0.2,0.2-0.2,0.2-0.2
	c1.1-1.1,2-2.4,2.4-4V9.1l0,0l0,0c0-0.4,0.2-0.6,0.2-0.9C14.9,4.1,11.7,1.1,8,1.1z M7.8,4.3c2,0,3.7,1.7,3.7,3.7s-1.7,3.5-3.7,3.5
	S4.3,9.9,4.3,7.8l0,0C4.3,5.9,5.9,4.3,7.8,4.3L7.8,4.3z M7.8,5.4c-1.4,0-2.4,1.1-2.4,2.4s1.1,2.4,2.4,2.4s2.4-1.1,2.4-2.4l0,0
	C10.4,6.5,9.3,5.4,7.8,5.4z"/>
</svg>
