<svg id="map_pin.white" xmlns="http://www.w3.org/2000/svg" width="37" height="57.3" viewBox="0 0 37 57.3">
  <path id="Path_7" data-name="Path 7" d="M29.5,47a1.216,1.216,0,0,1,1.2,1.2c0,5.1-5.4,9.1-11.9,9.1S7,53.4,7,48.2A1.309,1.309,0,0,1,8.3,47a1.216,1.216,0,0,1,1.2,1.2c0,3.6,4.1,6.6,9.4,6.6s9.4-3,9.4-6.6A1.29,1.29,0,0,1,29.5,47ZM18.5,0A18.458,18.458,0,0,1,37,18.5a21.052,21.052,0,0,1-.2,2.5H37l-.2.4a18.678,18.678,0,0,1-6.3,11.2L22,47.8a3.982,3.982,0,0,1-7,0L6.5,32.6A19.054,19.054,0,0,1,.3,21.4L0,21H.2A21.052,21.052,0,0,1,0,18.5,18.522,18.522,0,0,1,18.5,0Zm0,2.5a16.047,16.047,0,0,0-16,16,8.6,8.6,0,0,0,.1,1.6l.1.6V21a15.7,15.7,0,0,0,5.5,9.7l.5.5.1.1,8.5,15.2a1.7,1.7,0,0,0,.6.6,1.456,1.456,0,0,0,2-.5l.1-.1,8.5-15.2a1.794,1.794,0,0,1,.5-.7,15.468,15.468,0,0,0,5.3-9.2l.1-.4v-.4a16.353,16.353,0,0,0,.2-2.2A16.113,16.113,0,0,0,18.5,2.5Z" fill-rule="evenodd"/>
  <path id="Path_8" data-name="Path 8" d="M18.5,2.5a16.047,16.047,0,0,0-16,16,8.6,8.6,0,0,0,.1,1.6l.1.6V21a15.7,15.7,0,0,0,5.5,9.7l.5.5.1.2,8.5,15.2a1.7,1.7,0,0,0,.6.6,1.528,1.528,0,0,0,2-.4l.1-.1,8.5-15.2a1.794,1.794,0,0,1,.5-.7,15.468,15.468,0,0,0,5.3-9.2l.1-.4v-.4a16.353,16.353,0,0,0,.2-2.2A16.089,16.089,0,0,0,18.5,2.5Zm-.2,21.7a5.8,5.8,0,1,1,5.8-5.8A5.8,5.8,0,0,1,18.3,24.2Z" fill="#fff" fill-rule="evenodd"/>
  <path id="Path_9" data-name="Path 9" d="M18.3,10h0a8.3,8.3,0,1,0,8.3,8.3A8.28,8.28,0,0,0,18.3,10Zm0,14.2a5.8,5.8,0,1,1,5.8-5.8A5.68,5.68,0,0,1,18.3,24.2Z" fill-rule="evenodd"/>
</svg>
