<?xml version="1.0" encoding="utf-8"?>
<!-- Generator: Adobe Illustrator 25.4.1, SVG Export Plug-In . SVG Version: 6.00 Build 0)  -->
<svg version="1.1" xmlns="http://www.w3.org/2000/svg" xmlns:xlink="http://www.w3.org/1999/xlink" x="0px" y="0px" width="70px"
	 height="50.2px" viewBox="0 0 70 50.2" style="enable-background:new 0 0 70 50.2;" xml:space="preserve">
<style type="text/css">
	.st0{fill:#FFFFFF;}
</style>
<g id="Layer_1">
	<g id="vespa" transform="translate(0 -0.1)">
		<path class="st0" d="M16.3,49.2c-4.4,0-8.3-3.2-9.2-7.5L7,40.9H4.3c-0.5,0-1-0.5-1-1v-2.7c0-1.1,0.1-2.2,0.3-3.3l0.2-1.2H2.3
			c-0.6,0-1-0.4-1-1s0.4-1,1-1h2l0.2-0.7c0.9-3.1,3-5.8,5.9-7.4l0.5-0.3v-1.8c0-1.1,0.3-2.2,0.8-3.2l0.8-1.5h-3
			c-1.2,0-2.3-0.8-2.6-2h22.7c3.7,0,6.7,3,6.7,6.7v1.9c0,0.1,0,0.2,0,0.2c0,0.1-0.1,0.1-0.1,0.2l0,0l-0.1,0.1l-0.1,0.2
			c-0.7,1.2-1.9,3.5-1.3,5.7c0.5,1.6,1.7,2.7,3.1,3.3l0.2,0.1h3.9l0.1,0c1.1-0.1,2.2-0.6,3.2-1.2l0.5-0.3l0-0.8
			c-0.1-1.7-0.3-4.9-0.3-8.5c0-7.3,3.5-9.2,5-9.7l0,0h1V8.5L47.5,3h-3.4c-0.5,0-1-0.5-1-1c0-0.5,0.5-1,1-1H48c0.3,0,0.6,0.1,0.8,0.4
			l3.7,5.2l0.7-0.3C55,5.4,56.8,5,58.6,4.9c0.5,0,1,0.5,1,1v8.4c0,0.5-0.5,1-1,1l-0.2,0c-0.4,0-0.7,0-1.1-0.1l-1.9-0.3l0.8,1.8
			c1.2,2.5,1.9,5.1,2.2,7.8l0.1,1l1-0.1c0.3,0,0.7,0,1,0c2.1,0,4.2,0.5,6.1,1.5l0.1,0.1c0.8,0.5,1.6,1,2.3,1.6
			c0.4,0.4,0.4,0.9,0.1,1.3l-3.4,4.1l0.4,0.6c0.8,1.1,1.3,2.3,1.5,3.6c0.9,5.1-2.4,9.9-7.5,10.8c-0.6,0.1-1.1,0.2-1.7,0.2
			c0,0,0,0,0,0c-4.5,0-8.4-3.2-9.2-7.7l-0.2-1l-1,0.2c-0.4,0.1-0.9,0.1-1.3,0.1H25.6l-0.2,0.8c-0.7,3.7-3.6,6.6-7.3,7.3
			C17.5,49.1,16.9,49.2,16.3,49.2z M61.3,34.8c-2.7,0-4.9,0.8-6.8,2.6c-0.9,0.8-1.8,1.5-2.8,2.1l-0.5,0.3l0,0.6
			c0.2,3.9,3.4,6.9,7.3,6.9l0.1,0c4-0.1,7.3-3.4,7.2-7.4c0-1.7-0.6-3.3-1.7-4.6L63.9,35l-0.4-0.1C62.7,34.8,62,34.8,61.3,34.8z
			 M9.5,42.2c0.7,2.2,2.5,3.9,4.7,4.7c0.7,0.2,1.5,0.4,2.2,0.4c3.2,0,5.9-2,6.9-5l0.4-1.3H9L9.5,42.2z M5.7,33.5
			c-0.2,1.2-0.3,2.4-0.3,3.6v1.7h41.5c2.5-0.2,4.7-1.3,6.3-3c2.3-2.1,5-3.2,8.2-3.2c0.7,0,1.4,0,2.1,0.1l0.5,0.1l2.8-3.3L66,28.7
			l-0.1-0.1l0,0l-0.1-0.1c-1.6-0.9-3.4-1.3-5.2-1.3c-0.6,0-1.3,0.1-1.9,0.2L58,27.6h-0.2l-0.1,0c-1.2,0.2-2.3,0.7-3.3,1.5l-0.1,0.1
			l-0.1,0.1c-0.2,0.3-0.5,0.4-0.8,0.4c0,0,0,0,0,0c-0.2,0-0.4-0.1-0.6-0.2c-0.5-0.4-0.6-1-0.2-1.4c0.8-0.9,1.8-1.6,3-2l0.8-0.2
			l-0.1-0.8c-0.4-4-1.8-7.9-4.2-11.2l-0.3-0.4h-0.9l-0.2,0.1c-2.1,0.9-3.3,3.6-3.3,7.6c0,4,0.2,7.6,0.4,9.4l0,0.1l0,0.1
			c0,0.1,0,0.2,0,0.2l0,0.1l0,0.1l-0.1,0.2l-0.1,0.1C46,33,44,33.9,41.9,34.1l-4,0c-0.1,0-0.3,0-0.4-0.1c-2.5-1.1-4-2.7-4.6-4.8
			c-0.3-1.5-0.2-3.1,0.3-4.5l0.5-1.3H15.1c-3.7,0.4-6.8,2.6-8.2,6l-0.6,1.4h18.2c0.5,0,1,0.5,1,1c0,0.6-0.4,1-1,1H5.8L5.7,33.5z
			 M17.6,15.8c-2.6,0-4.6,2-4.7,4.6l0,1.2l1.2-0.2c0.3-0.1,0.5-0.1,0.8-0.1h19.5l-0.1-1.1c-0.1-2.5-2.2-4.4-4.7-4.4H17.6L17.6,15.8z
			 M56.2,7.2c-0.7,0.2-1.5,0.5-2.2,0.7l-0.6,0.3V12l0.6,0.3c0.7,0.3,1.4,0.5,2.2,0.7l1.3,0.3V6.9L56.2,7.2z"/>
	</g>
</g>
<g id="Layer_2">
</g>
</svg>
