<?xml version="1.0" encoding="utf-8"?>
<!-- Generator: Adobe Illustrator 25.4.1, SVG Export Plug-In . SVG Version: 6.00 Build 0)  -->
<svg version="1.1" id="Layer_1" xmlns="http://www.w3.org/2000/svg" xmlns:xlink="http://www.w3.org/1999/xlink" x="0px" y="0px"
	 width="26px" height="34px" viewBox="0 0 26 34" style="enable-background:new 0 0 26 34;" xml:space="preserve">
<style type="text/css">
	.st0{fill:#FFFFFF;stroke:#8F6724;stroke-width:2;stroke-miterlimit:10;}
</style>
<g>
	<path class="st0" d="M11.8,32.4c-1.1-1.6-2.5-3.6-4.2-6c-2.1-3-3.5-5-4.1-6.1c-1-1.5-1.6-2.8-1.9-3.8C1.2,15.5,1,14.3,1,13
		c0-2.2,0.5-4.2,1.6-6C3.7,5.2,5.2,3.7,7,2.6C8.8,1.5,10.8,1,13,1c2.2,0,4.2,0.5,6,1.6c1.8,1.1,3.3,2.5,4.4,4.4
		c1.1,1.8,1.6,3.8,1.6,6c0,1.3-0.2,2.5-0.5,3.5c-0.3,1-1,2.3-1.9,3.8c-0.7,1-2,3.1-4.1,6.1l-4.2,6C14,32.8,13.5,33,13,33
		C12.5,33,12,32.8,11.8,32.4z M13,18c1.4,0,2.6-0.5,3.5-1.5c1-1,1.5-2.2,1.5-3.5s-0.5-2.6-1.5-3.5c-1-1-2.2-1.5-3.5-1.5
		s-2.6,0.5-3.5,1.5c-1,1-1.5,2.2-1.5,3.5s0.5,2.6,1.5,3.5C10.4,17.5,11.6,18,13,18z"/>
</g>
</svg>
