<?xml version="1.0" encoding="utf-8"?>
<!-- Generator: Adobe Illustrator 18.0.0, SVG Export Plug-In . SVG Version: 6.00 Build 0)  -->
<!DOCTYPE svg PUBLIC "-//W3C//DTD SVG 1.1//EN" "http://www.w3.org/Graphics/SVG/1.1/DTD/svg11.dtd">
<svg version="1.1" id="Layer_1" xmlns="http://www.w3.org/2000/svg" xmlns:xlink="http://www.w3.org/1999/xlink" x="0px" y="0px"
	 viewBox="0 0 184 88.8" enable-background="new 0 0 184 88.8" xml:space="preserve">
<g>
	<g>
		<path fill="#FFF8EE" d="M44.4,5.4c0.4-0.6,1.3-2.1,4.1-1.8c0,2.6,0.1,6.5-0.1,8.6c-0.1,1.3-1.2,1.2-0.9,2.5c0.5,0.3,4,0.4,5.4,0.2
			c0,0,1.3-0.5,0-1.7c-0.4-0.6-0.2-9.3-0.2-9.4c0.7,0,2.1-0.1,2.1,0c-0.2,2,0.8,2,1.5,0.7c0.1-0.5,2.3-3,1.8-3.9c-0.1-0.1-1,0-1,0
			c-1,0.4-1.1,0.6-1.4,0.7c-1.8,0.1-4.2,0.1-9,0c-0.3-0.7-0.8-0.4-1-0.4C41.6,5.9,43.4,5.5,44.4,5.4z M57.7,5.4
			c0.1,1-0.1,7.1-0.1,7.5c-1.4,0.9-0.7,1.8-0.7,1.8c1.4,0,4.5,0.2,4.6,0c0.1-1-0.2-0.7-0.5-1.5c-0.5-1.3-0.4-3.6-0.3-4
			c1.8-3.5,4.1,7.5,0.2,9.6c-0.4,0.2-1.2,1.2,0.7,0.8c7.4-4.1,4.8-15.8-1-12.8c0-6.4,0.4-5.7-3.6-2.9C56.4,5,57.6,4.9,57.7,5.4z
			 M37.6,47.8c-1.2,0.4-3,2.1-6.6,2.4c-7.3,0.7-11.6-1.4-16-6.1c-3.8-4-4.7-10.6-4.8-13.2c-0.1-14.8,6.5-23.2,14-23.2
			c10.2-0.3,15.3,9.6,17.1,12.4c2.4,0.3,3.5-0.9,3.5-0.9c-1-6.6-5.7-15.9-6.9-16.9c-0.2-0.1-0.9-0.1-1.1,0c-0.8,0.5-3.3,2.8-3.1,2.8
			C24.5,3.4,12.7,1.8,4.5,16.1C2.1,20.3,1,23.5,0.8,28.7C0.3,40.1,6.7,53.4,22,54.8c4.4,0.4,8.9,0.4,12.5-1.3c5.7-2.7,6-4.4,6-4.5
			C37.8,47.7,37.8,47.8,37.6,47.8z M71.5,14.7c3-0.5,3.7-1.6,3.7-1.6c0.7-1-0.1-1.3-0.6-0.9c-3.3,2.3-4.6-0.5-4.7-0.8
			c0.4-0.1,2.2-0.7,5.2-2c-0.1-0.3-0.6-3-3.2-3.3C64.9,5.3,64.3,15.1,71.5,14.7z M70.2,7.6c0.8-0.1,1.4,0.4,1.6,1.6
			c-0.8,0.2-1.4,0.6-2.3,0.5C69.1,9.4,69.4,7.7,70.2,7.6z M146.5,38.4c4.2,0.1,8.5,0.1,8.6-0.1c0.7-1.5,0.6-2.4-1-2.6
			c-0.6-0.1-0.3-1-0.6-1.4c-0.1-0.1-0.2-1.4-0.2-2.8c0,0.3,0.7-1.3,1.7-1.5c1.4,0.2,4,7.5,5.1,8.2c1.5,0.2,5.1,0.1,6-0.1
			c1.1-2.9-1.2-1.1-3.5-5.9c-3.5-7.4-3.7-6.9-0.1-8.5c2-0.9,1.6-2,0.5-2.2c-9.8-1.4-7.7,1.4-7.8,1.2c0.3,0.8,3.1,0.6-1.1,4.2
			c0,0-0.5,0.1-0.5-0.1c-0.1-2.6-0.1-15.8-0.1-18.2c-0.4-0.7-2-0.3-7.7,3.5c0.1,0.2,0,1.1,0.2,1.2c0.3,0.2,2,0.6,2.1,1.6
			c0,13.2-0.1,18.6,0,19.5c-1.1,1.5-2.2,1.4-2.3,2.1C145.7,37.6,146.3,38.4,146.5,38.4z M69.9,24.7c0,1.4,0,2.1,0.2,2.6
			c1.1,2.9,4.2,3.3,6.4,4c2.7,1,4.7,1.3,4.6,2.6c-0.1,0.4-1,2-5.1,1.2c-1.7-0.3-2.5-0.7-5.4-3c-0.1,0-1.3-0.1-1.2,0
			c0.5,2.1,1,3.2,3.2,6.9c0.1,0,1.2-0.1,1.2-0.1c1.7-2.3,1.9-1,5.4-0.6c8.4,0.9,12.5-9.1,0.2-11.6c-2.6-0.4-5.9-2.3-3.3-3.3
			c2.9-1.1,7.2,2,6.8,1.8c3.8,2,2.6-0.1,1.1-2.6c-2.6-4.3-2.5-1.2-4.2-1.3c-1.3-0.1-1.3-0.4-5-0.5C73.2,20.9,69.9,22.1,69.9,24.7z
			 M115.8,38.5c6.3-0.3,7.4-3.5,7.9-4.6c0.2-0.5-0.7-1.7-1.4-0.9c-6.9,7.3-10.9-0.3-10.8-3.3c0-2.8,1-6.8,4.2-6.5
			c0,0,2.2-0.9,3.8,4.6c1.7,2,2.5-0.2,3.6-3.5c0.5-1.5-2.6-3.1-7.4-3.3c-5-0.2-10.4,4.1-10.2,9.2C105.9,37.9,111.7,38.4,115.8,38.5z
			 M109.4,68.1c-6.9,7.3-10.9-0.3-10.8-3.3c0-2.8,1-6.8,4.2-6.5c0,0,2.2-0.9,3.8,4.6c1.6,2,2.5-0.2,3.6-3.5c0.5-1.5-2.6-3.1-7.4-3.3
			c-5-0.2-10.4,4.1-10.2,9.2c0.4,7.7,6.2,8.2,10.3,8.3c6.3-0.3,7.4-3.5,7.9-4.6C111.1,68.5,110.2,67.3,109.4,68.1z M61,38.5
			c4.8-0.3,8-3.1,8.4-4c0.4-0.7-0.3-1.6-1.2-1.1c-5.1,3.2-8,3-10.3-1.5c1-0.7,9.5-3.4,10.4-4.1c0.6-0.5-1.3-3.6-2.6-4.8
			c-1.5-1.3-3.1-2.1-6.4-1.9C47.2,22.3,48.8,39,61,38.5z M58.8,23.6c1.9-0.3,3.6,1.9,3.6,3.7c-0.3,0.4-4.8,2.3-5.4,1.1
			C56.3,27.4,56.3,24.2,58.8,23.6z M97.2,38.5c4.8-0.3,7.9-3.1,8.4-4c0.4-0.7-0.3-1.6-1.2-1.1c-5.1,3.2-8,3-10.3-1.5
			c1-0.7,9.5-3.4,10.4-4.1c0.6-0.5-1.3-3.6-2.6-4.8c-1.5-1.3-3.1-2.1-6.4-1.9C83.4,22.3,85,39,97.2,38.5z M95,23.6
			c1.9-0.3,3.6,1.9,3.5,3.7c-0.3,0.4-4.8,2.3-5.4,1.1C92.5,27.4,92.5,24.2,95,23.6z M174.1,38.5c4.8-0.3,7.9-3.1,8.4-4
			c0.4-0.7-0.3-1.6-1.2-1.1c-5.1,3.2-8,3-10.3-1.5c1-0.7,9.5-3.4,10.4-4.1c0.6-0.5-1.3-3.6-2.6-4.8c-1.5-1.3-3.1-2.1-6.4-1.9
			C160.3,22.3,161.8,39,174.1,38.5z M171.9,23.6c1.9-0.3,3.6,1.9,3.6,3.7c-0.3,0.4-4.8,2.3-5.4,1.1
			C169.4,27.4,169.4,24.2,171.9,23.6z M47.9,22.9c-1.5-1.3-3.1-2.1-6.4-1.9c-12.2,1.3-10.7,18,1.6,17.4c4.8-0.3,8-3.1,8.4-4
			c0.4-0.7-0.3-1.6-1.2-1.1c-5.1,3.2-8,3-10.3-1.5c1-0.7,9.5-3.4,10.4-4.1C51.1,27.2,49.2,24.1,47.9,22.9z M39.1,28.5
			c-0.6-1.1-0.6-4.3,1.9-4.8c1.9-0.3,3.6,1.9,3.6,3.7C44.2,27.8,39.7,29.6,39.1,28.5z M124.3,33.6c0,2.6,0.8,4.7,7,5
			c5.9-0.6,5.3-2.6,7.3-0.8c4.7,1.9,6.7-0.3,6.7-1.8c0-1.2-2.2-0.2-3-1.1c-2.2-4.4-2.1-14.2-9.7-13.7c-0.2,0-2.6-0.6-6.7,2.4
			c0,0-1.4,2.4,0.8,2.1c0.2-0.2,7-4.3,7.3,2C129.5,28.2,124.3,28.5,124.3,33.6z M131.9,30.3c1.8-0.2,0.8-0.1,2.8,0.1
			c-0.1,0,3,3.6-0.2,5.2C128.2,36.2,130.1,30.5,131.9,30.3z M73.6,62.6c1.9,0.3,1-1.7,0.3-4.7c-0.7-3.1-1.6-5.5-4.5-2.9
			c0.1,0.1-1.3,0.3-1.3,0.3c-0.3,0.1-6.9,0.1-5.9-0.2c-0.1,0-0.5-1.6-0.5-4.6c0-3.5,0.8-3.8,7.3-4.5c8.1,0.2,14.3,0.4,17.9,2.1
			c0.5,0.2,3.1,0.2,3.7-0.4c1.7-1.6,2.3-6.1-2.5-6.7C81.7,39.3,72,40.7,65,41.8c2.1-0.3-7.1,2-16.5,1.2c-5.4-0.4-5.3-1.7-5.3-1.7
			c-2.2-3.2-7-0.6-6,3.7c0.3,1.5,3.6,4.3,12,2.6c1.5-0.3,2.6-0.4,5.1-0.4c0,21.1,0.1,33.1,0,33.2c0.2-0.1-5.4,9-1,7.7
			c1.2-0.3,8.8-5.7,10.1-6.6c1.3-1.4-1.4-2.2-1.4-4.2c0-9.8,0-14.2,0-15.8c0-1.2,0.6-1.1,0.6-1.1c0,0,5.3-0.4,7.5,0.2
			C71.6,61,73.9,62.7,73.6,62.6z M123.4,69.6c-4.1,2.7-4.1-0.7-4.2-0.7c0-0.4-0.4-5.4-0.1-8.4c0,0,0.2-0.7,0.8-0.9
			c0.5-0.2,3-0.1,4.3-0.2c0.7-1.4,0.6-2.7,0.5-2.7c-1.6-0.2-4.2,0.1-5.5-0.2c-0.2-1.6-0.2-4-0.2-5.9c-0.1,0-1.1,0-1.2-0.1
			c-4.5,4.7-5.7,6.1-6.8,7.2c-0.5,2.6,2.2,1.1,2.1,2.5c1.1,6.1-3.8,12.9,5.5,13.3C125.8,73.6,126.5,68.4,123.4,69.6z M180.9,58.3
			c0.1-0.4,0-1.2,0.1-1.6c-7.3-0.6-9,0.1-9,0.2c0.1,0.4,0,0.8,0.1,1.2c0.1,0.3,1.7,1.1,1.7,1.2c0.9,2.1-2.1,6.6-2.8,7.6
			c0.6,0.9-2.4-2.7-3.2-7.8c0.4-0.3,1.3-0.4,1.4-0.9c0.4-1.7-0.8-2-4.6-1.8c-1.6,0.1-3.5,0-4.6,0.5c0,0.3,0,1.1-0.1,1.4
			c0.4,0.3,0.9,0.4,1.3,0.9c1.1,1.3,5.2,10.1,6.3,13.3c-0.1,0.1,0.1,0.4,0,0.5c-8.7,12.6-16.4,10.1-15.9,5.8
			c0.3-0.7-0.7-2.1-3.4-1.2c-1.6,0.8-2.1,2.4-1.9,3.3c2.4,8.9,15.8,5.2,23.9-5c2.6-3.2,7-9.4,9.1-15.8
			C179.7,59,180.8,58.4,180.9,58.3z M152.4,73.5c0.1-0.5,0.7,0.2,0.4-1.5c-0.1-0.7-1.6-0.9-1.9-1.7c-0.4-1.1-0.3-5.3,0-6.5
			c-0.2,1.1,1.3-4.3,4.7-1.1c0.1,0.1,0.4,0.6,0.4,0.7c0.9,0.2,0.7,0.1,1.5-0.4c-0.2-2.6,4.5-6.7-1-6.2c-3,0.3-3.8,1.8-5.2,3.1h-0.4
			c0.1-4.5-1.6-3-3.6-1.8c-1.4,0.8-2.4,1.3-3.6,2.2c0.1,0.2,0,0.8,0,1.1c0.5,0.3,1.2,0.4,1.5,0.9c0.7,1.1,0.9,5.5,0.4,7.4
			c-0.2,1-2.1,1.7-2.4,2.4c-0.1,0.3,0.1,0.9,0,1.2C146.1,73.9,148.9,73.5,152.4,73.5z M133.1,56.3c-5.7,0.5-8.7,3.9-8.7,8.7
			c0,7.3,7,10.3,14.6,8.3C149.1,70.1,144,55.3,133.1,56.3z M137.3,70.9c-6.4,3.1-9.7-11.4-5.6-12.4
			C137.1,57.3,140.7,69.2,137.3,70.9z M93.3,70.5c0,0-1,0.2-1.5-0.1c-0.8-0.5-1.2-3.1-1.7-4.3c-1.9-4.6-1.6-10-8.5-9.9
			c-2.5-0.1-6.5,2.1-6.8,3.2c-0.5,2,1.1,1.7,1.1,1.7c3.7-2.8,6.2-1.2,6.2-1.3c1.5,2.1,1.1,3.4,1.1,3.3c-9.6-0.4-9.8,4.8-9.8,5.4
			c-0.1,4.4,3.3,5.3,6.4,5.3c1.9,0,4.3-0.2,5.3-1c1.6-1.4,1.6,0.1,2.8,0.4C95.4,75.2,95.3,69.9,93.3,70.5z M83.4,70.9
			c-4.8,1.1-5.3-4.8-2.1-5.4C85.6,64.5,86.2,70.2,83.4,70.9z M22.5,47c0.1,0.3,0,0.8,0.1,0.9c0.2,0.2,1.2-0.1,1.5-0.2
			c4-2,9.2-6.4,8.9-15.4c0-0.3,0-0.6,0-0.9c0.1-3.7-2.3-10-6.5-10.2c-1.3-0.1-2.7,0.4-4.4,1.5c0-4.1,0.1-6.4,0-10.4h-0.9
			c-2,1.2-4.2,2.5-6,3.9c0.1,0.4-0.1,0.8,0,1.3c0,0.3,1.8,0.8,1.8,1.4c0,0.3,0.1,12.5-0.2,15.6c-0.2,1.5-1.4,1.6-1.9,2.2
			c0,0-0.2,1.8,0.5,1.8h7.9c0.6-0.4,0.5-0.6,0.5-1.5c-0.2-0.2-1.2-1.2-1.4-2c-0.5-2.1-0.6-6.2-0.4-7.9c0.1-0.8,0.9-1.5,1.3-1.8
			c0.2-0.2,1.2,0,1.3-0.1c0.1-0.1,1.2,1.4,1.4,1.8c1.1,2.3,1.9,6.7,1.8,8.9C27.6,45.2,23.2,46.1,22.5,47z M180.7,69.4
			c-1.3,0-2.5,0.9-2.5,2.5c0,1.6,1.2,2.5,2.5,2.5c1.3,0,2.5-0.9,2.5-2.5C183.2,70.3,182.1,69.4,180.7,69.4z M180.7,73.9L180.7,73.9
			c-1,0-1.8-0.8-1.8-1.9c0-1.2,0.8-1.9,1.8-1.9c1,0,1.8,0.8,1.8,1.9C182.5,73.1,181.7,73.9,180.7,73.9z M181.9,71.4
			c0-0.6-0.4-0.8-1.1-0.8h-1v2.7h0.6v-1.1h0.3l0.6,1.1h0.7l-0.7-1.2C181.6,72.1,181.9,71.9,181.9,71.4z M180.8,71.7h-0.5V71h0.4
			c0.2,0,0.5,0,0.5,0.3C181.3,71.6,181.1,71.7,180.8,71.7z"/>
	</g>
</g>
</svg>
