<?xml version="1.0" encoding="utf-8"?>
<!-- Generator: Adobe Illustrator 18.0.0, SVG Export Plug-In . SVG Version: 6.00 Build 0)  -->
<!DOCTYPE svg PUBLIC "-//W3C//DTD SVG 1.1//EN" "http://www.w3.org/Graphics/SVG/1.1/DTD/svg11.dtd">
<svg version="1.1" id="Layer_1" xmlns="http://www.w3.org/2000/svg" xmlns:xlink="http://www.w3.org/1999/xlink" x="0px" y="0px"
	 viewBox="0 0 292 51" enable-background="new 0 0 292 51" xml:space="preserve">
<g>
	<path fill="#FFF8EE" d="M52.9,1.2C53,1.1,53.5,1,53.5,1.4c0.1,0.4-1.2,2.7-1.3,3.2c-0.7,1.1-0.8-0.2-1.2-1c-0.4-0.8-2-0.7-2.1,0.1
		c-0.1,0.8,0,6.9,0.1,7.9c0.1,0.3,0.1,0.8,0.7,1c0.7,0.3,0.7,1.1-0.1,1.1c-0.5,0-1.3,0.1-2.1,0.1c-0.7,0-1.5,0-2.2,0
		c-0.5,0-0.7-0.8-0.1-1.1c0.4-0.2,0.6-0.6,0.6-1c0.1-2.7,0-6.5-0.2-8c-0.2-0.8-1.3-0.6-2.1-0.1C42.7,4,42.2,4.8,42,5
		c-0.3,0.2-1.4,0.6-0.8-0.7c0.4-0.8,0.8-1.7,1.7-3.1c0.2,0,0.6-0.3,0.9,0.3c4.4,0,6.6,0,8.3,0C52.4,1.5,52.7,1.3,52.9,1.2z"/>
	<path fill="#FFF8EE" d="M53.5,3.1c-0.4,0.9,0.6,0.7,0.7,1.2c0.1,0.9,0,7,0,7.6c0,0.6-0.6,0.6-0.7,0.9c-0.1,0.4,0,0.7,0.5,0.7
		c0.6,0,2.8,0,3.3,0c0.8,0,0.5-0.7-0.2-1.1c-0.2-0.1-0.3-0.5-0.3-0.8c0-1.4,0-3.3,0-3.6c0.4-0.8,1.1-0.9,1.6-0.3
		c0.8,0.9,1.7,3,1.7,5.1c0,1.2,0.1,2-0.7,3c-0.3,0.3-1.1,1.2,0.4,0.7c1.8-1,1.9-2.5,2.1-4c0.3-1.8-0.1-3.6-0.8-5
		c-0.6-1.2-1-1.8-2.1-2c-0.8-0.1-1.4,0.5-2.3,1c0-2.2,0-3.9-0.1-4.5c0-0.8-0.3-0.7-0.8-0.4C55.6,1.9,54.7,2.4,53.5,3.1z"/>
	<path fill="#FFF8EE" d="M31.3,2.9c-0.4,0.1-1.2-0.1-1.7-0.3c-2.1-0.6-4.4-1.1-6.8-1.1c-5.8,0-13.2,2.6-18.3,11.3
		c-2.2,3.8-3.1,6.5-3.6,10.9c-0.3,3.5,0,7.8,1.3,11.3c2.4,6.5,8.9,14,18.6,14.9c4.1,0.4,9.7-0.3,12.9-2.1c4.9-2.8,7.9-7.7,8.4-8.6
		c0.7-1.1-0.6-2.1-1.4-1.2c-1.1,1.2-4.5,6.2-11.8,7.4c-5.9,0.9-11.7-2-14.7-5.7c-4.1-5.1-4.5-11.2-4.6-13.6
		c-0.1-12.6,6-20.9,13.4-21c3.2-0.1,5.8,1.1,8.1,2.7c5.3,3.8,5.7,8.2,7.7,9c0.9,0.4,2.9-0.1,2.9-1.3c0-2.7-1.7-4.9-3.4-8.9
		c-1.3-3.1-2.5-6-3-6.4c-0.2-0.1-1.2-0.1-1.4,0c-0.4,0.2-0.9,1-1.6,1.6C31.7,2.5,31.7,2.8,31.3,2.9z"/>
	<path fill="#FFF8EE" d="M62.4,10.2c-0.2-2.4,1.5-4.9,5-4.5c2.4,0.3,3,2.8,3.1,3.1c-2.8,1.2-4.8,1.7-5.1,1.8c0,0.3,0.5,1.7,1.7,2
		c0.7,0.2,1.8,0.2,3-0.8c0.5-0.4,1.1-0.3,0.4,0.6c0,0-1.3,1.3-3.3,1.4C64.1,14,62.6,12.2,62.4,10.2z M65.7,6.7
		c-1,0.2-1.3,2.4-0.6,2.7c1.1-0.1,1.8-0.5,2.8-0.9C67.4,7.1,66.7,6.5,65.7,6.7z"/>
	<path fill="#FFF8EE" d="M134.7,9c-0.5,0.3-0.4,1.2,0.1,1.5c0.5,0.3,1.7,0.3,1.8,1.2c0,12-0.1,17.4-0.1,18.4c0,1.3-1.9,1.3-1.9,2.1
		c0,0.7,0.1,1.3,1.1,1.3c0.9,0,5.6,0,6.6,0c0.6,0,1.2-0.6,1-1.2c-0.1-0.5-1-0.9-1.3-1c-0.5-0.2-0.7-1.1-0.8-1.6
		c-0.1-0.5,0-1.8,0-2.4c0-0.5,1.3-1.9,2-1.9c0.1,0,0.5,0.3,0.8,0.8c1.1,1.9,3.2,7.3,3.7,7.3c0.9,0,4,0,4.7,0c1,0,1.7-1.2,0.5-2
		c-0.3-0.2-0.9-0.4-1.4-0.9c-0.5-0.5-0.9-1.2-1.5-2.5c-1.3-2.7-2.2-4.2-2.7-5.2c-0.3-0.6-0.5-1-0.4-1.3c0.1-0.6,1.7-1.9,2.8-2
		c1.8-0.3,1.3-2,0-2c-3,0-4.2,0-5.3,0c-1.9,0.1-1.2,1.5-1.2,1.3c0.1,0.2,1.3,0.5,1.2,1c0,0.7-0.6,1.4-1,1.8
		c-0.4,0.4-0.8,0.9-1.5,1.6c-0.3,0.3-0.5,0-0.5-0.2c-0.1-7.3,0.1-14.7,0.1-16.6c0-1.4-1.2-0.7-1.8-0.4C138.9,6.7,135.4,8.5,134.7,9z
		"/>
	<path fill="#FFF8EE" d="M74.3,18.2c-1.2-0.1-1.8-0.6-4.5-0.6c-1.3,0-3.6,0.3-4.6,2.8c-0.6,1.4-0.1,2.8,0.1,3.3
		c1,2.6,4.8,3.1,6.8,3.8c2.5,0.9,3.6,1.2,3.4,2.4c-0.1,1-1.4,2-5.2,1.3c-1.6-0.3-3.4-1.6-4.7-2.9c-0.4-0.4-1.3-0.1-1,0.9
		c0.3,1,2.6,4.8,2.9,5.2c0.2,0.4,0.9,0.6,1.2,0.1c0.3-0.4,0.4-0.9,1-1c0.7-0.1,1.9,0.1,3.5,0.3c2.2,0.2,4.3-0.1,5.7-1.1
		c1.4-1.1,1.9-2.8,1.7-4.4c-0.4-2.6-2.4-3.9-5.4-4.6c-2-0.5-4.1-1-4.8-1.5c-0.7-0.5-0.9-1.3-0.3-2c0.8-0.9,2.8-0.6,3.8-0.3
		c1.3,0.3,2.4,0.9,3.9,2.1c0.8,0.7,1.3,0.6,1.5,0.4c0.7-0.6-0.6-1.6-1.4-3.1c-0.9-1.8-1.3-2.4-1.9-2.2
		C75.3,17.2,74.8,18.2,74.3,18.2z"/>
	<path fill="#FFF8EE" d="M106.8,17.6c-3.6,0-8.8,2.2-9,8.3c-0.1,6.2,4.8,8.1,8.7,8.2c5.8-0.3,7.1-3.4,7.7-4.4
		c0.4-0.7-0.8-1.6-1.5-0.5c-1.8,2.4-4.3,2.8-5.7,2.3c-2.5-0.7-3.4-2.7-3.7-5.7c-0.3-2.7,0.6-6.2,3.6-6.1c3.2,0.1,3.3,3.7,3.7,4.4
		c0.4,0.7,1,0.7,1.4-0.2c0.4-0.9,0.8-2.1,1.3-3.1c0.5-0.9,0.1-1.3-0.7-1.7C111.1,18.1,109.6,17.5,106.8,17.6z"/>
	<path fill="#FFF8EE" d="M31.2,24.5c0.4-3.2,3.2-6.5,7-6.9c3.8-0.3,5.2,0.7,6.3,1.6c1.3,1.1,2.9,3.9,2.3,4.6
		c-0.6,0.6-6.6,2.2-8.9,3.1c-0.4,0.2-1,0.3-0.8,0.9c0.4,1.1,1.7,2.8,3.3,3.2c2.3,0.7,4.6-0.5,6-1.7c0.7-0.6,1.6,0,1,1.1
		c-0.4,0.8-2.8,3-7.2,3.2C33.6,34,30.6,28.9,31.2,24.5z M38,19.5c-1,0.1-1.8,1-2.1,2.1c-0.4,1.5,0,3.6,0.5,3.8
		c0.5,0.2,4.9-1.4,5.2-1.9C42.1,22.9,40.9,19.2,38,19.5z"/>
	<path fill="#FFF8EE" d="M122.7,17.5c1.3,0,4.2,0.2,5.5,3.5c1.2,3.2,2.6,7.9,3.2,8.9c0.6,1,1.5,1.4,2,0.9c0.5-0.4,0.8,0.2,0.8,0.8
		c0,0.7-0.6,1.6-2.1,2c-1.5,0.4-3.5-0.2-4-0.7c-0.5-0.4-0.8-1-1.1-0.9c-1.1,0.1-2.2,1.6-5.7,1.8c-4.4,0.3-6.6-2.5-6.3-4.8
		c0.3-2.4,1.5-3.6,3.7-4.6c1.4-0.6,4.2-0.8,5.3-0.8c0.5,0,0.1-0.8,0.1-1c-0.6-2.7-2.8-2.9-4.6-2.3c-1.1,0.4-2,1.1-2.3,1.3
		c-0.8,0.4-1.5-0.5-0.8-1.4C118.5,17.7,120.5,17.6,122.7,17.5z M121.5,26c-0.9,0.4-1.9,1.6-1.5,3c0.4,1.5,1.4,2.8,4.1,2.3
		c2.7-0.6,1.4-3.8,1.1-4.4c-0.3-0.6-0.5-1.1-1.2-1.1C123.3,25.7,122.4,25.6,121.5,26z"/>
	<path fill="#FFF8EE" d="M157,6.4c0.5,2.2,2.8,3.5,7.2,3.2c1.2-0.1,3.4-0.1,4.9-0.4c1.9-0.4,3.1-0.6,3.6-0.2
		c0.4,0.2,0.5,1.3,0.5,2.9c0.1,6.9,0,25-0.2,27.1c-0.1,1.2-1.3,3.6-2.5,6c-0.7,1.5,0.7,3,2,2.1c1-0.7,5.8-4.3,8.3-5.7
		c0.8-0.4,0.9-1.6,0.2-2.3c-0.8-0.7-1.2-1.6-1.2-3.4c0-8.9-0.1-11.5,0-12.9c0-1.1,0-1.3,0.8-1.4c0.8,0,5.8-0.1,6.4,0
		c0.6,0.1,1.7,1,2.6,1.6c0.6,0.4,2,0.2,1.7-0.9c-0.4-1.1-0.8-2.6-1-3.5c-0.6-2.8-0.9-4.5-3.6-2.2c0,0-0.2,0.3-0.5,0.3
		c-0.3,0-5.8,0.1-6.2-0.2c-0.3-0.3-0.2-3.3-0.2-4.9c0.1-1.5-0.8-3.7,4.2-3.9c3.4-0.2,7.7-0.5,11.2-0.2c3.3,0.3,5.9,0.8,7.6,1.6
		c1.8,0.8,3,0.2,3.5-0.2c0.2-0.1,0.9-0.8,0.7-1.9c-0.2-1.1-0.3-2.5-1.3-3.5c-0.8-0.8-3-1-4.5-1.2c-4.7-0.7-12.7,0.2-19.1,1.2
		c1.9-0.3-9.1,2-13.7,1.5c-5.2-0.6-6.3-1.5-6.5-1.9C161.8,3,161.2,1.9,160,2C158.1,2,156.4,3.5,157,6.4z"/>
	<path fill="#FFF8EE" d="M225.3,18.8c-0.6,0.6-0.7,1.8,0.4,1.7c0,0,1.1,0,1.3,0c0.3,0,0.5,0.1,0.5,0.4c0,0.1,0.1,3.2,0.1,5.3
		c0,3.5-0.6,4.2-0.3,5c0.5,1.7,2.5,2.5,4.6,2.6c2.3,0,4.4-1,5.2-1.8c1.2-1.2,0.5-2.7-1-1.8c-0.8,0.5-1.7,1.2-2.6,0.9
		c-0.8-0.2-1.1-0.9-1.2-1.9c-0.1-1-0.1-7.2-0.1-7.8c0-0.6,0-0.9,0.4-1c0.4-0.1,3.8-0.1,4.4-0.1c0.2,0,0.5-1.8,0.6-2
		c0-0.2,0-0.5-0.4-0.5c-0.4,0-3.8,0.1-4.8-0.2c-0.3-2.2-0.1-4.5-0.1-5.2c0-0.6-0.6-1.1-1.2-0.4C230.2,12.9,228.5,15.6,225.3,18.8z"
		/>
	<path fill="#FFF8EE" d="M270.2,18c-0.8,0.1-1.1,1.5,0,2c1.2,0.5,1.5,1.3,1.7,1.8c0.7,1.5,4.1,9.4,4.9,10.8l0.1,0.3
		c-4.2,5.6-7,7.8-9.6,8.8c-1.6,0.6-2.9,0.5-4,0.1c-1.4-0.5-1.6-2.7-1.4-3c0.5-1-1-1.6-2.5-1.2c-1.5,0.4-3,2.1-2,4.3
		c1.1,2.6,4.6,3.9,8.9,2.9c3.8-0.9,7.7-3.1,11.5-7.2c2.7-2.9,4.2-5.2,5.8-8.3c1.9-3.4,3.2-7.5,3.4-7.9c0.3-0.8,1.1-1.5,1.5-1.7
		c0.4-0.2,0.6-1.6-0.3-1.7c-0.9-0.1-6.4-0.2-7.1,0.1c-0.7,0.2-0.4,1.3,0.3,1.7c0.4,0.2,1,0.4,1.1,0.8c0.2,0.4,0.1,1.2-0.2,1.9
		c-0.9,2.8-2.4,5.3-2.5,5.3c-0.1,0-0.9-1.6-1.7-3.3c-0.8-1.7-1.3-3.3-1.4-3.6c-0.1-0.6,0.3-1.2,1-1.3c0.7-0.1,0.8-1.7-0.4-1.7
		c-0.6,0-1.9,0-3.1,0.1C272.7,18.1,270.9,18,270.2,18z"/>
	<path fill="#FFF8EE" d="M261.8,20.9c-0.4,0.4-0.6,0.3-0.6,0.1c0-0.2,0-1.4,0-2c-0.1-1.8-1.6-0.7-3.2,0.2c-1.3,0.7-3.1,1.8-3.3,2
		c-0.2,0.2-0.3,1,0.3,1.3c0.4,0.2,0.9,0,1.2,0.4c0.2,0.2,0.3,0.8,0.3,1.5c0,1.7,0.1,5.5-0.1,6.3c-0.2,0.8-1.2,0.8-1.9,1.4
		c-0.6,0.6-0.3,1.7,0.7,1.7c1,0,6.1,0,6.8,0c1.2,0,1.4-1.4,0.7-1.8c-0.9-0.5-1.5-0.8-1.6-1.6c-0.3-2.3-0.2-4.5,0.1-5.9
		c0.1-0.6,0.7-1.6,1.6-2c0.6-0.2,1.4-0.4,2.3,0.7c0,0,0.4,0.7,0.7,1c0.3,0.3,1.2,0.1,1.3-0.7c0.2-0.8,0.8-2.6,1.2-3.8
		c0.4-1,0.4-2-2.2-1.7C263.6,18.3,262.5,20.1,261.8,20.9z"/>
	<path fill="#FFF8EE" d="M244.8,17.6c3.6-0.3,6.5,1.3,8.4,3.5c3.4,4.1,3.2,10.4-2.7,12.3c-6.9,1.9-13.3-0.8-13.3-7.4
		C237.1,21.6,240,17.9,244.8,17.6z M249.2,23.5c-1-2.4-3-4.7-5.4-4c-1.9,0.5-2.9,3.2-1.1,7.6c1.1,2.9,3.3,5.7,6.2,4.3
		C250.6,30.6,250.9,27.4,249.2,23.5z"/>
	<path fill="#FFF8EE" d="M24.9,17.9c-1,0-2.7,0.3-3.6,1.6c-0.2,0.3-0.7,0.3-0.7,0c0-0.4,0-8.9,0-9.4c0-0.5-0.7-0.4-1-0.2
		c-0.3,0.2-4.8,3.1-5.2,3.4c-0.4,0.3-0.4,1,0,1.2c0.5,0.2,1.6,0.5,1.6,1.1c0-0.6,0.1,11.7-0.1,14.6c-0.1,1.4-1.3,1.7-1.8,2
		c-0.4,0.3-0.1,1.5,0.6,1.5c0.8,0,6.1,0.1,6.7,0.1c0.6,0,1.4-0.7,0.9-1.5c-0.3-0.5-1.3-0.5-1.6-1.7c-0.4-1.4-0.2-6.1,0.1-7.5
		c0.1-0.7,0.4-1.1,1-1.5c0.6-0.3,1.1-0.2,1.5,0.1c0.6,0.5,1.1,1.6,1.4,2.1c0.7,1.5,1.5,5,1.5,7.8c0,7.9-3.7,10.1-4.4,10.6
		c-0.8,0.5-0.1,1.3,0.5,1.1c1.7-0.5,3-1.6,4.1-2.8c0.6-0.6,2.6-2.7,3.7-6c1.1-3.3,0.8-5.5,0.8-6.9C30.8,23.9,28.4,18,24.9,17.9z"/>
	<path fill="#FFF8EE" d="M81.2,24.6c0.4-3.2,3.2-6.5,7-6.9c3.8-0.3,5.2,0.7,6.3,1.6c1.3,1.1,2.9,3.9,2.3,4.6
		c-0.6,0.6-6.6,2.2-8.9,3.1c-0.4,0.2-1,0.3-0.8,0.9c0.4,1.1,1.7,2.8,3.3,3.2c2.3,0.7,4.6-0.5,6-1.7c0.7-0.6,1.6,0,1,1.1
		c-0.4,0.8-2.8,3-7.2,3.2C83.6,34.2,80.6,29.1,81.2,24.6z M88,19.7c-1,0.1-1.8,1-2.1,2.1c-0.4,1.5,0,3.6,0.5,3.8
		c0.5,0.2,4.9-1.4,5.2-1.9C92.1,23.1,90.9,19.3,88,19.7z"/>
	<path fill="#FFF8EE" d="M151.5,24.6c0.4-3.2,3.2-6.5,7-6.9c3.8-0.3,5.2,0.7,6.3,1.6c1.3,1.1,2.9,3.9,2.3,4.6
		c-0.6,0.6-6.6,2.2-8.9,3.1c-0.4,0.2-1,0.3-0.8,0.9c0.4,1.1,1.7,2.8,3.3,3.2c2.3,0.7,4.6-0.5,6-1.7c0.7-0.6,1.9-0.2,1.2,0.9
		c-0.4,0.8-3,3.3-7.5,3.4C153.9,34,150.9,29.1,151.5,24.6z M158.3,19.7c-1,0.1-1.8,1-2.1,2.1c-0.4,1.5,0,3.6,0.5,3.8
		c0.5,0.2,4.9-1.4,5.2-1.9C162.4,23.1,161.2,19.3,158.3,19.7z"/>
	<path fill="#FFF8EE" d="M198.1,17.5c1.3,0,4.2,0.2,5.5,3.5c1.2,3.2,2.6,7.9,3.2,8.9c0.6,1,1.5,1.4,2,0.9c0.5-0.4,0.8,0.2,0.8,0.8
		c0,0.7-0.6,1.7-2.1,2.1c-1.5,0.4-3.7-0.1-4.1-0.8c-0.3-0.5-0.7-1-1-0.9c-1.1,0.1-2.2,1.6-5.7,1.8c-4.4,0.3-6.6-2.5-6.3-4.8
		c0.3-2.4,1.5-3.6,3.7-4.6c1.4-0.6,4.2-0.8,5.3-0.8c0.5,0,0.1-0.8,0.1-1c-0.6-2.7-2.8-2.9-4.6-2.3c-1.1,0.4-2,1.1-2.3,1.3
		c-0.8,0.4-1.5-0.5-0.8-1.4C194,17.7,196,17.6,198.1,17.5z M196.9,26c-0.9,0.4-1.9,1.6-1.5,3c0.4,1.5,1.4,2.8,4.1,2.3
		c2.7-0.6,1.4-3.8,1.1-4.4c-0.3-0.6-0.5-1.1-1.2-1.1C198.8,25.7,197.8,25.6,196.9,26z"/>
	<path fill="#FFF8EE" d="M217.6,17.6c-3.6,0-8.8,2.2-9,8.3c-0.1,6.2,4.8,8.1,8.7,8.2c5.8-0.3,7.1-3.4,7.7-4.4
		c0.4-0.7-0.8-1.6-1.5-0.5c-1.8,2.4-4.3,2.8-5.7,2.3c-2.5-0.7-3.4-2.7-3.7-5.7c-0.3-2.7,0.6-6.2,3.6-6.1c3.2,0.1,3.3,3.7,3.7,4.4
		c0.4,0.7,1,0.7,1.4-0.2c0.4-0.9,0.8-2.1,1.3-3.1c0.5-0.9,0.1-1.3-0.7-1.7C221.9,18.2,220.4,17.6,217.6,17.6z"/>
	<path fill="#FFF8EE" d="M47.7,24.6c0.4-3.2,3.2-6.5,7-6.9c3.8-0.3,5.2,0.7,6.3,1.6c1.3,1.1,2.9,3.9,2.3,4.6
		c-0.6,0.6-6.6,2.2-8.9,3.1c-0.4,0.2-1,0.3-0.8,0.9c0.4,1.1,1.7,2.8,3.3,3.2c2.3,0.7,4.6-0.5,6-1.7c0.7-0.6,1.6,0,1,1.1
		c-0.4,0.8-2.8,3-7.2,3.2C50.1,34.2,47.1,29.1,47.7,24.6z M54.6,19.7c-1,0.1-1.8,1-2.1,2.1c-0.4,1.5,0,3.6,0.5,3.8
		c0.5,0.2,4.9-1.4,5.2-1.9C58.6,23.1,57.4,19.3,54.6,19.7z"/>
	<path fill="#FFF8EE" d="M285.1,30.4c0-1.8,1.4-3,3.1-3c1.7,0,3.1,1.3,3.1,3c0,1.8-1.4,3.1-3.1,3.1
		C286.5,33.5,285.1,32.2,285.1,30.4z M288.2,33c1.4,0,2.5-1.1,2.5-2.6c0-1.4-1.1-2.5-2.5-2.5c-1.4,0-2.5,1.1-2.5,2.5
		C285.7,31.9,286.8,33,288.2,33z"/>
	<path fill="#FFF8EE" d="M287.5,32.2H287v-3.5h1.3c0.8,0,1.2,0.3,1.2,1c0,0.6-0.4,0.9-0.9,1l1,1.6h-0.6l-0.9-1.5h-0.6V32.2z
		 M288.1,30.2c0.5,0,0.9,0,0.9-0.6c0-0.4-0.4-0.5-0.8-0.5h-0.7v1.1H288.1z"/>
</g>
</svg>
