<?xml version="1.0" encoding="utf-8"?>
<!-- Generator: Adobe Illustrator 24.0.3, SVG Export Plug-In . SVG Version: 6.00 Build 0)  -->
<svg version="1.1" id="Layer_1" xmlns="http://www.w3.org/2000/svg" xmlns:xlink="http://www.w3.org/1999/xlink" x="0px" y="0px"
	 viewBox="0 0 32 32" style="enable-background:new 0 0 32 32;" xml:space="preserve">
<style type="text/css">
	.st0{enable-background:new    ;}
	.st1{fill:#D51C59;}
</style>
<g class="st0">
	<path class="st1" d="M27.62,12.12c0,4.69-1.63,6-10.43,18.75c-0.58,0.83-1.81,0.83-2.39,0C6.01,18.12,4.38,16.81,4.38,12.12
		C4.38,5.7,9.58,0.5,16,0.5S27.62,5.7,27.62,12.12z M25.69,12.12c0-2.59-1.01-5.02-2.84-6.85C21.02,3.45,18.59,2.44,16,2.44
		s-5.02,1.01-6.85,2.84s-2.84,4.26-2.84,6.85C6.31,16.03,7.57,17,16,29.2C24.43,17,25.69,16.03,25.69,12.12z M21.81,12.12
		c0,3.21-2.61,5.81-5.81,5.81s-5.81-2.61-5.81-5.81S12.8,6.31,16,6.31S21.81,8.92,21.81,12.12z M19.88,12.12
		c0-2.14-1.74-3.88-3.88-3.88s-3.88,1.74-3.88,3.88S13.86,16,16,16S19.88,14.26,19.88,12.12z"/>
</g>
</svg>
