<?xml version="1.0" encoding="utf-8"?>
<!-- Generator: Adobe Illustrator 25.2.0, SVG Export Plug-In . SVG Version: 6.00 Build 0)  -->
<svg version="1.1" id="Layer_1" xmlns="http://www.w3.org/2000/svg" xmlns:xlink="http://www.w3.org/1999/xlink" x="0px" y="0px"
	 width="36px" height="36px" viewBox="0 0 36 36" style="enable-background:new 0 0 36 36;" xml:space="preserve">
<style type="text/css">
	.st0{fill:#FFFFFF;}
</style>
<g>
	<path class="st0" d="M33.9,11.2v19.1c0,3.1-2.5,5.7-5.7,5.7H8.1c-3.1,0-5.7-2.5-5.7-5.7V11.2h6.9V8.9c0-4.9,4-8.9,8.9-8.9
		s8.9,4,8.9,8.9v2.2H33.9z M13.1,15.7c0-0.9-0.7-1.6-1.6-1.6s-1.6,0.7-1.6,1.6c0,0.9,0.7,1.6,1.6,1.6S13.1,16.5,13.1,15.7z
		 M13.7,11.2h8.9V8.9c0-2.5-2.1-4.5-4.5-4.5s-4.5,1.9-4.5,4.5V11.2z M26.7,15.7c0-0.9-0.7-1.6-1.6-1.6s-1.6,0.7-1.6,1.6
		c0,0.9,0.7,1.6,1.6,1.6C25.8,17.3,26.7,16.5,26.7,15.7z"/>
</g>
</svg>
