<svg xmlns="http://www.w3.org/2000/svg" width="28.875" height="33" viewBox="0 0 28.875 33">
  <path id="Path_27" data-name="Path 27" d="M22.687,8.375a8.25,8.25,0,1,0-16.5,0H0V27.969a5.156,5.156,0,0,0,5.156,5.156H23.719a5.156,5.156,0,0,0,5.156-5.156V8.375Zm-8.25-6.187a6.194,6.194,0,0,1,6.187,6.187H8.25A6.194,6.194,0,0,1,14.437,2.188ZM26.812,27.969a3.1,3.1,0,0,1-3.094,3.094H5.156a3.1,3.1,0,0,1-3.094-3.094V10.438H6.187v3.094a1.031,1.031,0,0,0,2.062,0V10.438H20.625v3.094a1.031,1.031,0,1,0,2.062,0V10.438h4.125Z" transform="translate(0 -0.125)" fill="#fff"/>
</svg>
