<svg xmlns="http://www.w3.org/2000/svg" width="28.875" height="33" viewBox="0 0 28.875 33">
  <path id="Path_21" data-name="Path 21" d="M25.781,4.25H22.687V.9a.776.776,0,0,0-.773-.773H21.4A.776.776,0,0,0,20.625.9V4.25H8.25V.9A.776.776,0,0,0,7.477.125H6.961A.776.776,0,0,0,6.187.9V4.25H3.094A3.1,3.1,0,0,0,0,7.344V30.031a3.1,3.1,0,0,0,3.094,3.094H25.781a3.1,3.1,0,0,0,3.094-3.094V7.344A3.1,3.1,0,0,0,25.781,4.25ZM3.094,6.313H25.781a1.034,1.034,0,0,1,1.031,1.031v3.094H2.062V7.344A1.034,1.034,0,0,1,3.094,6.313Zm22.687,24.75H3.094a1.034,1.034,0,0,1-1.031-1.031V12.5h24.75V30.031A1.034,1.034,0,0,1,25.781,31.062ZM9.539,20.75a.776.776,0,0,0,.773-.773V17.4a.776.776,0,0,0-.773-.773H6.961a.776.776,0,0,0-.773.773v2.578a.776.776,0,0,0,.773.773Zm6.187,0a.776.776,0,0,0,.773-.773V17.4a.776.776,0,0,0-.773-.773H13.148a.776.776,0,0,0-.773.773v2.578a.776.776,0,0,0,.773.773Zm6.187,0a.776.776,0,0,0,.773-.773V17.4a.776.776,0,0,0-.773-.773H19.336a.776.776,0,0,0-.773.773v2.578a.776.776,0,0,0,.773.773Zm-6.187,6.187a.776.776,0,0,0,.773-.773V23.586a.776.776,0,0,0-.773-.773H13.148a.776.776,0,0,0-.773.773v2.578a.776.776,0,0,0,.773.773Zm-6.187,0a.776.776,0,0,0,.773-.773V23.586a.776.776,0,0,0-.773-.773H6.961a.776.776,0,0,0-.773.773v2.578a.776.776,0,0,0,.773.773Zm12.375,0a.776.776,0,0,0,.773-.773V23.586a.776.776,0,0,0-.773-.773H19.336a.776.776,0,0,0-.773.773v2.578a.776.776,0,0,0,.773.773Z" transform="translate(0 -0.125)" fill="#fff"/>
</svg>
